<?xml version="1.0" encoding="UTF-8"?>
<!-- Generator: Adobe Illustrator 16.0.0, SVG Export Plug-In . SVG Version: 6.00 Build 0)  -->
<!DOCTYPE svg PUBLIC "-//W3C//DTD SVG 1.1//EN" "http://www.w3.org/Graphics/SVG/1.1/DTD/svg11.dtd">
<svg version="1.1" id="Layer_1" xmlns:x="http://ns.adobe.com/Extensibility/1.0/" xmlns:i="http://ns.adobe.com/AdobeIllustrator/10.0/" xmlns:graph="http://ns.adobe.com/Graphs/1.0/" xmlns="http://www.w3.org/2000/svg" xmlns:xlink="http://www.w3.org/1999/xlink" x="0px" y="0px" width="50px" height="50px" viewBox="0 0 50 50" enable-background="new 0 0 50 50" xml:space="preserve">
<metadata>
	<sfw xmlns="http://ns.adobe.com/SaveForWeb/1.0/">
		<slices/>
		<sliceSourceBounds width="49.484" height="49" y="-49.5" x="0.258" bottomLeftOrigin="true"/>
	</sfw>
</metadata>
<path fill-rule="evenodd" clip-rule="evenodd" d="M49.742,39.202c-0.545,0.731-1.063,1.482-1.641,2.186  c-0.289,0.352-0.406,0.675-0.34,1.133c0.098,0.65,0.125,1.313,0.154,1.971c0.041,0.954-0.525,1.356-1.43,1.012  c-0.646-0.246-1.27-0.55-1.922-0.774c-0.246-0.085-0.57-0.089-0.816-0.005c-0.652,0.223-1.277,0.526-1.922,0.774  c-0.924,0.354-1.504-0.055-1.455-1.032c0.037-0.724,0.139-1.443,0.162-2.165c0.006-0.244-0.086-0.535-0.23-0.731  c-0.412-0.556-0.877-1.071-1.316-1.605c-0.678-0.828-0.457-1.501,0.584-1.776c0.668-0.177,1.348-0.315,2.008-0.513  c0.205-0.061,0.42-0.225,0.537-0.402c0.391-0.59,0.729-1.213,1.105-1.812c0.545-0.862,1.316-0.855,1.859,0.016  c0.369,0.587,0.697,1.197,1.08,1.771c0.127,0.188,0.355,0.36,0.572,0.427c0.629,0.193,1.273,0.34,1.914,0.485  c0.541,0.123,0.951,0.375,1.096,0.946C49.742,39.138,49.742,39.169,49.742,39.202z M44.145,36.736  c-0.346,0.573-0.652,1.062-0.938,1.563c-0.219,0.391-0.533,0.622-0.971,0.721c-0.57,0.129-1.135,0.286-1.773,0.448  c0.311,0.374,0.541,0.708,0.824,0.984c0.648,0.631,0.834,1.376,0.682,2.249c-0.066,0.367-0.059,0.748-0.084,1.123  c0.025,0.053,0.049,0.106,0.074,0.16c1.469-1.103,2.939-1.018,4.451,0.002c-0.027-0.5,0-0.844-0.072-1.166  c-0.236-1.034,0.096-1.857,0.838-2.569c0.232-0.223,0.408-0.504,0.639-0.795c-0.627-0.157-1.168-0.313-1.719-0.426  c-0.479-0.098-0.807-0.358-1.041-0.777C44.777,37.766,44.48,37.291,44.145,36.736z M49.742,15.137  c-0.225,1.23-0.453,2.459-0.674,3.69c-0.111,0.617-0.197,1.238-0.314,1.853c-0.199,1.038-0.789,1.52-1.84,1.524  c-0.643,0.003-1.285,0.005-1.93,0c-0.934-0.008-1.547-0.459-1.715-1.366c-0.367-1.974-0.705-3.953-1.025-5.935  c-0.125-0.771,0.555-1.576,1.393-1.599c1.559-0.043,3.121-0.031,4.68-0.006c0.701,0.012,1.094,0.518,1.426,1.066  C49.742,14.622,49.742,14.879,49.742,15.137z M43.684,14.752c0.328,1.934,0.646,3.802,0.963,5.67  c0.041,0.247,0.168,0.345,0.428,0.338c0.594-0.017,1.191-0.018,1.785,0c0.297,0.009,0.432-0.092,0.477-0.394  c0.141-0.889,0.307-1.773,0.457-2.66c0.166-0.973,0.324-1.947,0.492-2.954C46.736,14.752,45.246,14.752,43.684,14.752z M0.258,15.91  c0.305-0.75,0.879-1.119,1.659-1.298c1.204-0.277,2.389-0.634,3.585-0.946c1.184-0.31,2.005,0.272,2.115,1.477  c0.166,1.808,0.336,3.617,0.507,5.425c0.102,1.072-0.331,1.72-1.36,2.011c-0.571,0.161-1.146,0.312-1.72,0.465  c-1.126,0.301-1.792-0.011-2.293-1.089c-0.677-1.456-1.344-2.916-2.017-4.374c-0.154-0.333-0.317-0.663-0.477-0.994  C0.258,16.361,0.258,16.136,0.258,15.91z M1.688,16.185c0.827,1.794,1.615,3.499,2.394,5.206c0.121,0.264,0.258,0.356,0.56,0.26  c0.55-0.174,1.113-0.31,1.675-0.441c0.313-0.073,0.404-0.233,0.369-0.55c-0.102-0.942-0.172-1.888-0.261-2.832  c-0.087-0.924-0.183-1.847-0.281-2.838C4.642,15.393,3.195,15.781,1.688,16.185z M22.647,19.823c0.668,0.532,1.333,1.063,2.021,1.61  c0.938-1.128,1.863-2.241,2.789-3.354c0.482-0.582,0.914-0.71,1.289-0.379c0.354,0.314,0.301,0.732-0.172,1.304  c-0.934,1.126-1.869,2.25-2.766,3.33c0.61,0.603,1.19,1.178,1.815,1.796c0.727-0.601,1.516-1.251,2.303-1.905  c2.439-2.026,4.879-4.053,7.32-6.08c0.459-0.382,0.463-0.424,0.029-0.858c-0.889-0.889-1.785-1.768-2.662-2.669  c-0.297-0.306-0.49-0.31-0.766,0.03c-0.891,1.103-1.791,2.197-2.727,3.26c-0.182,0.206-0.553,0.376-0.816,0.352  c-0.564-0.053-0.715-0.736-0.301-1.241c0.797-0.971,1.605-1.933,2.406-2.898c0.186-0.223,0.363-0.455,0.561-0.665  c0.656-0.697,1.693-0.773,2.385-0.114c1.107,1.057,2.189,2.139,3.248,3.243c0.703,0.734,0.582,1.823-0.244,2.514  c-1.814,1.52-3.641,3.026-5.461,4.539c-1.447,1.202-2.895,2.406-4.375,3.638c0.594,0.749,1.17,1.472,1.658,2.088  c1.441-0.417,2.791-0.91,4.186-1.189c2.82-0.566,5.607-0.198,8.346,0.598c0.553,0.161,1.119,0.32,1.635,0.57  c1.459,0.706,2.256,2.256,1.982,3.738c-0.344,1.85-2.002,2.971-3.883,2.552c-1.316-0.294-2.602-0.724-3.914-1.032  c-1.639-0.385-3.311-0.49-4.99-0.433c-0.129,0.005-0.256,0.021-0.383,0.038c-0.029,0.004-0.051,0.034-0.041,0.025  c0.174,0.798,0.402,1.57,0.498,2.358c0.219,1.826-0.533,3.104-2.268,3.742c-3.787,1.392-7.592,2.733-11.393,4.089  c-4.254,1.517-8.511,3.028-12.77,4.534c-0.377,0.134-0.77,0.235-1.164,0.306c-2.142,0.383-3.688-1.156-3.311-3.3  c0.081-0.456,0.217-0.907,0.373-1.345c2.738-7.712,5.483-15.419,8.228-23.128c0.082-0.227,0.18-0.448,0.26-0.675  c0.767-2.177,2.422-2.74,4.409-2.361c0.689,0.131,1.357,0.375,2.082,0.58c0.024-0.183,0.055-0.384,0.077-0.585  c0.314-2.859-0.056-5.651-0.813-8.406c-0.267-0.971-0.34-1.938,0.128-2.872c1.053-2.102,4.026-2.326,5.557-0.434  c0.657,0.811,0.845,1.79,1.066,2.762c0.775,3.397,0.819,6.766-0.438,10.071C23.355,18.316,22.995,19.037,22.647,19.823z   M12.118,21.498c0.497,0.201,0.92,0.353,1.329,0.54c2.47,1.128,4.618,2.735,6.659,4.498c0.244,0.21,0.503,0.409,0.714,0.649  c0.271,0.307,0.26,0.66-0.021,0.958c-0.264,0.28-0.595,0.318-0.918,0.099c-0.199-0.135-0.374-0.306-0.555-0.465  c-1.739-1.517-3.563-2.918-5.613-3.996c-0.648-0.341-1.334-0.609-2.053-0.933c-0.394,1.109-0.755,2.127-1.109,3.126  c5.759,3.27,10.218,7.732,13.472,13.466c1.02-0.365,2.038-0.729,3.165-1.129c-0.477-0.964-0.824-1.916-1.376-2.729  c-1.136-1.675-2.378-3.279-3.585-4.906c-0.311-0.418-0.329-0.835-0.004-1.117c0.338-0.294,0.738-0.243,1.096,0.162  c0.394,0.448,0.78,0.902,1.15,1.368c1.495,1.885,2.875,3.839,3.766,6.099c0.084,0.218,0.172,0.437,0.268,0.679  c0.885-0.336,1.73-0.646,2.564-0.979c0.672-0.268,1.047-0.771,1.119-1.5c0.092-0.894-0.148-1.726-0.473-2.535  c-0.887-2.225-2.266-4.145-3.768-5.981c-2.636-3.226-5.732-5.914-9.387-7.931c-1.045-0.578-2.145-1.037-3.357-1.141  c-1.001-0.085-1.705,0.232-2.049,1.023C12.773,19.688,12.467,20.584,12.118,21.498z M8.263,32.384  c3.725,2.549,6.822,5.651,9.345,9.338c1.678-0.598,3.322-1.183,5.024-1.79c-3.082-5.333-7.244-9.494-12.579-12.571  C9.448,29.061,8.861,30.705,8.263,32.384z M21.446,18.961c0.292-0.667,0.606-1.299,0.85-1.957c1.306-3.52,1.017-7.048,0.009-10.571  c-0.185-0.647-0.611-1.129-1.247-1.391C19.74,4.5,18.473,5.406,18.582,6.824c0.026,0.35,0.111,0.698,0.199,1.04  c0.545,2.125,0.968,4.27,0.906,6.478c-0.027,0.996-0.132,1.99-0.181,2.985c-0.009,0.18,0.03,0.453,0.149,0.534  C20.208,18.242,20.797,18.571,21.446,18.961z M31.145,28.704c0.344,0.58,0.699,1.116,0.988,1.688  c0.166,0.331,0.363,0.408,0.713,0.379c1.984-0.162,3.957-0.041,5.896,0.398c1.299,0.294,2.572,0.699,3.863,1.021  c0.949,0.236,1.744-0.099,2.113-0.827c0.398-0.786,0.213-1.763-0.496-2.363c-0.264-0.223-0.582-0.414-0.908-0.523  c-2.668-0.887-5.391-1.353-8.209-0.963C33.732,27.704,32.412,28.081,31.145,28.704z M7.76,33.801  c-0.409,1.148-0.802,2.218-1.157,3.3c-0.044,0.134,0.065,0.398,0.188,0.496c2.072,1.653,3.94,3.505,5.571,5.593  c0.196,0.252,0.364,0.278,0.646,0.172c0.886-0.335,1.783-0.641,2.674-0.959c0.155-0.056,0.307-0.121,0.493-0.195  C13.847,38.89,11.078,36.129,7.76,33.801z M5.973,38.828c-0.182,0.513-0.357,0.991-0.524,1.474c-0.425,1.229-0.867,2.451-1.257,3.69  c-0.15,0.475-0.176,0.984,0.181,1.424c0.417,0.511,0.979,0.56,1.538,0.391c1.09-0.328,2.163-0.714,3.24-1.084  c0.66-0.227,1.315-0.467,2.007-0.713C9.622,42.053,7.921,40.355,5.973,38.828z M6.124,2.671c0.924,0.332,1.662-0.179,2.311-0.959  c0.256-0.307,0.562-0.578,0.871-0.834c0.637-0.525,1.335-0.342,1.604,0.442c0.246,0.713,0.412,1.454,0.657,2.167  c0.073,0.215,0.255,0.438,0.449,0.558c0.602,0.372,1.238,0.685,1.849,1.042c0.831,0.486,0.868,1.189,0.096,1.759  c-0.569,0.42-1.172,0.798-1.721,1.243c-0.212,0.172-0.39,0.458-0.456,0.724c-0.171,0.685-0.26,1.39-0.402,2.083  c-0.191,0.936-0.857,1.196-1.638,0.634c-0.548-0.395-1.089-0.803-1.604-1.239c-0.303-0.256-0.605-0.302-0.98-0.241  c-0.682,0.11-1.368,0.211-2.057,0.259C4.23,10.37,3.817,9.813,4.091,8.981c0.231-0.702,0.511-1.389,0.723-2.096  c0.07-0.234,0.063-0.54-0.027-0.765C4.521,5.448,4.186,4.805,3.895,4.143c-0.381-0.867,0.012-1.458,0.968-1.47  C5.233,2.667,5.604,2.671,6.124,2.671z M12.696,6.092c-0.625-0.345-1.052-0.605-1.5-0.821c-0.547-0.262-0.882-0.656-1.009-1.261  c-0.105-0.497-0.28-0.979-0.448-1.551C9.308,2.876,8.913,3.223,8.56,3.609c-0.39,0.427-0.846,0.596-1.419,0.56  C6.618,4.135,6.091,4.162,5.367,4.162c1.25,1.486,1.217,3.004,0.325,4.631c1.751-0.565,3.182-0.159,4.413,1.191  C10.089,8.1,10.894,6.818,12.696,6.092z M45.852,9.591c-0.68-0.086-1.381-0.194-2.086-0.253c-0.199-0.017-0.443,0.062-0.611,0.178  c-0.527,0.368-1.018,0.789-1.541,1.163c-0.781,0.558-1.445,0.28-1.625-0.659c-0.057-0.3-0.156-0.601-0.158-0.901  c-0.012-1.057-0.521-1.764-1.441-2.234c-0.297-0.153-0.564-0.373-0.826-0.584c-0.613-0.491-0.582-1.176,0.092-1.589  c0.576-0.353,1.191-0.64,1.764-0.998c0.193-0.121,0.369-0.347,0.443-0.563c0.205-0.591,0.34-1.208,0.527-1.806  c0.287-0.917,1.027-1.112,1.738-0.462c0.463,0.424,0.891,0.89,1.369,1.294c0.184,0.157,0.465,0.264,0.709,0.274  c0.594,0.025,1.191-0.03,1.787-0.031c1.027-0.002,1.402,0.582,0.984,1.519c-0.248,0.558-0.537,1.101-0.75,1.672  c-0.09,0.244-0.104,0.561-0.031,0.811c0.184,0.648,0.453,1.271,0.654,1.916C47.084,9.082,46.648,9.623,45.852,9.591z M45.457,3.956  c-0.85-0.05-1.613,0.069-2.234-0.178c-0.609-0.244-1.072-0.858-1.719-1.411c-0.039,1.717-0.936,2.695-2.473,3.241  c1.574,0.664,2.225,1.85,2.27,3.493c1.098-1.221,2.387-1.509,3.926-1.063C44.42,6.609,44.436,5.274,45.457,3.956z M37.535,45.122  c-0.227,0.423-0.352,0.842-0.621,1.129c-0.879,0.94-1.801,1.842-2.725,2.739c-0.781,0.759-1.771,0.658-2.398-0.223  c-0.961-1.351-1.922-2.702-2.877-4.059c-0.68-0.969-0.617-1.629,0.229-2.476c0.398-0.399,0.793-0.802,1.197-1.194  c0.594-0.573,1.291-0.692,1.98-0.227c1.557,1.059,3.096,2.144,4.607,3.269C37.211,44.292,37.318,44.736,37.535,45.122z   M35.902,45.096c-1.447-1.023-2.928-2.071-4.445-3.146c-0.457,0.464-0.873,0.91-1.318,1.325c-0.229,0.214-0.213,0.368-0.039,0.607  c0.941,1.306,1.867,2.623,2.795,3.938c0.053,0.076,0.088,0.166,0.098,0.185C34,46.997,34.941,46.056,35.902,45.096z M26.783,6.308  c0.063-0.248,0.102-0.502,0.188-0.741c0.467-1.283,0.941-2.562,1.422-3.84c0.35-0.935,1.182-1.257,2.055-0.773  c0.928,0.513,1.846,1.044,2.754,1.593c0.871,0.527,1.01,1.381,0.367,2.163c-0.869,1.056-1.742,2.107-2.619,3.156  c-0.666,0.797-1.297,0.902-2.203,0.38c-0.418-0.241-0.838-0.477-1.246-0.731C27.027,7.221,26.824,6.848,26.783,6.308z M29.689,7.112  c0.938-1.129,1.838-2.215,2.764-3.329c-0.906-0.523-1.775-1.027-2.697-1.559c-0.508,1.371-1,2.702-1.502,4.055  C28.744,6.563,29.199,6.828,29.689,7.112z"/>
</svg>