<?xml version="1.0" encoding="UTF-8"?>
<!-- Generator: Adobe Illustrator 16.0.0, SVG Export Plug-In . SVG Version: 6.00 Build 0)  -->
<!DOCTYPE svg PUBLIC "-//W3C//DTD SVG 1.1//EN" "http://www.w3.org/Graphics/SVG/1.1/DTD/svg11.dtd">
<svg version="1.1" id="Layer_1" xmlns:x="http://ns.adobe.com/Extensibility/1.0/" xmlns:i="http://ns.adobe.com/AdobeIllustrator/10.0/" xmlns:graph="http://ns.adobe.com/Graphs/1.0/" xmlns="http://www.w3.org/2000/svg" xmlns:xlink="http://www.w3.org/1999/xlink" x="0px" y="0px" width="50px" height="50px" viewBox="0 0 50 50" enable-background="new 0 0 50 50" xml:space="preserve">
<metadata>
	<sfw xmlns="http://ns.adobe.com/SaveForWeb/1.0/">
		<slices/>
		<sliceSourceBounds width="50" height="49.318" y="-49.659" x="0" bottomLeftOrigin="true"/>
	</sfw>
</metadata>
<g>
	<path fill-rule="evenodd" clip-rule="evenodd" d="M0,23.341c0.289-0.527,0.729-0.736,1.33-0.69   c0.466,0.035,0.938,0.007,1.465,0.007c0-0.232,0-0.423,0-0.613c0-2.929,0.044-5.859-0.016-8.787   c-0.037-1.775,1.174-2.876,2.816-2.797c0.92,0.044,1.845,0.008,2.792,0.008c0-0.94,0-1.827,0-2.698   c-0.745,0-1.479,0.079-2.192-0.014c-2.908-0.379-4.967-2.311-5.696-5.27C0.464,2.345,0.427,2.203,0.403,2.059   C0.291,1.396,0.522,1,1.163,0.785c3.102-1.04,6.313-0.244,8.107,2.591C9.303,3.428,9.354,3.468,9.42,3.539   c0.569-0.918,1.263-1.683,2.17-2.231c1.986-1.199,4.068-1.198,6.197-0.461c0.462,0.16,0.716,0.585,0.636,1.036   c-0.496,2.801-2.278,5.204-5.214,5.771c-0.896,0.173-1.834,0.121-2.801,0.175c0,0.785,0,1.668,0,2.612   c0.136,0.009,0.29,0.026,0.444,0.027c0.863,0.002,1.725-0.008,2.587,0.003c1.55,0.02,2.566,1.039,2.569,2.583   c0.006,3.011,0.002,6.021,0.002,9.032c0,0.174,0,0.349,0,0.572c0.563,0,1.079-0.002,1.596,0c0.836,0.005,1.182,0.345,1.188,1.189   c0.008,1.054,0.002,2.108,0.002,3.27c0.217-0.136,0.361-0.219,0.498-0.313c2.706-1.863,5.412-3.725,8.112-5.595   c0.396-0.274,0.791-0.468,1.264-0.226c0.479,0.246,0.535,0.684,0.532,1.165c-0.01,1.626-0.004,3.253-0.004,4.975   c0.197-0.126,0.34-0.211,0.476-0.306c2.732-1.88,5.467-3.761,8.194-5.649c0.356-0.247,0.72-0.396,1.138-0.216   c0.467,0.201,0.594,0.601,0.592,1.078c-0.007,1.498-0.002,2.994-0.002,4.491c0,0.173,0,0.345,0,0.619   c0.242-0.163,0.387-0.259,0.529-0.356c2.706-1.864,5.41-3.728,8.117-5.59c0.779-0.536,1.27-0.424,1.758,0.39   c0,9.114,0,18.229,0,27.343c-0.236,0.548-0.658,0.732-1.244,0.732c-15.838-0.008-31.676-0.008-47.514,0   c-0.584,0-1.008-0.183-1.242-0.732C0,40.398,0,31.869,0,23.341z M37.643,23.721c-0.256,0.167-0.404,0.261-0.549,0.361   c-2.707,1.863-5.414,3.724-8.117,5.592c-0.385,0.267-0.773,0.434-1.222,0.183c-0.421-0.235-0.518-0.624-0.514-1.079   c0.012-1.53,0.005-3.06,0.003-4.59c0-0.134-0.02-0.269-0.031-0.424c-0.091,0.042-0.139,0.056-0.177,0.083   c-2.653,1.826-5.31,3.646-7.949,5.491c-0.167,0.116-0.278,0.427-0.279,0.647c-0.017,4.102-0.012,8.203-0.011,12.305   c0,0.172,0.017,0.345,0.027,0.55c0.248,0,0.441,0,0.635,0c3.011,0,6.022-0.002,9.033,0.001c0.805,0.001,1.259,0.356,1.258,0.972   c-0.002,0.617-0.459,0.974-1.258,0.98c-0.113,0-0.229,0-0.342,0c-2.914,0-5.827,0-8.74,0c-0.189,0-0.377,0-0.571,0   c0,1.001,0,1.934,0,2.875c9.75,0,19.458,0,29.177,0c0-0.968,0-1.903,0-2.875c-0.223,0-0.416,0-0.609,0   c-3.141,0-6.281,0-9.424-0.001c-0.194,0-0.393,0.003-0.583-0.029c-0.517-0.087-0.839-0.488-0.818-0.992   c0.021-0.499,0.378-0.869,0.9-0.918c0.178-0.017,0.357-0.013,0.536-0.013c3.142,0,6.283,0,9.424,0c0.19,0,0.381,0,0.563,0   c0-6.396,0-12.726,0-19.102c-0.238,0.162-0.428,0.287-0.615,0.416c-2.693,1.853-5.387,3.705-8.078,5.563   c-0.361,0.25-0.729,0.365-1.139,0.15c-0.409-0.215-0.531-0.585-0.53-1.022c0.003-1.236,0.001-2.474,0.001-3.71   C37.643,24.697,37.643,24.261,37.643,23.721z M16.822,24.646c-4.975,0-9.909,0-14.842,0c0,7.691,0,15.348,0,23.017   c0.976,0,1.924,0,2.911,0c0-0.211,0-0.388,0-0.563c0-2.961-0.001-5.923,0-8.884c0-1.479,0.783-2.269,2.248-2.27   c1.481-0.001,2.961-0.001,4.442,0c1.555,0,2.31,0.747,2.311,2.294c0.001,2.944,0,5.89,0,8.834c0,0.19,0,0.381,0,0.585   c1.012,0,1.961,0,2.929,0C16.822,39.976,16.822,32.333,16.822,24.646z M4.788,17.102c0,1.874,0,3.7,0,5.524   c3.104,0,6.168,0,9.232,0c0-1.859,0-3.687,0-5.524C10.931,17.102,7.878,17.102,4.788,17.102z M11.894,47.669   c0-3.271,0-6.507,0-9.741c-1.697,0-3.349,0-5.023,0c0,3.256,0,6.483,0,9.741C8.549,47.669,10.201,47.669,11.894,47.669z    M14.056,15.104c0-0.654,0.001-1.284,0-1.914c-0.002-0.63-0.138-0.767-0.778-0.768c-1.789-0.002-3.578-0.001-5.368-0.001   c-0.846,0-1.692-0.001-2.538,0.001c-0.298,0.001-0.59,0.072-0.602,0.426c-0.025,0.742-0.008,1.486-0.008,2.255   C7.873,15.104,10.938,15.104,14.056,15.104z M2.552,2.479c0.819,2.554,3.14,3.876,5.611,3.222C7.651,3.316,4.826,1.683,2.552,2.479   z M10.636,5.708c2.556,0.614,5.369-1.044,5.551-3.251C13.91,1.724,11.122,3.339,10.636,5.708z"/>
	<path fill-rule="evenodd" clip-rule="evenodd" d="M38.961,36.594c0-0.813-0.007-1.626,0.002-2.438   c0.006-0.697,0.35-1.068,1.043-1.074c1.674-0.015,3.35-0.015,5.023,0c0.654,0.005,1.033,0.381,1.039,1.039   c0.016,1.674,0.016,3.35-0.001,5.023c-0.007,0.651-0.389,1.022-1.051,1.029c-1.675,0.015-3.35,0.017-5.024-0.002   c-0.688-0.008-1.024-0.388-1.03-1.089C38.955,38.252,38.961,37.423,38.961,36.594z M44.082,38.206c0-1.083,0-2.111,0-3.144   c-1.069,0-2.1,0-3.137,0c0,1.066,0,2.098,0,3.144C41.999,38.206,43.019,38.206,44.082,38.206z"/>
	<path fill-rule="evenodd" clip-rule="evenodd" d="M29.873,36.612c0-0.829-0.008-1.658,0.002-2.487   c0.009-0.668,0.354-1.037,1.021-1.043c1.691-0.015,3.382-0.014,5.072,0.001c0.607,0.006,0.992,0.364,1.001,0.97   c0.023,1.707,0.022,3.414,0.003,5.121c-0.008,0.629-0.391,0.991-1.028,0.998c-1.675,0.017-3.349,0.017-5.023,0   c-0.696-0.006-1.039-0.377-1.046-1.072C29.866,38.271,29.873,37.441,29.873,36.612z M35.027,35.063c-1.105,0-2.135,0-3.168,0   c0,1.066,0,2.097,0,3.162c0.988,0,1.943,0.007,2.898-0.011c0.092-0.002,0.256-0.159,0.258-0.247   C35.035,37.013,35.027,36.058,35.027,35.063z"/>
	<path fill-rule="evenodd" clip-rule="evenodd" d="M24.337,33.074c0.796,0,1.593-0.006,2.389,0.002   c0.793,0.009,1.151,0.344,1.157,1.118c0.013,1.626,0.013,3.251-0.001,4.877c-0.006,0.745-0.367,1.099-1.122,1.104   c-1.625,0.012-3.251,0.013-4.876-0.001c-0.756-0.006-1.096-0.363-1.099-1.118c-0.006-1.626-0.006-3.252,0-4.877   c0.003-0.75,0.349-1.092,1.113-1.103C22.711,33.066,23.524,33.075,24.337,33.074z M25.907,35.058c-1.062,0-2.091,0-3.142,0   c0,1.058,0,2.086,0,3.139c1.057,0,2.085,0,3.142,0C25.907,37.15,25.907,36.135,25.907,35.058z"/>
	<path fill-rule="evenodd" clip-rule="evenodd" d="M32.199,43.801c0.004-0.54,0.421-0.951,0.963-0.951   c0.538,0,0.967,0.418,0.974,0.95c0.007,0.546-0.452,1-0.996,0.985C32.609,44.771,32.193,44.337,32.199,43.801z"/>
</g>
</svg>