<?xml version="1.0" encoding="UTF-8"?>
<!-- Generator: Adobe Illustrator 16.0.0, SVG Export Plug-In . SVG Version: 6.00 Build 0)  -->
<!DOCTYPE svg PUBLIC "-//W3C//DTD SVG 1.1//EN" "http://www.w3.org/Graphics/SVG/1.1/DTD/svg11.dtd">
<svg version="1.1" id="Layer_1" xmlns="http://www.w3.org/2000/svg" xmlns:xlink="http://www.w3.org/1999/xlink" x="0px" y="0px" width="46px" height="46px" viewBox="-14 -7 46 46" enable-background="new -14 -7 46 46" xml:space="preserve">
<g>
	<path fill="#272424" d="M27.763,6.587c0.104,4.762-4.095,9.021-9.137,8.903c-4.657-0.108-8.645-4.066-8.756-8.659   c-0.125-5.103,4.125-9.45,9.327-9.25C23.818-2.236,27.872,1.701,27.763,6.587 M18.838-0.849c-4.084,0.122-7.339,3.152-7.363,7.353   c-0.017,4.107,3.095,7.367,7.342,7.383c4.1,0.012,7.336-3.095,7.365-7.32C26.202,2.447,23.064-0.695,18.838-0.849"/>
	<path fill="#272424" d="M5.587,18.434c-0.64,0-1.289-0.011-1.938,0.004c-0.319,0.006-0.439-0.112-0.435-0.435   c0.022-1.329-0.139-1.102,1.092-1.116c1.066-0.008,2.133-0.006,3.2-0.003c0.739,0.001,0.977,0.246,0.975,0.968   c0,1.253-0.01,2.504,0.003,3.756c0.005,0.389-0.092,0.551-0.519,0.545c-1.258-0.023-0.997,0.087-1.036-1.035   c-0.019-0.462-0.004-0.928-0.005-1.392c0-0.021-0.032-0.044-0.076-0.104c-0.486,0.456-0.971,0.901-1.442,1.359   C2.062,24.212-1.277,27.449-4.62,30.68c-2.477,2.394-4.966,4.78-7.452,7.168c-0.467,0.451-0.47,0.449-0.933-0.011   c-0.659-0.668-0.664-0.672,0.004-1.316c4.998-4.832,10-9.664,15.001-14.494c1.102-1.059,2.206-2.116,3.311-3.171   c0.114-0.107,0.254-0.181,0.384-0.266C5.659,18.534,5.625,18.484,5.587,18.434"/>
	<path fill="#272424" d="M-0.987,11.758c-0.646,0-1.294-0.019-1.931,0.004c-0.394,0.018-0.559-0.094-0.549-0.514   c0.041-1.211-0.125-1.024,1.04-1.036c1.111-0.015,2.229-0.006,3.338-0.003c0.61,0.003,0.883,0.258,0.889,0.866   c0.005,1.313-0.006,2.626,0.005,3.938c0.004,0.337-0.113,0.469-0.453,0.463c-1.264-0.042-1.09,0.171-1.098-1.072   c-0.003-0.441,0-0.885,0-1.368c-0.259,0.083-0.368,0.258-0.509,0.393c-3.696,3.693-7.388,7.385-11.08,11.076   c-0.453,0.451-0.453,0.451-0.895,0.007c-0.695-0.689-0.695-0.689-0.005-1.377c3.659-3.662,7.312-7.324,10.98-10.979   c0.099-0.097,0.226-0.17,0.333-0.249C-0.94,11.854-0.965,11.805-0.987,11.758"/>
	<path fill="#272424" d="M13.458,26.279c-0.094,0.123-0.17,0.259-0.277,0.369C9.454,30.373,5.737,34.1,2.011,37.824   c-0.472,0.469-0.474,0.469-0.923,0.01c-0.657-0.666-0.657-0.666-0.004-1.316c3.668-3.669,7.34-7.338,11.003-11.009   c0.108-0.105,0.252-0.182,0.297-0.396c-0.659,0-1.305-0.018-1.946,0.006c-0.383,0.016-0.56-0.081-0.55-0.509   c0.038-1.229-0.133-1.032,1.02-1.047c1.118-0.006,2.226-0.005,3.336,0c0.654,0.004,0.909,0.253,0.911,0.892   c0.004,1.282-0.015,2.565,0.006,3.849c0.006,0.411-0.134,0.53-0.533,0.524c-1.174-0.032-1.008,0.138-1.019-1.002   c-0.006-0.492-0.001-0.981-0.001-1.473L13.458,26.279z"/>
	<path fill="#272424" d="M-4.111,3.598c-0.611,0-1.226-0.016-1.834,0.006c-0.359,0.013-0.489-0.119-0.483-0.48   c0.023-1.26-0.129-1.059,1.045-1.074c1.096-0.01,2.195-0.001,3.294-0.001C-1.425,2.05-1.166,2.297-1.164,2.97   c0.009,1.279-0.01,2.563,0.01,3.844C-1.15,7.202-1.29,7.33-1.67,7.316C-2.848,7.271-2.704,7.489-2.716,6.29   c0-0.45,0-0.899-0.005-1.343c0-0.045-0.018-0.091-0.027-0.135c-0.165-0.066-0.227,0.073-0.303,0.151   c-2.757,2.552-5.506,5.104-8.252,7.657c-0.498,0.464-0.508,0.475-0.965-0.012c-0.762-0.809-0.736-0.59,0.039-1.313   c2.593-2.432,5.198-4.838,7.803-7.254c0.121-0.111,0.269-0.195,0.403-0.294L-4.111,3.598z"/>
	<path fill="#272424" d="M20.355,28.817c-0.59,0-1.195-0.013-1.787,0.009c-0.37,0.011-0.534-0.092-0.52-0.495   c0.044-1.257-0.144-1.04,1.058-1.059c1.094-0.017,2.192-0.002,3.29,0.001c0.654,0.002,0.905,0.245,0.917,0.881   c0.006,1.296-0.014,2.594,0.007,3.894c0.003,0.352-0.1,0.495-0.473,0.486c-1.297-0.029-1.063,0.138-1.083-1.081   c-0.007-0.492,0-0.986,0-1.585c-0.537,0.492-1.012,0.915-1.477,1.351c-2.406,2.242-4.82,4.476-7.216,6.729   c-0.302,0.285-0.498,0.296-0.782-0.018c-0.721-0.779-0.742-0.773,0.023-1.488c2.572-2.39,5.145-4.774,7.714-7.156   c0.125-0.116,0.264-0.213,0.396-0.319C20.396,28.919,20.382,28.869,20.355,28.817"/>
	<path fill="#272424" d="M11.999,14.343c0,0.148-0.088,0.223-0.157,0.297c-0.385,0.384-0.777,0.757-1.144,1.15   c-0.219,0.231-0.387,0.201-0.565-0.031c-0.084-0.108-0.193-0.208-0.287-0.308C9.304,14.9,9.304,14.9,9.872,14.334   c0.272-0.27,0.548-0.539,0.813-0.82c0.199-0.205,0.351-0.199,0.545,0.007c0.192,0.218,0.415,0.412,0.621,0.624   C11.911,14.206,11.958,14.288,11.999,14.343"/>
	<path fill="#272424" d="M28.261-1.838c-0.046,0.06-0.103,0.154-0.178,0.23c-0.375,0.382-0.76,0.762-1.143,1.146   c-0.037,0.031-0.062,0.085-0.102,0.091c-0.599,0.111-0.674-0.517-1.044-0.737c-0.193-0.12-0.189-0.294-0.018-0.461   c0.404-0.403,0.807-0.809,1.211-1.21c0.056-0.051,0.125-0.103,0.199-0.119C27.309-2.926,28.261-2.009,28.261-1.838"/>
	<path fill="#272424" d="M10.392-2.91c0.137,0,0.192,0.078,0.263,0.142c0.401,0.403,0.797,0.814,1.204,1.208   c0.168,0.166,0.18,0.312,0,0.466c-0.008,0.009-0.017,0.022-0.035,0.029c-1.051,0.989-0.632,1.031-1.711,0.007   C9.937-1.229,9.782-1.42,9.587-1.58C9.366-1.769,9.333-1.935,9.564-2.147c0.218-0.196,0.411-0.412,0.625-0.614   C10.26-2.824,10.335-2.869,10.392-2.91"/>
	<path fill="#272424" d="M28.258,14.953c-0.037,0.051-0.07,0.122-0.126,0.171c-0.233,0.242-0.483,0.479-0.715,0.724   c-0.161,0.167-0.301,0.116-0.438-0.023c-0.39-0.396-0.77-0.797-1.165-1.188c-0.191-0.182-0.188-0.331,0.012-0.5   c0.111-0.1,0.216-0.217,0.324-0.327c0.563-0.561,0.563-0.558,1.099-0.003c0.264,0.278,0.544,0.548,0.817,0.822   C28.15,14.717,28.244,14.796,28.258,14.953"/>
	<path fill="#272424" d="M30.309,7.308h-0.043c-1.184,0.009-1.205-0.023-1.088-1.213c0.027-0.223,0.108-0.335,0.341-0.335   c0.535,0.004,1.074,0.003,1.619,0.004c0.041,0,0.101-0.007,0.133,0.013c0.424,0.337,0.116,0.795,0.192,1.192   c0.042,0.223-0.088,0.34-0.319,0.337c-0.278-0.004-0.556-0.003-0.835-0.003V7.308z"/>
	<path fill="#272424" d="M7.33,7.308c-0.031,0-0.058,0-0.091,0c-1.14-0.006-1.19-0.07-1.05-1.236   C6.218,5.863,6.29,5.764,6.501,5.764c0.559,0,1.106,0,1.665,0c0.03,0,0.072-0.004,0.09,0.012c0.454,0.3,0.142,0.754,0.214,1.132   c0.041,0.211-0.026,0.401-0.306,0.396c-0.275-0.001-0.557,0-0.834,0V7.308z"/>
	<path fill="#272424" d="M18.058,18.027v-0.229c0-1.007-0.103-0.914,0.914-0.913c0.63,0.002,0.633,0.009,0.633,0.645   c0,0.428-0.009,0.861,0,1.289c0,0.257-0.111,0.342-0.363,0.363C18.058,19.267,18.058,19.271,18.058,18.027"/>
	<path fill="#272424" d="M18.053-4.979v-0.139c0.008-1,0.277-1.204,1.304-0.989c0.163,0.032,0.239,0.116,0.239,0.275   c0.001,0.571,0.073,1.151-0.014,1.708c-0.089,0.595-0.625,0.223-0.952,0.29c-0.22,0.044-0.569,0.122-0.571-0.313   c-0.001-0.275,0-0.554,0-0.832H18.053z"/>
	<path fill="#272424" d="M16.017,4.845c1.61-0.035,1.235,0.252,1.725-1.186c0.105-0.337,0.205-0.677,0.309-1.018   c0.111-0.359,0.342-0.577,0.737-0.59c0.41-0.013,0.68,0.189,0.806,0.56c0.209,0.596,0.398,1.198,0.563,1.811   c0.089,0.328,0.259,0.439,0.589,0.429c0.536-0.026,1.082-0.006,1.621-0.007c0.424-0.003,0.781,0.122,0.911,0.558   c0.132,0.412-0.027,0.746-0.381,0.999c-0.478,0.346-0.926,0.725-1.406,1.059c-0.271,0.189-0.293,0.375-0.19,0.667   c0.19,0.551,0.352,1.115,0.533,1.673c0.138,0.417,0.134,0.814-0.256,1.081c-0.38,0.262-0.756,0.157-1.104-0.117   c-0.431-0.347-0.887-0.672-1.314-1.024c-0.229-0.189-0.413-0.198-0.65-0.004c-0.423,0.356-0.873,0.686-1.305,1.031   c-0.348,0.267-0.727,0.378-1.116,0.117c-0.393-0.265-0.393-0.653-0.249-1.074c0.188-0.584,0.352-1.179,0.546-1.767   c0.081-0.242,0.034-0.398-0.179-0.551c-0.495-0.365-0.974-0.756-1.477-1.119c-0.349-0.252-0.458-0.577-0.349-0.968   c0.12-0.393,0.434-0.548,0.823-0.558C15.51,4.838,15.816,4.845,16.017,4.845 M20.021,6.518c-0.617,0-0.984-0.274-1.187-0.894   c-0.196,0.646-0.604,0.875-1.213,0.905c0.558,0.334,0.706,0.792,0.463,1.475c0.537-0.375,0.97-0.363,1.536,0.037   C19.304,7.313,19.509,6.877,20.021,6.518"/>
</g>
</svg>