<?xml version="1.0" encoding="utf-8"?>
<!-- Generator: Adobe Illustrator 16.0.0, SVG Export Plug-In . SVG Version: 6.00 Build 0)  -->
<!DOCTYPE svg PUBLIC "-//W3C//DTD SVG 1.1//EN" "http://www.w3.org/Graphics/SVG/1.1/DTD/svg11.dtd" [
	<!ENTITY ns_extend "http://ns.adobe.com/Extensibility/1.0/">
	<!ENTITY ns_ai "http://ns.adobe.com/AdobeIllustrator/10.0/">
	<!ENTITY ns_graphs "http://ns.adobe.com/Graphs/1.0/">
	<!ENTITY ns_vars "http://ns.adobe.com/Variables/1.0/">
	<!ENTITY ns_imrep "http://ns.adobe.com/ImageReplacement/1.0/">
	<!ENTITY ns_sfw "http://ns.adobe.com/SaveForWeb/1.0/">
	<!ENTITY ns_custom "http://ns.adobe.com/GenericCustomNamespace/1.0/">
	<!ENTITY ns_adobe_xpath "http://ns.adobe.com/XPath/1.0/">
]>
<svg version="1.1" id="Layer_1" xmlns:x="&ns_extend;" xmlns:i="&ns_ai;" xmlns:graph="&ns_graphs;"
	 xmlns="http://www.w3.org/2000/svg" xmlns:xlink="http://www.w3.org/1999/xlink" x="0px" y="0px" width="80px" height="80px"
	 viewBox="0 0 80 80" enable-background="new 0 0 80 80" xml:space="preserve">
<metadata>
	<sfw  xmlns="&ns_sfw;">
		<slices></slices>
		<sliceSourceBounds  width="64" height="63.998" x="810.5" y="563.501" bottomLeftOrigin="true"></sliceSourceBounds>
	</sfw>
</metadata>
<g>
	<path fill-rule="evenodd" clip-rule="evenodd" fill="#FFFFFF" d="M47.224,50.258c-1.334,1.29-2.811,2.009-4.545,2.105
		c-3.206,0.179-6.015-1.823-6.932-4.947c-0.917-3.125-1.805-6.259-2.689-9.395c-0.125-0.443-0.304-0.834-0.587-1.196
		c-0.582-0.745-1.14-1.507-1.707-2.263c-0.271-0.361-0.587-0.719-0.68-1.157c-0.132-0.619-0.51-0.659-1.025-0.646
		c-0.356,0.009-0.417,0.128-0.415,0.445c0.014,1.72-0.006,3.439,0.016,5.159c0.006,0.438-0.041,0.62-0.569,0.618
		c-6.513-0.023-13.026-0.021-19.54-0.004C8.084,38.978,8,38.842,8.001,38.406C8.017,32.581,8.018,26.756,8,20.931
		c-0.001-0.465,0.132-0.551,0.57-0.55c6.513,0.015,13.026,0.016,19.539-0.001c0.464-0.001,0.56,0.128,0.553,0.568
		c-0.027,1.698,0.008,3.396-0.023,5.094c-0.009,0.467,0.132,0.552,0.57,0.551c4.622-0.017,9.243-0.024,13.865-0.004
		c2.398,0.01,3.879,2.512,2.728,4.576c-0.554,0.992-1.423,1.518-2.556,1.605c-0.086,0.007-0.173-0.001-0.258,0.005
		c-0.51,0.042-1.344-0.215-1.467,0.098c-0.283,0.72-0.567,1.53-0.357,2.367c0.606,2.411,1.21,4.824,1.836,7.323
		c0.863-1.122,1.734-2.141,2.764-3.016c1.808-1.536,3.833-2.666,6.122-3.296c0.407-0.112,0.581-0.289,0.5-0.701
		c-0.009-0.042-0.001-0.086-0.001-0.129c-0.001-0.494,0.132-1.042-0.038-1.469c-0.19-0.479-0.857-0.305-1.291-0.505
		c-1.723-0.795-2.642-2.124-2.793-4.001c-0.007-0.085-0.013-0.172-0.004-0.258c0.107-1.119,0.079-1.983-1.348-2.449
		c-1.387-0.453-2.015-2.171-1.652-3.613c0.386-1.537,0.842-3.057,1.287-4.578c0.094-0.32,0.137-0.483-0.263-0.659
		c-2.408-1.058-3.594-3.38-3.054-5.877c0.51-2.353,2.624-3.995,5.173-4.003c2.45-0.008,4.901-0.014,7.352,0
		c7.601,0.045,13.593,6.349,13.101,13.939c-0.328,5.055-2.902,8.748-7.415,11.044c-0.602,0.306-0.892,0.605-0.811,1.288
		c0.063,0.53-0.158,1.171,0.071,1.583c0.237,0.426,0.958,0.312,1.461,0.456c5.821,1.671,9.779,6.832,9.825,12.873
		c0.023,3.096,0.016,6.191,0.002,9.286c-0.015,3.005-2.259,5.229-5.271,5.253c-0.918,0.007-0.918,0.007-0.918,0.953
		c0,2.258-0.009,4.515,0.008,6.771c0.004,0.395-0.063,0.543-0.511,0.542c-5.847-0.018-11.693-0.018-17.54,0.001
		c-0.479,0.001-0.542-0.155-0.541-0.579C47.228,64.413,47.224,57.406,47.224,50.258z M51.597,47.417
		c-0.307-2.748-0.604-5.35-0.879-7.954c-0.042-0.391-0.054-0.609-0.538-0.367c-2.71,1.354-4.821,3.33-6.307,5.973
		c-0.11,0.197-0.169,0.385-0.109,0.61c0.106,0.409,0.416,0.896,0.229,1.215c-0.213,0.361-0.824,0.249-1.236,0.422
		c-0.508,0.215-0.703,0.063-0.836-0.486c-0.821-3.396-1.691-6.78-2.529-10.172c-0.081-0.328-0.141-0.504-0.534-0.365
		c-1.131,0.397-2.272,0.768-3.411,1.145c-0.245,0.082-0.378,0.147-0.278,0.488c0.894,3.043,1.725,6.104,2.644,9.138
		c0.624,2.061,2.588,3.353,4.734,3.243c1.77-0.089,4.142-1.839,4.658-3.44c0.032-0.099,0.013-0.213,0.021-0.32
		c0.03-0.444-0.196-1.036,0.085-1.298c0.306-0.286,0.9-0.037,1.363-0.097c0.503-0.066,0.631,0.111,0.628,0.617
		c-0.023,3.739-0.004,7.479-0.023,11.218c-0.002,0.446,0.098,0.566,0.556,0.564c4.449-0.019,8.897-0.018,13.346-0.001
		c0.441,0.002,0.57-0.09,0.567-0.553c-0.021-3.46-0.012-6.92-0.012-10.38c0-1.463,0.001-1.442,1.442-1.472
		c0.487-0.011,0.641,0.097,0.636,0.617c-0.028,3.072-0.007,6.146-0.022,9.219c-0.002,0.381,0.065,0.52,0.483,0.506
		c1.031-0.035,2.063-0.034,3.095-0.001c0.439,0.015,0.578-0.084,0.57-0.551c-0.03-1.848-0.015-3.696-0.012-5.544
		c0.001-1.037-0.116-2.061-0.4-3.055c-1.067-3.736-3.44-6.285-7.113-7.768c-0.331,2.955-0.654,5.838-0.978,8.721
		c-0.056,0.026-0.11,0.054-0.166,0.08c-0.576-0.621-1.152-1.241-1.847-1.988c0.05,0.397,0.066,0.606,0.104,0.813
		c0.363,1.983,0.723,3.967,1.101,5.948c0.078,0.413,0.004,0.709-0.316,1.018c-1.161,1.117-2.299,2.26-3.422,3.415
		c-0.287,0.296-0.445,0.32-0.746,0.009c-1.104-1.145-2.221-2.277-3.375-3.371c-0.381-0.361-0.449-0.704-0.355-1.186
		c0.385-1.979,0.742-3.964,1.104-5.947c0.03-0.169,0.021-0.345,0.038-0.671C52.86,46.121,52.281,46.715,51.597,47.417z
		 M18.333,22.455c-2.58,0-5.159,0-7.739,0.001c-0.263,0-0.531-0.092-0.529,0.386c0.019,4.557,0.015,9.114,0.005,13.671
		c0,0.311,0.086,0.395,0.395,0.394c5.245-0.009,10.49-0.009,15.735,0c0.313,0,0.397-0.09,0.393-0.397
		c-0.017-1.118-0.013-2.235-0.002-3.353c0.002-0.246-0.103-0.293-0.309-0.423c-1.488-0.936-2.941-1.929-4.409-2.898
		c-0.184-0.122-0.185-0.195,0-0.316c1.468-0.97,2.915-1.972,4.412-2.893c0.259-0.159,0.302-0.263,0.302-0.493
		c-0.001-1.053-0.021-2.107,0.01-3.16c0.012-0.417-0.099-0.534-0.525-0.53C23.492,22.466,20.913,22.455,18.333,22.455z
		 M60.639,31.125c3.542-1.948,5.593-4.77,6.104-8.679c0.821-6.282-4.171-12.191-10.504-12.355c-2.684-0.069-5.37-0.033-8.056-0.01
		c-1.6,0.014-2.917,1.301-3.017,2.868c-0.102,1.615,1.031,3.146,2.647,3.258c1.902,0.131,3.821,0.068,5.731,0.03
		c0.552-0.011,0.889-0.435,0.89-1.004s-0.334-0.914-0.888-1.017c-0.207-0.039-0.428-0.015-0.643-0.015
		c-1.592-0.001-1.592-0.001-1.554-1.607c0.002-0.064,0.005-0.129,0-0.193c-0.017-0.187,0.056-0.273,0.254-0.266
		c0.793,0.029,1.596-0.092,2.379,0.061c1.847,0.362,2.749,1.898,2.39,4.036c0.104,0.012,0.209,0.028,0.313,0.036
		c2.048,0.147,3.602,1.539,3.904,3.549c0.079,0.526,0.048,1.071,0.042,1.607c-0.004,0.279,0.074,0.459,0.307,0.644
		c2.36,1.878,2.357,5.076,0.006,6.972c-0.169,0.136-0.328,0.242-0.314,0.508C60.657,30.034,60.639,30.524,60.639,31.125z
		 M52.897,18.328c-1.159,0-2.32,0.031-3.479-0.015c-0.507-0.02-0.726,0.174-0.851,0.623c-0.407,1.465-0.837,2.923-1.246,4.387
		c-0.247,0.884,0.08,1.522,0.934,1.829c0.544,0.194,1.093,0.378,1.649,0.534c0.317,0.089,0.434,0.239,0.424,0.581
		c-0.025,0.965-0.017,1.933-0.007,2.899c0.016,1.502,1.058,2.552,2.547,2.574c0.688,0.01,1.375,0.002,2.063,0.002
		c1.688,0,1.68,0,1.588,1.708c-0.015,0.277-0.077,0.376-0.362,0.362c-0.45-0.022-0.902,0.01-1.353-0.012
		c-0.281-0.014-0.371,0.075-0.363,0.36c0.02,0.708,0.013,1.417,0.003,2.126c-0.004,0.208,0.07,0.363,0.192,0.523
		c0.546,0.717,1.098,1.431,1.614,2.168c0.241,0.344,0.353,0.228,0.541-0.034c0.488-0.679,0.992-1.348,1.509-2.006
		c0.212-0.269,0.281-0.546,0.28-0.883c-0.011-2.492,0.006-4.983-0.018-7.475c-0.004-0.423,0.098-0.67,0.502-0.826
		c0.485-0.188,0.9-0.488,1.193-0.94c0.785-1.214,0.352-2.719-1.048-3.386c-0.506-0.241-0.696-0.512-0.648-1.063
		c0.054-0.618,0.019-1.245,0.011-1.868c-0.017-1.314-0.869-2.158-2.196-2.166C55.218,18.322,54.058,18.328,52.897,18.328z
		 M56.576,59.604c-2.257,0-4.514,0.006-6.771-0.005c-0.34-0.002-0.532,0.004-0.528,0.458c0.023,3.138,0.019,6.276,0.004,9.415
		c-0.002,0.367,0.101,0.462,0.463,0.459c1.762-0.019,3.525-0.02,5.287,0c0.371,0.004,0.462-0.106,0.457-0.465
		c-0.02-1.462-0.04-2.925,0.006-4.385c0.021-0.649-0.151-1.111-0.636-1.566c-1.202-1.126-1.166-1.141,0.004-2.279
		c0.283-0.274,0.421-0.22,0.656,0.029c0.546,0.577,1.109,1.14,1.688,1.685c0.256,0.24,0.349,0.492,0.346,0.841
		c-0.016,1.87,0.005,3.74-0.017,5.61c-0.005,0.412,0.091,0.539,0.521,0.532c1.72-0.026,3.439-0.024,5.159-0.001
		c0.416,0.006,0.532-0.098,0.529-0.523c-0.019-3.096-0.019-6.191,0-9.286c0.003-0.419-0.103-0.533-0.525-0.528
		C61.005,59.616,58.79,59.604,56.576,59.604z M58.454,51.841c-0.004-0.043-0.006-0.086-0.014-0.128
		c-0.523-2.89-1.045-5.778-1.572-8.667c-0.039-0.212-0.113-0.477-0.36-0.462c-0.274,0.016-0.325,0.301-0.368,0.534
		c-0.515,2.825-1.028,5.65-1.54,8.477c-0.042,0.229-0.081,0.448,0.131,0.649c0.529,0.502,1.037,1.026,1.554,1.541
		c0.105,0.104,0.208,0.248,0.37,0.086c0.577-0.577,1.15-1.156,1.728-1.732C58.471,52.05,58.458,51.947,58.454,51.841z
		 M25.399,29.679c0.823,0.619,1.575,1.098,2.676,1.061c2.791-0.092,5.586-0.031,8.379-0.031c1.49,0,1.465,0,1.496-1.484
		c0.01-0.489-0.122-0.595-0.598-0.591c-3.094,0.024-6.19,0.069-9.281-0.018C26.972,28.585,26.219,29.059,25.399,29.679z
		 M65.799,59.438c0,0.689,0.018,1.27-0.008,1.847c-0.013,0.316,0.099,0.379,0.398,0.391c2.451,0.1,3.808-1.242,3.744-3.708
		c-0.008-0.317-0.063-0.455-0.418-0.436c-0.577,0.031-1.157,0.004-1.736,0.01c-0.639,0.007-1.503-0.222-1.857,0.102
		C65.512,58.018,65.854,58.893,65.799,59.438z M32.01,32.774c0.695,0.93,1.311,1.723,1.889,2.541
		c0.212,0.301,0.402,0.353,0.746,0.231c1.188-0.422,2.372-0.872,3.59-1.184c0.733-0.188,1.01-0.567,1.074-1.259
		c0.024-0.261-0.001-0.334-0.266-0.333C36.753,32.776,34.463,32.774,32.01,32.774z M41.601,28.647
		c-0.421,0.066-1.155-0.252-1.51,0.113c-0.271,0.279-0.077,1.01-0.09,1.541c-0.001,0.043,0.005,0.086,0,0.128
		c-0.03,0.233,0.088,0.286,0.299,0.284c0.94-0.009,1.882,0.014,2.822-0.014c0.599-0.018,1.011-0.478,1.003-1.036
		c-0.008-0.559-0.423-0.982-1.03-1.012C42.646,28.63,42.196,28.647,41.601,28.647z M59.84,42.931
		c0.184-1.586,0.353-3.031,0.513-4.477c0.015-0.133,0.109-0.313-0.077-0.395c-0.205-0.09-0.308,0.076-0.412,0.214
		c-0.591,0.79-1.172,1.589-1.782,2.366c-0.201,0.256-0.123,0.389,0.074,0.581C58.692,41.742,59.209,42.287,59.84,42.931z
		 M53.185,42.953c0.649-0.671,1.177-1.233,1.728-1.772c0.198-0.193,0.192-0.324,0.03-0.535c-0.59-0.764-1.161-1.543-1.742-2.314
		c-0.098-0.129-0.173-0.313-0.404-0.201c-0.187,0.091-0.14,0.241-0.123,0.386C52.836,39.941,53.001,41.366,53.185,42.953z"/>
	<path fill-rule="evenodd" clip-rule="evenodd" fill="#FFFFFF" d="M15.3,41.029c2.214,0,4.428,0.012,6.642-0.01
		c0.421-0.005,0.528,0.106,0.527,0.526c-0.016,4.472-0.016,8.942,0,13.413c0.001,0.421-0.106,0.528-0.527,0.526
		c-4.471-0.016-8.942-0.016-13.413,0c-0.421,0.002-0.528-0.106-0.527-0.526c0.016-4.471,0.016-8.942,0-13.413
		c-0.001-0.421,0.106-0.531,0.527-0.526C10.786,41.041,13.043,41.029,15.3,41.029z M10.076,48.207c0,1.569,0.011,3.139-0.008,4.707
		c-0.005,0.373,0.056,0.513,0.479,0.51c3.116-0.021,6.233-0.018,9.35-0.004c0.373,0.002,0.512-0.056,0.509-0.479
		c-0.021-3.117-0.018-6.233-0.003-9.351c0.001-0.373-0.056-0.512-0.479-0.509c-3.117,0.021-6.233,0.022-9.35-0.001
		c-0.458-0.004-0.511,0.162-0.506,0.548C10.087,45.154,10.076,46.681,10.076,48.207z"/>
	<path fill-rule="evenodd" clip-rule="evenodd" fill="#FFFFFF" d="M15.171,71.986c-2.214,0-4.428-0.012-6.642,0.01
		c-0.421,0.005-0.528-0.106-0.527-0.527c0.016-4.471,0.016-8.941,0-13.412c-0.001-0.421,0.107-0.528,0.527-0.526
		c4.471,0.016,8.942,0.016,13.413,0c0.421-0.002,0.528,0.106,0.527,0.526c-0.016,4.471-0.016,8.942,0,13.413
		c0.001,0.421-0.106,0.53-0.527,0.526C19.685,71.975,17.428,71.986,15.171,71.986z M10.076,64.703c0,1.569,0.008,3.139-0.006,4.707
		c-0.003,0.35,0.018,0.527,0.463,0.524c3.138-0.022,6.276-0.019,9.415-0.004c0.372,0.002,0.457-0.109,0.455-0.466
		c-0.014-3.138-0.014-6.276,0.001-9.414c0.001-0.372-0.109-0.457-0.466-0.455c-3.138,0.014-6.277,0.015-9.415-0.001
		c-0.372-0.002-0.459,0.109-0.456,0.466C10.087,61.608,10.076,63.156,10.076,64.703z"/>
	<path fill-rule="evenodd" clip-rule="evenodd" fill="#FFFFFF" d="M32.843,57.54c2.558,0,5.116,0.01,7.673-0.011
		c0.421-0.003,0.53,0.107,0.527,0.527c-0.01,1.547,0.007,1.547-1.562,1.547c-4.793,0-9.586-0.008-14.379,0.013
		c-0.482,0.002-0.604-0.112-0.594-0.595c0.029-1.481,0.006-1.481,1.499-1.481C28.287,57.54,30.565,57.54,32.843,57.54z"/>
	<path fill-rule="evenodd" clip-rule="evenodd" fill="#FFFFFF" d="M32.828,63.73c-2.558,0-5.116-0.02-7.673,0.017
		c-0.562,0.008-0.658-0.163-0.645-0.676c0.036-1.403,0.011-1.404,1.448-1.404c4.792,0,9.586,0.008,14.378-0.011
		c0.521-0.002,0.74,0.06,0.716,0.671c-0.058,1.402-0.018,1.403-1.454,1.403C37.341,63.73,35.084,63.73,32.828,63.73z"/>
	<path fill-rule="evenodd" clip-rule="evenodd" fill="#FFFFFF" d="M32.778,71.986c-2.579,0-5.159-0.01-7.738,0.01
		c-0.419,0.003-0.531-0.104-0.528-0.526c0.01-1.547-0.007-1.547,1.56-1.547c4.793,0,9.586,0.008,14.379-0.013
		c0.48-0.002,0.604,0.108,0.595,0.593c-0.029,1.482-0.006,1.483-1.498,1.483C37.292,71.986,35.035,71.986,32.778,71.986z"/>
	<path fill-rule="evenodd" clip-rule="evenodd" fill="#FFFFFF" d="M34.841,65.795c1.891,0,3.783,0.013,5.673-0.01
		c0.419-0.006,0.532,0.103,0.529,0.525c-0.01,1.548,0.008,1.548-1.56,1.548c-3.417,0-6.834-0.011-10.252,0.013
		c-0.479,0.003-0.605-0.107-0.595-0.593c0.029-1.483,0.006-1.483,1.497-1.483C31.703,65.795,33.272,65.795,34.841,65.795z"/>
	<path fill-rule="evenodd" clip-rule="evenodd" fill="#FFFFFF" d="M28.641,43.093c-1.204,0-2.407-0.012-3.61,0.007
		c-0.356,0.006-0.521-0.03-0.521-0.468c-0.002-1.603-0.023-1.603,1.572-1.603c2.042,0,4.083,0.02,6.125-0.014
		c0.502-0.009,0.592,0.141,0.584,0.604c-0.026,1.473-0.006,1.473-1.506,1.473C30.402,43.093,29.521,43.093,28.641,43.093z"/>
	<path fill-rule="evenodd" clip-rule="evenodd" fill="#FFFFFF" d="M28.677,45.157c1.225,0,2.45,0.011,3.675-0.007
		c0.327-0.005,0.429,0.073,0.437,0.42c0.036,1.65,0.048,1.65-1.586,1.65c-2.063,0-4.126-0.011-6.189,0.01
		c-0.387,0.003-0.503-0.078-0.502-0.488c0.001-1.585-0.016-1.585,1.587-1.585C26.958,45.157,27.817,45.157,28.677,45.157z"/>
	<path fill-rule="evenodd" clip-rule="evenodd" fill="#FFFFFF" d="M28.585,51.348c-1.204,0-2.407-0.014-3.61,0.009
		c-0.364,0.007-0.458-0.097-0.462-0.46c-0.018-1.612-0.031-1.612,1.559-1.612c2.063,0,4.126,0.013,6.189-0.01
		c0.42-0.005,0.531,0.105,0.528,0.526c-0.01,1.547,0.007,1.547-1.56,1.547C30.348,51.348,29.466,51.348,28.585,51.348z"/>
	<path fill-rule="evenodd" clip-rule="evenodd" fill="#FFFFFF" d="M28.617,55.476c-1.225,0-2.45-0.012-3.675,0.008
		c-0.34,0.006-0.421-0.094-0.428-0.429c-0.035-1.643-0.045-1.643,1.591-1.643c2.063,0,4.126,0.012,6.189-0.011
		c0.401-0.004,0.495,0.101,0.494,0.496c-0.001,1.578,0.015,1.578-1.529,1.578C30.379,55.476,29.498,55.476,28.617,55.476z"/>
	<path fill-rule="evenodd" clip-rule="evenodd" fill="#FFFFFF" d="M25.521,67.858c-0.998,0-0.998,0-0.998-1.001
		c0-1.063,0-1.063,1.066-1.063c0.998,0,0.998,0,0.998,1.002C26.586,67.858,26.586,67.858,25.521,67.858z"/>
	<path fill-rule="evenodd" clip-rule="evenodd" fill="#FFFFFF" d="M25.224,25.248c-0.098,0.112-0.176,0.212-0.266,0.302
		c-3.48,3.481-6.962,6.959-10.438,10.445c-0.215,0.216-0.348,0.301-0.605,0.03c-0.725-0.764-1.478-1.501-2.232-2.236
		c-0.211-0.205-0.28-0.367-0.006-0.557c0.035-0.024,0.061-0.061,0.092-0.09c0.354-0.344,0.677-0.912,1.072-0.969
		c0.424-0.061,0.74,0.566,1.065,0.92c0.351,0.383,0.503,0.074,0.7-0.123c2.919-2.917,5.844-5.828,8.746-8.763
		c0.361-0.366,0.574-0.386,0.888,0.008c0.226,0.284,0.512,0.521,0.768,0.781C25.08,25.07,25.143,25.153,25.224,25.248z"/>
</g>
</svg>
