<?xml version="1.0" encoding="utf-8"?>
<!-- Generator: Adobe Illustrator 16.0.0, SVG Export Plug-In . SVG Version: 6.00 Build 0)  -->
<!DOCTYPE svg PUBLIC "-//W3C//DTD SVG 1.1//EN" "http://www.w3.org/Graphics/SVG/1.1/DTD/svg11.dtd" [
	<!ENTITY ns_extend "http://ns.adobe.com/Extensibility/1.0/">
	<!ENTITY ns_ai "http://ns.adobe.com/AdobeIllustrator/10.0/">
	<!ENTITY ns_graphs "http://ns.adobe.com/Graphs/1.0/">
	<!ENTITY ns_vars "http://ns.adobe.com/Variables/1.0/">
	<!ENTITY ns_imrep "http://ns.adobe.com/ImageReplacement/1.0/">
	<!ENTITY ns_sfw "http://ns.adobe.com/SaveForWeb/1.0/">
	<!ENTITY ns_custom "http://ns.adobe.com/GenericCustomNamespace/1.0/">
	<!ENTITY ns_adobe_xpath "http://ns.adobe.com/XPath/1.0/">
]>
<svg version="1.1" id="Layer_1" xmlns:x="&ns_extend;" xmlns:i="&ns_ai;" xmlns:graph="&ns_graphs;"
	 xmlns="http://www.w3.org/2000/svg" xmlns:xlink="http://www.w3.org/1999/xlink" x="0px" y="0px" width="80px" height="80px"
	 viewBox="0 0 80 80" enable-background="new 0 0 80 80" xml:space="preserve">
<metadata>
	<sfw  xmlns="&ns_sfw;">
		<slices></slices>
		<sliceSourceBounds  width="64" height="61" x="810.5" y="565" bottomLeftOrigin="true"></sliceSourceBounds>
	</sfw>
</metadata>
<g>
	<path fill-rule="evenodd" clip-rule="evenodd" fill="#FFFFFF" d="M72,59.889c-0.834,2.172-2.524,2.641-4.679,2.631
		c-12.498-0.055-24.996-0.025-37.494-0.027c-0.289,0-0.582,0.033-0.865-0.078c-0.448-0.174-0.654-0.5-0.608-0.973
		c0.047-0.475,0.323-0.756,0.797-0.813c0.227-0.027,0.458-0.014,0.688-0.014c12.747,0,25.495,0,38.243,0.002
		c0.525,0,1.046-0.002,1.479-0.363c0.413-0.346,0.565-0.797,0.565-1.326c-0.003-12.414-0.005-24.829,0.009-37.244
		c0-0.437-0.149-0.495-0.528-0.495c-18.248,0.008-36.495,0.011-54.742-0.008c-0.607,0-0.544,0.302-0.544,0.689
		c0.004,10.061,0.004,20.122,0.001,30.182c0,0.271,0.003,0.545-0.047,0.809c-0.091,0.475-0.433,0.723-0.89,0.721
		c-0.486,0-0.828-0.262-0.911-0.771c-0.033-0.203-0.027-0.414-0.027-0.623c-0.002-12.956-0.002-25.912-0.001-38.868
		c0.001-2.438,1.357-3.796,3.778-3.796c17.164,0,34.328,0.018,51.491-0.023c2.127-0.005,3.609,0.675,4.285,2.765
		C72,28.14,72,44.016,72,59.889z M42.25,19.317c9.103,0,18.204-0.004,27.307,0.011c0.464,0.001,0.587-0.103,0.579-0.575
		c-0.03-1.853-0.01-3.708-0.013-5.561c-0.003-1.211-0.584-1.796-1.8-1.796c-17.392-0.002-34.783-0.002-52.176,0
		c-1.263,0-1.818,0.559-1.822,1.833c-0.006,1.812,0.027,3.625-0.019,5.436c-0.015,0.584,0.182,0.665,0.699,0.664
		C24.088,19.313,33.169,19.317,42.25,19.317z"/>
	<path fill-rule="evenodd" clip-rule="evenodd" fill="#FFFFFF" d="M8,63.014c0.161-0.047,0.126-0.195,0.153-0.307
		c0.318-1.313,1.012-2.393,1.963-3.34c4.544-4.529,9.063-9.082,13.617-13.6c2.186-2.17,3.422-4.712,3.679-7.818
		c0.584-7.081,7.523-12.121,14.432-10.595c0.877,0.194,1.484,0.668,1.739,1.511c0.263,0.865,0.034,1.635-0.618,2.283
		c-1.743,1.732-3.495,3.456-5.209,5.217c-1.702,1.748-0.995,4.548,1.303,5.198c1.228,0.346,2.291-0.002,3.189-0.906
		c1.688-1.7,3.389-3.386,5.078-5.084c0.564-0.568,1.214-0.858,2.024-0.717c0.918,0.16,1.565,0.776,1.778,1.697
		c1.554,6.729-3.188,13.601-10.033,14.464c-1.89,0.236-3.741,0.496-5.426,1.471c-0.999,0.578-1.901,1.266-2.715,2.08
		c-4.652,4.654-9.299,9.316-13.965,13.957c-2.968,2.953-7.623,2.531-9.921-0.85C8.563,66.93,8.368,66.063,8,65.264
		C8,64.514,8,63.764,8,63.014z M39.36,28.984c-5.198,0.002-9.691,4.001-10.078,9.114c-0.27,3.56-1.705,6.498-4.211,8.988
		c-4.521,4.492-9.019,9.01-13.524,13.518c-0.191,0.191-0.384,0.383-0.563,0.586c-1.51,1.727-1.474,4.295,0.082,5.977
		c1.812,1.957,4.667,1.957,6.652-0.023c4.645-4.635,9.28-9.279,13.922-13.916c2.271-2.271,4.975-3.709,8.199-3.938
		c6.208-0.439,10.5-5.738,9.539-11.875c-0.04-0.256,0.01-0.593-0.313-0.688c-0.288-0.085-0.43,0.203-0.6,0.372
		c-1.653,1.646-3.291,3.307-4.954,4.944c-1.754,1.723-4.237,2.018-6.235,0.768c-2.702-1.688-3.151-5.392-0.901-7.715
		c1.68-1.736,3.41-3.423,5.117-5.133c0.145-0.145,0.35-0.274,0.29-0.514c-0.07-0.282-0.342-0.259-0.56-0.303
		C40.609,29.018,39.986,28.981,39.36,28.984z"/>
	<path fill-rule="evenodd" clip-rule="evenodd" fill="#FFFFFF" d="M60.337,31.985c-1.851,0-3.702,0-5.553,0
		c-0.25,0-0.501,0.012-0.738-0.086c-0.442-0.182-0.638-0.521-0.584-0.987c0.052-0.443,0.312-0.714,0.756-0.786
		c0.143-0.023,0.29-0.018,0.436-0.018c3.785-0.001,7.571-0.001,11.356,0c0.104,0,0.208-0.001,0.312,0.005
		c0.544,0.03,0.857,0.347,0.897,0.858c0.041,0.521-0.254,0.88-0.771,0.973c-0.344,0.061-0.703,0.041-1.057,0.041
		C63.706,31.987,62.021,31.985,60.337,31.985z"/>
	<path fill-rule="evenodd" clip-rule="evenodd" fill="#FFFFFF" d="M60.285,36.775c-1.893,0-3.785,0.002-5.678-0.001
		c-0.744-0.001-1.15-0.329-1.159-0.917c-0.008-0.586,0.414-0.955,1.133-0.956c3.827-0.004,7.654-0.004,11.481,0
		c0.722,0.001,1.162,0.361,1.171,0.93c0.01,0.589-0.437,0.943-1.208,0.944C64.112,36.776,62.199,36.775,60.285,36.775z"/>
	<path fill-rule="evenodd" clip-rule="evenodd" fill="#FFFFFF" d="M57.433,39.731c0.957,0,1.915-0.006,2.872,0.002
		c0.706,0.006,1.083,0.336,1.083,0.921c0,0.575-0.389,0.944-1.078,0.95c-1.914,0.014-3.829,0.012-5.743,0
		c-0.722-0.004-1.134-0.387-1.118-0.978c0.016-0.566,0.409-0.89,1.113-0.895C55.519,39.727,56.476,39.731,57.433,39.731z"/>
	<path fill-rule="evenodd" clip-rule="evenodd" fill="#FFFFFF" d="M34.079,16.51c-4.562,0-9.124,0-13.686,0
		c-0.188,0-0.38,0.019-0.561-0.018c-0.489-0.101-0.783-0.427-0.78-0.917c0.004-0.516,0.303-0.85,0.833-0.93
		c0.143-0.021,0.291-0.01,0.437-0.01c9.187,0,18.372,0,27.559,0c0.146,0,0.294-0.013,0.437,0.009
		c0.521,0.083,0.828,0.386,0.833,0.922c0.005,0.541-0.313,0.841-0.824,0.933c-0.183,0.033-0.374,0.011-0.562,0.011
		C43.202,16.51,38.641,16.51,34.079,16.51z"/>
	<path fill-rule="evenodd" clip-rule="evenodd" fill="#FFFFFF" d="M56.324,16.288c-0.528-0.021-0.93-0.461-0.896-0.984
		c0.032-0.488,0.465-0.895,0.947-0.889c0.514,0.007,0.933,0.45,0.919,0.972C57.28,15.924,56.866,16.309,56.324,16.288z"/>
	<path fill-rule="evenodd" clip-rule="evenodd" fill="#FFFFFF" d="M65.501,15.343c0.01,0.523-0.409,0.947-0.938,0.947
		c-0.504,0.001-0.914-0.385-0.938-0.883c-0.025-0.519,0.388-0.972,0.904-0.993C65.037,14.394,65.49,14.827,65.501,15.343z"/>
	<path fill-rule="evenodd" clip-rule="evenodd" fill="#FFFFFF" d="M60.482,14.415c0.518,0.013,0.926,0.453,0.909,0.98
		c-0.018,0.533-0.44,0.918-0.979,0.893c-0.496-0.024-0.898-0.443-0.896-0.933C59.52,14.851,59.98,14.402,60.482,14.415z"/>
	<path fill-rule="evenodd" clip-rule="evenodd" fill="#FFFFFF" d="M14.887,66.42c-1.189-0.035-2.08-0.574-2.558-1.668
		c-0.464-1.059-0.31-2.072,0.44-2.973c0.066-0.08,0.14-0.154,0.213-0.229c4.623-4.623,9.241-9.252,13.873-13.867
		c1.348-1.342,3.362-1.17,4.382,0.338c0.701,1.037,0.636,2.4-0.164,3.365c-0.106,0.127-0.225,0.246-0.343,0.363
		c-4.563,4.564-9.13,9.127-13.69,13.695C16.44,66.047,15.76,66.432,14.887,66.42z M29.851,49.539
		c-0.057-0.344-0.212-0.639-0.578-0.797c-0.485-0.211-0.836,0.004-1.166,0.334c-4.575,4.578-9.153,9.156-13.728,13.736
		c-0.504,0.504-0.551,1.078-0.141,1.475c0.406,0.395,0.966,0.334,1.479-0.176c1.063-1.057,2.12-2.119,3.18-3.178
		c3.474-3.475,6.947-6.947,10.422-10.42C29.588,50.246,29.849,49.98,29.851,49.539z"/>
</g>
</svg>
