<?xml version="1.0" encoding="utf-8"?>
<!-- Generator: Adobe Illustrator 16.0.0, SVG Export Plug-In . SVG Version: 6.00 Build 0)  -->
<!DOCTYPE svg PUBLIC "-//W3C//DTD SVG 1.1//EN" "http://www.w3.org/Graphics/SVG/1.1/DTD/svg11.dtd" [
	<!ENTITY ns_extend "http://ns.adobe.com/Extensibility/1.0/">
	<!ENTITY ns_ai "http://ns.adobe.com/AdobeIllustrator/10.0/">
	<!ENTITY ns_graphs "http://ns.adobe.com/Graphs/1.0/">
	<!ENTITY ns_vars "http://ns.adobe.com/Variables/1.0/">
	<!ENTITY ns_imrep "http://ns.adobe.com/ImageReplacement/1.0/">
	<!ENTITY ns_sfw "http://ns.adobe.com/SaveForWeb/1.0/">
	<!ENTITY ns_custom "http://ns.adobe.com/GenericCustomNamespace/1.0/">
	<!ENTITY ns_adobe_xpath "http://ns.adobe.com/XPath/1.0/">
]>
<svg version="1.1" id="Layer_1" xmlns:x="&ns_extend;" xmlns:i="&ns_ai;" xmlns:graph="&ns_graphs;"
	 xmlns="http://www.w3.org/2000/svg" xmlns:xlink="http://www.w3.org/1999/xlink" x="0px" y="0px" width="80px" height="80px"
	 viewBox="0 0 80 80" enable-background="new 0 0 80 80" xml:space="preserve">
<metadata>
	<sfw  xmlns="&ns_sfw;">
		<slices></slices>
		<sliceSourceBounds  width="99.882" height="107.793" y="331.707" x="860.5" bottomLeftOrigin="true"></sliceSourceBounds>
	</sfw>
</metadata>
<g>
	<path fill-rule="evenodd" clip-rule="evenodd" fill="#FAAF40" d="M40,1c21.539,0,39,17.462,39,39.001S61.539,79,40,79
		C18.46,79,1,61.54,1,40.001S18.46,1,40,1"/>
	<g>
		<defs>
			<path id="SVGID_1_" d="M40,1c21.539,0,39,17.462,39,39.001S61.539,79,40,79C18.46,79,1,61.54,1,40.001S18.46,1,40,1"/>
		</defs>
		<clipPath id="SVGID_2_">
			<use xlink:href="#SVGID_1_"  overflow="visible"/>
		</clipPath>
		<path clip-path="url(#SVGID_2_)" fill-rule="evenodd" clip-rule="evenodd" fill="#27A191" d="M61.882,30.791
			c21.539,0,39,17.462,39,39.001s-17.461,39.001-39,39.001s-39-17.462-39-39.001S40.343,30.791,61.882,30.791"/>
	</g>
	<path fill-rule="evenodd" clip-rule="evenodd" fill="#FFFFFF" d="M57.219,47.292c-0.466,0.044-0.861,0.477-0.859,0.94v1.412
		c0,0.492,0.451,0.94,0.949,0.94h1.422c0.497,0,0.948-0.448,0.949-0.94v-1.412c-0.001-0.492-0.452-0.94-0.949-0.94
		C58.232,47.292,57.711,47.292,57.219,47.292 M52.951,47.292c-0.466,0.044-0.861,0.477-0.859,0.94v1.412
		c0,0.492,0.451,0.94,0.948,0.94h1.423c0.496,0,0.948-0.448,0.948-0.94v-1.412c0-0.492-0.452-0.94-0.948-0.94
		C53.964,47.292,53.442,47.292,52.951,47.292z M57.219,43.529c-0.466,0.043-0.861,0.476-0.859,0.94v1.411
		c0,0.493,0.451,0.94,0.949,0.94h1.422c0.497,0,0.948-0.447,0.949-0.94V44.47c-0.001-0.493-0.452-0.94-0.949-0.94
		C58.232,43.529,57.711,43.529,57.219,43.529z M52.951,43.529c-0.466,0.043-0.861,0.476-0.859,0.94v1.411
		c0,0.493,0.451,0.94,0.948,0.94h1.423c0.496,0,0.948-0.447,0.948-0.94V44.47c0-0.493-0.452-0.94-0.948-0.94
		C53.964,43.529,53.442,43.529,52.951,43.529z M57.619,37.59c0.103,0.235,0.148,0.49,0.148,0.765
		c0.015,1.405-1.034,1.857-2.061,1.866c0.422-0.45,0.733-0.951,0.993-1.382C57.004,38.406,57.269,37.905,57.619,37.59z
		 M56.063,36.473c-0.421,0.453-0.731,0.966-0.992,1.396c-0.33,0.545-0.594,0.964-0.918,1.249c-0.104-0.232-0.163-0.49-0.163-0.764
		C53.989,36.937,55.033,36.483,56.063,36.473z M55.886,34.592c-2.085,0-3.809,1.695-3.809,3.763c0,2.066,1.724,3.749,3.809,3.749
		c2.083,0,3.794-1.683,3.794-3.749C59.68,36.287,57.969,34.592,55.886,34.592z M52.092,27.064c0,2.09,0,4.304,0,6.115
		c2.602,0,5.34,0,7.588,0c0-2.091,0-4.305,0-6.115C57.078,27.064,54.339,27.064,52.092,27.064z M23.639,27.064
		c-1.559,0-2.844,1.275-2.844,2.822v18.817c0,1.547,1.285,2.822,2.844,2.822h24.186c1.56,0,2.845-1.275,2.845-2.822V29.887
		c0-1.547-1.285-2.822-2.845-2.822H23.639z M18.897,25.183h42.204v28.225H18.897V25.183z M17,23.301c0,11.095,0,22.475,0,31.988
		c0.95,0,1.897,0,2.846,0c0,0.47,0,0.94,0,1.412c1.12,0,2.336,0,3.319,0c0-0.472,0-0.942,0-1.412h33.669c0,0.47,0,0.94,0,1.412
		c1.119,0,2.335,0,3.319,0c0-0.472,0-0.942,0-1.412c0.948,0,1.897,0,2.846,0c0-11.263,0-22.219,0-31.988
		C46.873,23.301,30.929,23.301,17,23.301z"/>
</g>
</svg>
