<?xml version="1.0" encoding="utf-8"?>
<!-- Generator: Adobe Illustrator 16.0.0, SVG Export Plug-In . SVG Version: 6.00 Build 0)  -->
<!DOCTYPE svg PUBLIC "-//W3C//DTD SVG 1.1//EN" "http://www.w3.org/Graphics/SVG/1.1/DTD/svg11.dtd" [
	<!ENTITY ns_extend "http://ns.adobe.com/Extensibility/1.0/">
	<!ENTITY ns_ai "http://ns.adobe.com/AdobeIllustrator/10.0/">
	<!ENTITY ns_graphs "http://ns.adobe.com/Graphs/1.0/">
	<!ENTITY ns_vars "http://ns.adobe.com/Variables/1.0/">
	<!ENTITY ns_imrep "http://ns.adobe.com/ImageReplacement/1.0/">
	<!ENTITY ns_sfw "http://ns.adobe.com/SaveForWeb/1.0/">
	<!ENTITY ns_custom "http://ns.adobe.com/GenericCustomNamespace/1.0/">
	<!ENTITY ns_adobe_xpath "http://ns.adobe.com/XPath/1.0/">
]>
<svg version="1.1" id="Layer_1" xmlns:x="&ns_extend;" xmlns:i="&ns_ai;" xmlns:graph="&ns_graphs;"
	 xmlns="http://www.w3.org/2000/svg" xmlns:xlink="http://www.w3.org/1999/xlink" x="0px" y="0px" width="80px" height="80px"
	 viewBox="0 0 80 80" enable-background="new 0 0 80 80" xml:space="preserve">
<metadata>
	<sfw  xmlns="&ns_sfw;">
		<slices></slices>
		<sliceSourceBounds  width="99.883" height="107.792" y="331.708" x="860.5" bottomLeftOrigin="true"></sliceSourceBounds>
	</sfw>
</metadata>
<g>
	<path fill-rule="evenodd" clip-rule="evenodd" fill="#FAAF40" d="M40.001,1C61.54,1,79,18.461,79,40S61.54,79,40.001,79
		S1,61.539,1,40S18.462,1,40.001,1"/>
	<g>
		<defs>
			<path id="SVGID_1_" d="M40.001,1C61.54,1,79,18.461,79,40S61.54,79,40.001,79S1,61.539,1,40S18.462,1,40.001,1"/>
		</defs>
		<clipPath id="SVGID_2_">
			<use xlink:href="#SVGID_1_"  overflow="visible"/>
		</clipPath>
		<path clip-path="url(#SVGID_2_)" fill-rule="evenodd" clip-rule="evenodd" fill="#27A191" d="M61.883,30.791
			c21.539,0,39,17.461,39,39s-17.461,39.001-39,39.001S22.882,91.33,22.882,69.791S40.344,30.791,61.883,30.791"/>
	</g>
	<path fill-rule="evenodd" clip-rule="evenodd" fill="#FFFFFF" d="M62.868,39.227c0.674-1.498,1.154-3.441,0.362-5.184
		c-0.924-2.031-3.296-3.164-7.048-3.365l-0.827-0.002l-0.064,0.002c-0.718,0.039-1.367,0.121-1.983,0.228
		c-0.029,0.802-0.154,1.629-0.372,2.48c0.798-0.201,1.665-0.3,2.452-0.344h0.699c1.918,0.106,4.328,0.537,4.986,1.979
		c0.325,0.712,0.214,1.611-0.072,2.474c-1.516-1.065-3.359-1.691-5.351-1.691c-0.831,0-1.635,0.114-2.401,0.318
		c1.299,2.304,2.005,4.92,2.005,7.588c0,3.736-1.335,7.168-3.555,9.84c1.201,0.563,2.536,0.888,3.951,0.888
		c5.146,0,9.317-4.171,9.317-9.317C64.969,42.883,64.181,40.833,62.868,39.227"/>
	<path fill-rule="evenodd" clip-rule="evenodd" fill="#FFFFFF" d="M26.48,36.049c-0.683-0.161-1.396-0.246-2.128-0.246
		c-1.93,0-3.722,0.586-5.208,1.59c-0.262-0.831-0.355-1.686-0.042-2.372c0.658-1.441,3.068-1.872,4.987-1.979h0.699
		c0.702,0.039,1.467,0.121,2.188,0.281c-0.209-0.844-0.326-1.664-0.353-2.458c-0.548-0.085-1.118-0.154-1.741-0.188l-0.829-0.002
		l-0.063,0.002c-3.751,0.202-6.121,1.335-7.046,3.366c-0.77,1.689-0.338,3.569,0.303,5.048c-1.381,1.625-2.215,3.729-2.215,6.027
		c0,5.146,4.172,9.317,9.318,9.317c1.324,0,2.583-0.28,3.725-0.778c-2.273-2.688-3.649-6.16-3.649-9.949
		C24.429,41.007,25.152,38.369,26.48,36.049"/>
	<path fill-rule="evenodd" clip-rule="evenodd" fill="#FFFFFF" d="M50.309,35.174c0.975-2.173,1.674-4.99,0.525-7.514
		c-1.34-2.946-4.777-4.587-10.214-4.881l-1.201-0.002l-0.092,0.002c-5.438,0.294-8.873,1.935-10.214,4.881
		c-1.115,2.449-0.49,5.174,0.439,7.317c-2.001,2.355-3.211,5.405-3.211,8.738c0,7.46,6.047,13.507,13.505,13.507
		c7.459,0,13.506-6.047,13.506-13.507C53.355,40.475,52.212,37.501,50.309,35.174 M32.298,32.515
		c-0.381-1.204-0.515-2.444-0.062-3.438c0.956-2.09,4.448-2.714,7.229-2.868h1.015c2.781,0.154,6.274,0.778,7.229,2.868
		c0.473,1.034,0.311,2.334-0.105,3.585c-2.195-1.543-4.869-2.451-7.757-2.451C37.05,30.21,34.452,31.059,32.298,32.515z"/>
</g>
</svg>
