<?xml version="1.0" encoding="utf-8"?>
<!-- Generator: Adobe Illustrator 16.0.0, SVG Export Plug-In . SVG Version: 6.00 Build 0)  -->
<!DOCTYPE svg PUBLIC "-//W3C//DTD SVG 1.1//EN" "http://www.w3.org/Graphics/SVG/1.1/DTD/svg11.dtd" [
	<!ENTITY ns_extend "http://ns.adobe.com/Extensibility/1.0/">
	<!ENTITY ns_ai "http://ns.adobe.com/AdobeIllustrator/10.0/">
	<!ENTITY ns_graphs "http://ns.adobe.com/Graphs/1.0/">
	<!ENTITY ns_vars "http://ns.adobe.com/Variables/1.0/">
	<!ENTITY ns_imrep "http://ns.adobe.com/ImageReplacement/1.0/">
	<!ENTITY ns_sfw "http://ns.adobe.com/SaveForWeb/1.0/">
	<!ENTITY ns_custom "http://ns.adobe.com/GenericCustomNamespace/1.0/">
	<!ENTITY ns_adobe_xpath "http://ns.adobe.com/XPath/1.0/">
]>
<svg version="1.1" id="Layer_1" xmlns:x="&ns_extend;" xmlns:i="&ns_ai;" xmlns:graph="&ns_graphs;"
	 xmlns="http://www.w3.org/2000/svg" xmlns:xlink="http://www.w3.org/1999/xlink" x="0px" y="0px" width="80px" height="80px"
	 viewBox="0 0 80 80" enable-background="new 0 0 80 80" xml:space="preserve">
<metadata>
	<sfw  xmlns="&ns_sfw;">
		<slices></slices>
		<sliceSourceBounds  width="99.883" height="107.793" y="331.707" x="860.5" bottomLeftOrigin="true"></sliceSourceBounds>
	</sfw>
</metadata>
<g>
	<path fill-rule="evenodd" clip-rule="evenodd" fill="#FAAF40" d="M40.001,1C61.54,1,79,18.462,79,40.001S61.54,79,40.001,79
		S1,61.54,1,40.001S18.462,1,40.001,1"/>
	<g>
		<defs>
			<path id="SVGID_1_" d="M40.001,1C61.54,1,79,18.462,79,40.001S61.54,79,40.001,79S1,61.54,1,40.001S18.462,1,40.001,1"/>
		</defs>
		<clipPath id="SVGID_2_">
			<use xlink:href="#SVGID_1_"  overflow="visible"/>
		</clipPath>
		<path clip-path="url(#SVGID_2_)" fill-rule="evenodd" clip-rule="evenodd" fill="#27A191" d="M61.883,30.791
			c21.539,0,39,17.462,39,39.001s-17.461,39.001-39,39.001S22.882,91.331,22.882,69.792S40.344,30.791,61.883,30.791"/>
	</g>
	<polygon fill-rule="evenodd" clip-rule="evenodd" fill="#FFFFFF" points="13.546,53.411 18.612,56.272 21.441,59.951 
		57.478,59.951 60.304,56.272 65.372,53.411 	"/>
	<polygon fill-rule="evenodd" clip-rule="evenodd" fill="#FFFFFF" points="13.546,45.071 18.612,47.933 21.441,51.611 
		57.478,51.611 60.304,47.933 65.372,45.071 	"/>
	<polygon fill-rule="evenodd" clip-rule="evenodd" fill="#FFFFFF" points="13.546,36.729 18.612,39.592 21.441,43.27 57.478,43.27 
		60.304,39.592 65.372,36.729 	"/>
	<polygon fill-rule="evenodd" clip-rule="evenodd" fill="#FFFFFF" points="13.546,28.39 18.612,31.253 21.441,34.931 57.478,34.931 
		60.304,31.253 65.372,28.39 	"/>
	<polygon fill-rule="evenodd" clip-rule="evenodd" fill="#FFFFFF" points="14.629,20.05 19.696,22.911 22.525,26.59 58.562,26.59 
		61.388,22.911 66.457,20.05 	"/>
</g>
</svg>
