<?xml version="1.0" encoding="utf-8"?>
<!-- Generator: Adobe Illustrator 16.0.0, SVG Export Plug-In . SVG Version: 6.00 Build 0)  -->
<!DOCTYPE svg PUBLIC "-//W3C//DTD SVG 1.1//EN" "http://www.w3.org/Graphics/SVG/1.1/DTD/svg11.dtd" [
	<!ENTITY ns_extend "http://ns.adobe.com/Extensibility/1.0/">
	<!ENTITY ns_ai "http://ns.adobe.com/AdobeIllustrator/10.0/">
	<!ENTITY ns_graphs "http://ns.adobe.com/Graphs/1.0/">
	<!ENTITY ns_vars "http://ns.adobe.com/Variables/1.0/">
	<!ENTITY ns_imrep "http://ns.adobe.com/ImageReplacement/1.0/">
	<!ENTITY ns_sfw "http://ns.adobe.com/SaveForWeb/1.0/">
	<!ENTITY ns_custom "http://ns.adobe.com/GenericCustomNamespace/1.0/">
	<!ENTITY ns_adobe_xpath "http://ns.adobe.com/XPath/1.0/">
]>
<svg version="1.1" id="Layer_1" xmlns:x="&ns_extend;" xmlns:i="&ns_ai;" xmlns:graph="&ns_graphs;"
	 xmlns="http://www.w3.org/2000/svg" xmlns:xlink="http://www.w3.org/1999/xlink" x="0px" y="0px" width="80px" height="80px"
	 viewBox="0 0 80 80" enable-background="new 0 0 80 80" xml:space="preserve">
<metadata>
	<sfw  xmlns="&ns_sfw;">
		<slices></slices>
		<sliceSourceBounds  width="99.883" height="107.791" y="331.709" x="860.5" bottomLeftOrigin="true"></sliceSourceBounds>
	</sfw>
</metadata>
<g>
	<path fill-rule="evenodd" clip-rule="evenodd" fill="#FAAF40" d="M40,1c21.54,0,39,17.46,39,38.999S61.54,79,40,79
		C18.461,79,1,61.538,1,39.999S18.461,1,40,1"/>
	<g>
		<defs>
			<path id="SVGID_1_" d="M40,1c21.54,0,39,17.46,39,38.999S61.54,79,40,79C18.461,79,1,61.538,1,39.999S18.461,1,40,1"/>
		</defs>
		<clipPath id="SVGID_2_">
			<use xlink:href="#SVGID_1_"  overflow="visible"/>
		</clipPath>
		<path clip-path="url(#SVGID_2_)" fill-rule="evenodd" clip-rule="evenodd" fill="#27A191" d="M61.883,30.791
			c21.537,0,39,17.46,39,39c0,21.538-17.463,39-39,39c-21.54,0-39.001-17.462-39.001-39C22.882,48.251,40.343,30.791,61.883,30.791"
			/>
	</g>
	<path fill="#FFFFFF" d="M57.563,60.049c0.299,0,0.537-0.134,0.716-0.401c0.177-0.266,0.266-0.683,0.266-1.249
		s-0.089-0.981-0.266-1.249c-0.179-0.268-0.417-0.398-0.716-0.398c-0.302,0-0.54,0.131-0.717,0.398
		c-0.179,0.268-0.268,0.683-0.268,1.249s0.089,0.983,0.268,1.249C57.022,59.915,57.261,60.049,57.563,60.049 M57.563,61.631
		c-0.889,0-1.607-0.29-2.158-0.868c-0.549-0.576-0.825-1.364-0.825-2.364c0-0.988,0.279-1.772,0.834-2.355
		c0.556-0.584,1.271-0.874,2.149-0.874c0.888,0,1.609,0.29,2.164,0.874c0.556,0.583,0.832,1.367,0.832,2.355
		c0,1-0.276,1.788-0.832,2.364C59.172,61.341,58.45,61.631,57.563,61.631z M49.334,54.552c0.299,0,0.538-0.134,0.717-0.398
		c0.177-0.268,0.266-0.685,0.266-1.249c0-0.566-0.089-0.984-0.266-1.251c-0.179-0.266-0.418-0.399-0.717-0.399
		c-0.289,0-0.525,0.136-0.708,0.408c-0.183,0.271-0.275,0.687-0.275,1.242c0,0.553,0.093,0.968,0.275,1.239
		C48.809,54.416,49.045,54.552,49.334,54.552z M56.229,49.821h2.397l-7.96,11.657h-2.399L56.229,49.821z M49.334,56.134
		c-0.877,0-1.594-0.287-2.148-0.865c-0.556-0.578-0.832-1.367-0.832-2.364c0-0.657,0.127-1.229,0.382-1.716
		c0.255-0.49,0.608-0.864,1.058-1.124c0.45-0.261,0.963-0.393,1.541-0.393c0.889,0,1.609,0.292,2.165,0.875
		c0.555,0.582,0.834,1.366,0.834,2.357c0,0.997-0.279,1.786-0.834,2.364C50.943,55.847,50.223,56.134,49.334,56.134z"/>
	<path fill-rule="evenodd" clip-rule="evenodd" fill="#FFFFFF" d="M40,64.807c-3.975,0-7.516-0.981-10.622-2.947
		c-3.106-1.965-5.54-4.808-7.299-8.531c-1.759-3.725-2.639-8.167-2.639-13.329s0.88-9.604,2.639-13.329
		c1.759-3.723,4.192-6.567,7.299-8.531c3.106-1.966,6.647-2.947,10.622-2.947s7.515,0.981,10.621,2.947
		c3.108,1.964,5.54,4.809,7.299,8.531c1.759,3.725,2.639,8.167,2.639,13.329c0,2.642-0.231,5.094-0.691,7.36h-11.22
		c0.494-2.049,0.741-4.501,0.741-7.36c0-5.254-0.834-9.137-2.503-11.649c-1.666-2.514-3.962-3.77-6.886-3.77
		c-2.878,0-5.151,1.256-6.819,3.77c-1.667,2.513-2.501,6.396-2.501,11.649c0,5.255,0.834,9.138,2.501,11.649
		c1.668,2.514,3.941,3.77,6.819,3.77c1.838,0,3.429-0.496,4.771-1.489V64.29C43.257,64.634,41.666,64.807,40,64.807"/>
</g>
</svg>
