<?xml version="1.0" encoding="utf-8"?>
<!-- Generator: Adobe Illustrator 16.0.0, SVG Export Plug-In . SVG Version: 6.00 Build 0)  -->
<!DOCTYPE svg PUBLIC "-//W3C//DTD SVG 1.1//EN" "http://www.w3.org/Graphics/SVG/1.1/DTD/svg11.dtd" [
	<!ENTITY ns_extend "http://ns.adobe.com/Extensibility/1.0/">
	<!ENTITY ns_ai "http://ns.adobe.com/AdobeIllustrator/10.0/">
	<!ENTITY ns_graphs "http://ns.adobe.com/Graphs/1.0/">
	<!ENTITY ns_vars "http://ns.adobe.com/Variables/1.0/">
	<!ENTITY ns_imrep "http://ns.adobe.com/ImageReplacement/1.0/">
	<!ENTITY ns_sfw "http://ns.adobe.com/SaveForWeb/1.0/">
	<!ENTITY ns_custom "http://ns.adobe.com/GenericCustomNamespace/1.0/">
	<!ENTITY ns_adobe_xpath "http://ns.adobe.com/XPath/1.0/">
]>
<svg version="1.1" id="Layer_1" xmlns:x="&ns_extend;" xmlns:i="&ns_ai;" xmlns:graph="&ns_graphs;"
	 xmlns="http://www.w3.org/2000/svg" xmlns:xlink="http://www.w3.org/1999/xlink" x="0px" y="0px" width="46px" height="46px"
	 viewBox="0 0 46 46" enable-background="new 0 0 46 46" xml:space="preserve">
<metadata>
	<sfw  xmlns="&ns_sfw;">
		<slices></slices>
		<sliceSourceBounds  width="46" height="41" y="-43.5" x="0" bottomLeftOrigin="true"></sliceSourceBounds>
	</sfw>
</metadata>
<g>
	<path fill-rule="evenodd" clip-rule="evenodd" d="M0,28.406c0.088-0.329,0.167-0.661,0.268-0.986
		c0.304-0.979,0.833-1.823,1.604-2.498c0.215-0.188,0.291-0.371,0.29-0.648c-0.008-4.043-0.006-8.086-0.005-12.129
		c0-2.071,1.186-3.486,3.218-3.853C5.52,8.266,5.664,8.219,5.797,8.156c2.857-1.336,5.715-2.672,8.566-4.022
		c0.215-0.102,0.414-0.286,0.562-0.477c0.672-0.867,1.54-1.272,2.628-1.128c1.045,0.138,1.778,0.717,2.232,1.668
		c0.126,0.265,0.286,0.524,0.476,0.748c1.268,1.496,2.549,2.981,3.824,4.472c0.399,0.466,0.413,0.819-0.024,1.257
		c-0.336,0.335-0.444,0.697-0.43,1.16c0.03,0.954,0.009,1.909,0.009,2.917c0.47,0,0.9-0.004,1.329,0.001
		c0.586,0.008,0.819,0.235,0.826,0.814c0.007,0.67,0.001,1.34,0.001,2.035c-0.483,0-0.927,0-1.423,0c0-0.454,0-0.908,0-1.387
		c-0.975,0-1.897,0-2.873,0c0,0.451,0,0.905,0,1.385c-0.496,0-0.939,0-1.426,0c0-0.764-0.031-1.537,0.013-2.305
		c0.021-0.379,0.339-0.54,0.712-0.542c0.447-0.002,0.894,0,1.372,0c0-0.577,0-1.123,0-1.64c-0.222,0.061-0.479,0.212-0.697,0.168
		c-0.238-0.048-0.469-0.248-0.654-0.431c-1.402-1.391-2.792-2.794-4.206-4.213c-1.018,0.654-2.009,1.29-2.999,1.927
		c-1.321,0.851-2.646,1.695-3.957,2.561c-0.146,0.096-0.301,0.311-0.302,0.472c-0.017,3.519-0.013,7.038-0.012,10.556
		c0,0.057,0.014,0.113,0.009,0.079c0.951-0.064,1.882-0.128,2.864-0.195c0-0.138,0-0.298,0-0.458c0-1.453-0.002-2.905,0.001-4.357
		c0.002-0.641,0.229-0.874,0.859-0.875c1.827-0.003,3.654-0.004,5.48,0c0.608,0.001,0.843,0.236,0.845,0.844
		c0.004,1.453,0.001,2.905,0.001,4.357c0,0.163,0,0.325,0,0.517c2.398,0,4.77,0,7.188,0c0-0.273,0-0.538,0-0.804
		c0-1.362-0.004-2.725,0.002-4.087c0.002-0.583,0.24-0.825,0.816-0.827c1.842-0.005,3.684-0.005,5.525,0
		c0.605,0.001,0.84,0.237,0.842,0.847c0.005,1.453,0.002,2.905,0.002,4.357c0,0.162,0,0.325,0,0.544c0.188,0,0.347,0,0.506,0
		c2.59,0,5.18-0.001,7.771,0c2.137,0,3.325,0.91,3.895,2.979c0.008,0.027,0.031,0.05,0.047,0.075c0,0.359,0,0.719,0,1.078
		c-0.027,0.067-0.064,0.134-0.08,0.204c-0.36,1.55-1.438,2.567-3.01,2.809c-0.392,0.061-0.795,0.046-1.223,0.067
		c0,0.191,0,0.354,0,0.516c0,3.577-0.005,7.154,0.007,10.731c0.001,0.41-0.102,0.728-0.456,0.946c-13.735,0-27.47,0-41.238,0
		C0,38.469,0,33.438,0,28.406z M40.218,42.043c0-3.604,0-7.171,0-10.728c-9.589,0-19.145,0-28.693,0c0,0.479,0,0.923,0,1.403
		c0.185,0,0.346,0,0.508,0c2.35,0,4.7,0.01,7.051-0.009c0.443-0.004,0.76,0.141,1.065,0.449c1.673,1.692,3.357,3.374,5.053,5.045
		c0.147,0.146,0.405,0.249,0.614,0.253c1.303,0.022,2.605,0.011,3.908,0.013c0.144,0,0.288,0.013,0.43,0.02c0,0.489,0,0.943,0,1.417
		c-1.544,0-3.055-0.018-4.564,0.01c-0.504,0.009-0.871-0.138-1.227-0.499c-1.635-1.668-3.289-3.316-4.954-4.954
		c-0.167-0.165-0.455-0.292-0.688-0.294c-2.26-0.021-4.521-0.013-6.781-0.013c-0.142,0-0.283,0-0.416,0c0,2.67,0,5.27,0,7.887
		C21.095,42.043,30.641,42.043,40.218,42.043z M26.616,25.531c-3.084,0-6.168,0-9.252,0c-2.186,0-4.372-0.008-6.558,0.003
		c-1.31,0.006-2.236,0.988-2.177,2.275c0.056,1.22,0.985,2.033,2.333,2.033c10.42,0.001,20.841,0.001,31.262,0
		c0.12,0,0.239,0.003,0.359-0.006c0.908-0.068,1.653-0.676,1.892-1.541c0.402-1.452-0.601-2.761-2.138-2.763
		C37.097,25.527,31.856,25.531,26.616,25.531z M1.438,42.03c2.904,0,5.753,0,8.61,0c0-3.621,0-7.209,0-10.741
		c-0.603-0.299-1.171-0.581-1.742-0.863c-1.065,1.509-2.571,1.961-3.962,1.174c-1.266-0.716-1.792-2.334-1.183-3.66
		c0.3-0.651,0.782-1.128,1.442-1.411c0.929-0.398,1.835-0.298,2.694,0.185c0.218-0.438,0.421-0.847,0.633-1.272
		c-0.606-0.407-1.276-0.597-1.988-0.622c-2.486-0.088-4.493,1.836-4.501,4.344c-0.014,4.19-0.004,8.381-0.004,12.571
		C1.438,41.822,1.438,41.91,1.438,42.03z M7.871,23.357c0-2.869,0-5.695,0-8.562c-1.434,0.944-2.834,0.931-4.251,0
		c0,2.881,0,5.712,0,8.562C5.046,23.357,6.446,23.357,7.871,23.357z M9.355,11.581c2.067-1.339,4.068-2.634,6.054-3.919
		c-0.236-0.32-0.471-0.579-0.632-0.877c-0.165-0.303-0.257-0.646-0.388-0.992c-2.195,1.016-4.381,2.028-6.618,3.063
		C8.695,9.556,9.207,10.422,9.355,11.581z M13.688,19.801c0,1.447,0,2.857,0,4.258c1.441,0,2.852,0,4.245,0c0-1.444,0-2.854,0-4.253
		c-0.48,0-0.923,0-1.413,0c0,0.479,0,0.933,0,1.377c-0.502,0-0.956,0-1.44,0c0-0.478,0-0.92,0-1.382
		C14.604,19.801,14.162,19.801,13.688,19.801z M28.063,19.801c0,1.447,0,2.857,0,4.258c1.441,0,2.852,0,4.245,0
		c0-1.444,0-2.854,0-4.253c-0.479,0-0.923,0-1.413,0c0,0.478,0,0.933,0,1.377c-0.502,0-0.956,0-1.44,0c0-0.478,0-0.92,0-1.382
		C28.979,19.801,28.537,19.801,28.063,19.801z M7.905,11.858c-0.007-1.219-0.958-2.15-2.183-2.138
		c-1.201,0.012-2.125,0.944-2.127,2.148c-0.003,1.222,0.938,2.164,2.16,2.162C6.976,14.027,7.912,13.081,7.905,11.858z
		 M22.855,10.077c-0.991-1.159-1.956-2.289-2.843-3.326c-0.58,0.515-1.126,0.999-1.639,1.454c1.008,1.016,2.106,2.123,3.234,3.258
		C22.002,11.024,22.409,10.573,22.855,10.077z M18.686,5.405c0-0.777-0.648-1.43-1.426-1.435c-0.776-0.005-1.435,0.639-1.446,1.415
		c-0.011,0.795,0.654,1.464,1.449,1.457C18.039,6.835,18.686,6.182,18.686,5.405z M5.764,30.561
		c0.776-0.007,1.423-0.661,1.422-1.438c-0.001-0.795-0.676-1.452-1.472-1.434c-0.775,0.019-1.413,0.684-1.4,1.461
		C4.327,29.925,4.987,30.568,5.764,30.561z"/>
	<path fill-rule="evenodd" clip-rule="evenodd" d="M34.523,38.487c1.188,0,2.348,0,3.539,0c0,0.459,0,0.912,0,1.393
		c-1.174,0-2.345,0-3.539,0C34.523,39.423,34.523,38.98,34.523,38.487z"/>
	<path fill-rule="evenodd" clip-rule="evenodd" d="M31.646,39.875c0-0.477,0-0.918,0-1.383c0.462,0,0.904,0,1.382,0
		c0,0.444,0,0.897,0,1.383C32.586,39.875,32.133,39.875,31.646,39.875z"/>
	<path fill-rule="evenodd" clip-rule="evenodd" d="M12.928,26.998c0,0.47,0,0.902,0,1.371c-0.935,0-1.866,0-2.832,0
		c0-0.436,0-0.889,0-1.371C11.023,26.998,11.955,26.998,12.928,26.998z"/>
	<path fill-rule="evenodd" clip-rule="evenodd" d="M17.233,27.004c0,0.462,0,0.904,0,1.374c-0.946,0-1.878,0-2.834,0
		c0-0.452,0-0.896,0-1.374C15.321,27.004,16.253,27.004,17.233,27.004z"/>
	<path fill-rule="evenodd" clip-rule="evenodd" d="M21.553,26.998c0,0.47,0,0.902,0,1.371c-0.935,0-1.866,0-2.832,0
		c0-0.436,0-0.889,0-1.371C19.648,26.998,20.58,26.998,21.553,26.998z"/>
	<path fill-rule="evenodd" clip-rule="evenodd" d="M25.857,27.002c0,0.469,0,0.911,0,1.379c-0.95,0-1.882,0-2.835,0
		c0-0.46,0-0.903,0-1.379C23.952,27.002,24.883,27.002,25.857,27.002z"/>
	<path fill-rule="evenodd" clip-rule="evenodd" d="M27.343,26.99c0.958,0,1.88,0,2.822,0c0,0.463,0,0.905,0,1.382
		c-0.929,0-1.86,0-2.822,0C27.343,27.927,27.343,27.474,27.343,26.99z"/>
	<path fill-rule="evenodd" clip-rule="evenodd" d="M34.467,28.388c-0.949,0-1.869,0-2.816,0c0-0.471,0-0.924,0-1.397
		c0.939,0,1.861,0,2.816,0C34.467,27.44,34.467,27.894,34.467,28.388z"/>
	<path fill-rule="evenodd" clip-rule="evenodd" d="M35.961,26.987c0.946,0,1.867,0,2.82,0c0,0.458,0,0.911,0,1.392
		c-0.934,0-1.865,0-2.82,0C35.961,27.924,35.961,27.481,35.961,26.987z"/>
	<path fill-rule="evenodd" clip-rule="evenodd" d="M43.094,28.386c-0.955,0-1.876,0-2.82,0c0-0.462,0-0.904,0-1.383
		c0.925,0,1.856,0,2.82,0C43.094,27.445,43.094,27.898,43.094,28.386z"/>
</g>
</svg>
