<?xml version="1.0" encoding="utf-8"?>
<!-- Generator: Adobe Illustrator 16.0.0, SVG Export Plug-In . SVG Version: 6.00 Build 0)  -->
<!DOCTYPE svg PUBLIC "-//W3C//DTD SVG 1.1//EN" "http://www.w3.org/Graphics/SVG/1.1/DTD/svg11.dtd" [
	<!ENTITY ns_extend "http://ns.adobe.com/Extensibility/1.0/">
	<!ENTITY ns_ai "http://ns.adobe.com/AdobeIllustrator/10.0/">
	<!ENTITY ns_graphs "http://ns.adobe.com/Graphs/1.0/">
	<!ENTITY ns_vars "http://ns.adobe.com/Variables/1.0/">
	<!ENTITY ns_imrep "http://ns.adobe.com/ImageReplacement/1.0/">
	<!ENTITY ns_sfw "http://ns.adobe.com/SaveForWeb/1.0/">
	<!ENTITY ns_custom "http://ns.adobe.com/GenericCustomNamespace/1.0/">
	<!ENTITY ns_adobe_xpath "http://ns.adobe.com/XPath/1.0/">
]>
<svg version="1.1" id="Layer_1" xmlns:x="&ns_extend;" xmlns:i="&ns_ai;" xmlns:graph="&ns_graphs;"
	 xmlns="http://www.w3.org/2000/svg" xmlns:xlink="http://www.w3.org/1999/xlink" x="0px" y="0px" width="46px" height="46px"
	 viewBox="0 0 46 46" enable-background="new 0 0 46 46" xml:space="preserve">
<metadata>
	<sfw  xmlns="&ns_sfw;">
		<slices></slices>
		<sliceSourceBounds  width="46" height="29.744" y="-37.872" x="0" bottomLeftOrigin="true"></sliceSourceBounds>
	</sfw>
</metadata>
<path fill-rule="evenodd" clip-rule="evenodd" d="M0,28.726c0.087-1.192,0.185-2.384,0.259-3.576
	c0.254-4.108,0.485-8.217,0.754-12.323c0.185-2.821,2.222-4.696,5.054-4.697c11.316-0.002,22.633-0.002,33.949,0
	c2.769,0,4.767,1.761,5.021,4.522c0.197,2.145,0.285,4.3,0.418,6.451c0.159,2.599,0.313,5.199,0.473,7.797
	c0.008,0.13,0.047,0.259,0.072,0.389c0,0.778,0,1.557,0,2.336c-0.254,0.887-0.631,1.704-1.324,2.343
	c-0.777,0.717-1.688,1.13-2.746,1.166c-0.669,0.023-1.339,0.005-1.984,0.005c-0.07,0.496-0.084,0.936-0.201,1.345
	c-0.299,1.041-1.043,1.729-1.951,2.245c-1.737,0.988-3.635,1.265-5.59,1.1c-0.915-0.077-1.85-0.239-2.713-0.542
	c-1.913-0.671-3.432-1.747-3.365-4.107c-1.811,0-3.598,0-5.414,0c-0.013,0.078-0.038,0.148-0.035,0.217
	c0.066,1.369-0.603,2.348-1.682,3.076c-1.807,1.22-3.849,1.484-5.964,1.373c-1.126-0.059-2.226-0.277-3.261-0.743
	c-1.676-0.755-2.919-1.836-2.839-3.95c-0.195,0-0.366,0.004-0.537-0.001c-0.956-0.028-1.929,0.045-2.863-0.11
	c-1.871-0.311-3.215-1.824-3.452-3.7C0.063,29.223,0.026,29.109,0,28.995C0,28.905,0,28.815,0,28.726z M23.045,30.775
	c3.115,0,6.229,0,9.343,0c3.039,0,6.08,0.004,9.119-0.002c1.397-0.004,2.225-0.906,2.135-2.3c-0.032-0.508-0.063-1.016-0.094-1.524
	c-0.289-4.601-0.583-9.202-0.86-13.805c-0.104-1.724-1.051-2.641-2.788-2.641c-11.245,0-22.491,0-33.736,0
	c-0.135,0-0.27-0.004-0.404,0.003c-1.213,0.063-2.255,1.028-2.34,2.204c-0.106,1.478-0.186,2.958-0.277,4.437
	c-0.198,3.183-0.396,6.365-0.595,9.547c-0.037,0.599-0.082,1.195-0.11,1.793c-0.07,1.432,0.745,2.286,2.189,2.287
	C10.767,30.776,16.906,30.775,23.045,30.775z M18.253,33.183c-2.981,0-5.934,0-8.875,0c-0.15,0.573,0.07,0.976,0.51,1.256
	c0.337,0.216,0.693,0.419,1.066,0.562c1.255,0.481,2.565,0.564,3.887,0.425c1.033-0.109,2.031-0.36,2.898-0.979
	C18.161,34.144,18.399,33.762,18.253,33.183z M28.579,33.175c-0.134,0.524,0.011,0.932,0.427,1.202
	c0.372,0.242,0.764,0.472,1.177,0.631c1.237,0.479,2.534,0.556,3.839,0.419c1.063-0.112,2.088-0.366,2.969-1.025
	c0.412-0.307,0.592-0.692,0.443-1.227C34.493,33.175,31.555,33.175,28.579,33.175z M33.003,20.054
	c-2.026-0.125-3.982-0.406-5.774-1.394c-0.352-0.193-0.688-0.431-0.984-0.699c-1.434-1.293-1.412-3.203,0.047-4.464
	c1.064-0.919,2.354-1.347,3.704-1.602c2.619-0.495,5.212-0.418,7.746,0.478c0.839,0.297,1.615,0.711,2.24,1.366
	c1.101,1.153,1.144,2.746,0.077,3.932c-0.961,1.071-2.244,1.585-3.604,1.874C35.319,19.786,34.154,19.889,33.003,20.054z
	 M33.413,17.588c0.464-0.059,1.329-0.133,2.179-0.289c0.887-0.162,1.736-0.458,2.461-1.023c0.5-0.392,0.508-0.682-0.009-1.057
	c-0.335-0.243-0.705-0.459-1.091-0.607c-2.19-0.838-4.445-0.903-6.699-0.361c-0.795,0.191-1.563,0.577-2.281,0.983
	c-0.545,0.307-0.516,0.665,0,1.042c0.322,0.236,0.681,0.436,1.049,0.592C30.294,17.409,31.645,17.551,33.413,17.588z M13.318,11.58
	c2.518,0.059,4.481,0.305,6.284,1.273c0.262,0.141,0.514,0.309,0.748,0.494c1.715,1.358,1.715,3.453-0.003,4.816
	c-0.958,0.76-2.078,1.183-3.258,1.43c-2.89,0.604-5.746,0.543-8.489-0.66c-0.63-0.276-1.238-0.691-1.73-1.17
	c-1.213-1.183-1.173-2.886,0.029-4.079c1.006-0.999,2.291-1.462,3.635-1.729C11.616,11.74,12.723,11.657,13.318,11.58z
	 M13.835,17.581c1.328-0.033,2.68-0.163,3.951-0.71c0.394-0.169,0.777-0.388,1.119-0.646c0.446-0.335,0.442-0.632-0.012-0.968
	c-0.344-0.255-0.729-0.469-1.122-0.64c-1.026-0.447-2.12-0.614-3.229-0.672c-1.612-0.084-3.196,0.061-4.708,0.675
	c-0.315,0.128-0.625,0.29-0.907,0.48c-0.708,0.479-0.705,0.819,0.015,1.302c0.283,0.19,0.594,0.346,0.909,0.478
	C11.112,17.406,12.445,17.549,13.835,17.581z M13.525,21.202c2.079,0.04,3.835,0.223,5.467,0.978
	c0.602,0.278,1.199,0.639,1.683,1.086c1.288,1.189,1.28,2.94,0.039,4.178c-0.897,0.896-2.029,1.367-3.233,1.66
	c-3.014,0.733-5.996,0.689-8.879-0.557c-0.63-0.272-1.238-0.689-1.73-1.17c-1.214-1.184-1.173-2.881,0.025-4.08
	c0.83-0.83,1.879-1.263,2.983-1.57c0.56-0.156,1.134-0.279,1.71-0.355C12.331,21.276,13.08,21.24,13.525,21.202z M13.827,27.193
	c1.334-0.032,2.687-0.16,3.957-0.71c0.419-0.182,0.823-0.427,1.184-0.706c0.372-0.287,0.368-0.553-0.007-0.845
	c-0.35-0.271-0.734-0.533-1.146-0.684c-2.668-0.979-5.351-0.979-8.018,0.004c-0.411,0.152-0.792,0.418-1.141,0.691
	c-0.372,0.292-0.37,0.549,0.008,0.842c0.35,0.271,0.739,0.511,1.145,0.687C11.077,27.021,12.428,27.164,13.827,27.193z
	 M32.517,21.194c2.491,0.059,4.444,0.291,6.233,1.252c0.377,0.203,0.742,0.456,1.059,0.747c1.377,1.267,1.398,3.152-0.038,4.355
	c-0.661,0.553-1.464,1.02-2.28,1.289c-3.265,1.077-6.533,1.038-9.73-0.301c-0.555-0.232-1.086-0.589-1.535-0.991
	c-1.424-1.271-1.382-3.174,0.059-4.428c1-0.871,2.211-1.313,3.483-1.556C30.835,21.356,31.926,21.27,32.517,21.194z M33.013,27.193
	c1.351-0.031,2.7-0.168,3.974-0.709c0.342-0.145,0.676-0.323,0.979-0.536c0.621-0.437,0.617-0.747-0.014-1.189
	c-0.291-0.204-0.607-0.394-0.939-0.514c-2.657-0.967-5.324-0.97-7.982-0.009c-0.333,0.12-0.65,0.306-0.943,0.507
	c-0.662,0.456-0.658,0.789,0.016,1.246c0.294,0.199,0.617,0.365,0.946,0.503C30.31,27.021,31.644,27.162,33.013,27.193z"/>
</svg>
