<?xml version="1.0" encoding="utf-8"?>
<!-- Generator: Adobe Illustrator 16.0.0, SVG Export Plug-In . SVG Version: 6.00 Build 0)  -->
<!DOCTYPE svg PUBLIC "-//W3C//DTD SVG 1.1//EN" "http://www.w3.org/Graphics/SVG/1.1/DTD/svg11.dtd" [
	<!ENTITY ns_extend "http://ns.adobe.com/Extensibility/1.0/">
	<!ENTITY ns_ai "http://ns.adobe.com/AdobeIllustrator/10.0/">
	<!ENTITY ns_graphs "http://ns.adobe.com/Graphs/1.0/">
	<!ENTITY ns_vars "http://ns.adobe.com/Variables/1.0/">
	<!ENTITY ns_imrep "http://ns.adobe.com/ImageReplacement/1.0/">
	<!ENTITY ns_sfw "http://ns.adobe.com/SaveForWeb/1.0/">
	<!ENTITY ns_custom "http://ns.adobe.com/GenericCustomNamespace/1.0/">
	<!ENTITY ns_adobe_xpath "http://ns.adobe.com/XPath/1.0/">
]>
<svg version="1.1" id="Layer_1" xmlns:x="&ns_extend;" xmlns:i="&ns_ai;" xmlns:graph="&ns_graphs;"
	 xmlns="http://www.w3.org/2000/svg" xmlns:xlink="http://www.w3.org/1999/xlink" x="0px" y="0px" width="46px" height="46px"
	 viewBox="0 0 46 46" enable-background="new 0 0 46 46" xml:space="preserve">
<metadata>
	<sfw  xmlns="&ns_sfw;">
		<slices></slices>
		<sliceSourceBounds  width="46" height="35.408" y="-40.704" x="0" bottomLeftOrigin="true"></sliceSourceBounds>
	</sfw>
</metadata>
<g>
	<path fill-rule="evenodd" clip-rule="evenodd" d="M46,36.387c-0.139,0.455-0.224,0.936-0.424,1.361
		c-0.91,1.931-2.454,2.934-4.588,2.945c-3.846,0.021-7.692,0.006-11.539,0.006c-5.807,0-11.613-0.006-17.42,0.003
		c-1.63,0.002-2.959-0.606-4.015-1.844c-2.156-2.527-4.303-5.063-6.484-7.568C0.764,30.409,0.231,29.439,0,28.3
		c0-0.418,0-0.838,0-1.257c0.25-0.65,0.428-1.341,0.769-1.938c0.344-0.604,0.848-1.114,1.334-1.731
		c-0.443-0.433-0.898-0.878-1.354-1.324c-0.128-0.126-0.257-0.251-0.38-0.382c-0.339-0.358-0.371-0.743-0.09-1.03
		c0.284-0.292,0.678-0.273,1.031,0.068c0.452,0.438,0.891,0.888,1.336,1.332c0.105,0.104,0.215,0.204,0.352,0.335
		c0.935-1.092,1.856-2.167,2.776-3.244c0.769-0.898,1.537-1.797,2.306-2.696c0.969-1.132,2.205-1.742,3.688-1.766
		c2.021-0.033,4.042-0.014,6.063-0.008c0.643,0.002,1.005,0.499,0.742,0.992c-0.163,0.306-0.446,0.356-0.766,0.355
		c-1.886-0.006-3.772,0.01-5.659-0.007c-1.297-0.012-2.338,0.459-3.178,1.46c-1.646,1.96-3.324,3.893-5.024,5.878
		c0.541,0.54,1.07,1.084,1.622,1.603c0.073,0.069,0.274,0.044,0.399,0.007c1.618-0.471,3.246,0.426,3.647,2.018
		c0.41,1.627-0.594,3.223-2.265,3.53c-1.165,0.215-2.139-0.188-2.83-1.146c-0.703-0.975-0.734-2.025-0.172-3.088
		c0.063-0.119,0.143-0.228,0.193-0.306c-0.501-0.506-0.993-1.001-1.487-1.498c-1.377,1.266-2.079,2.588-1.509,4.319
		c0.154,0.47,0.435,0.927,0.756,1.306c2.24,2.654,4.507,5.285,6.763,7.926c0.766,0.896,1.73,1.344,2.912,1.344
		c9.671-0.002,19.343,0.001,29.014-0.003c2.115-0.002,3.659-1.542,3.662-3.656c0.006-5.33,0.005-10.659,0-15.989
		c-0.001-2.144-1.528-3.688-3.671-3.697c-2.89-0.013-5.779-0.003-8.669-0.005c-0.178,0-0.41,0.042-0.523-0.051
		c-0.187-0.155-0.407-0.402-0.408-0.611c-0.002-0.207,0.217-0.459,0.405-0.607c0.13-0.101,0.372-0.074,0.564-0.074
		c2.814-0.004,5.628-0.004,8.442-0.002c2.73,0.002,4.584,1.513,5.146,4.185c0.009,0.042,0.042,0.078,0.063,0.116
		C46,24.768,46,30.576,46,36.387z M8.356,27.676c-0.002-0.829-0.686-1.517-1.513-1.521c-0.822-0.004-1.521,0.685-1.532,1.509
		c-0.011,0.842,0.695,1.544,1.543,1.536C7.689,29.191,8.359,28.513,8.356,27.676z"/>
	<path fill-rule="evenodd" clip-rule="evenodd" d="M31.772,5.296c1.276,0.074,2.326,0.679,2.9,1.939
		c0.579,1.269,0.418,2.494-0.492,3.561c-0.523,0.613-1.124,1.161-1.695,1.732c-4.528,4.529-9.06,9.055-13.584,13.589
		c-0.709,0.711-1.515,1.252-2.457,1.603c-1.246,0.465-2.486,0.945-3.722,1.433c-0.508,0.201-0.969,0.182-1.367-0.213
		c-0.402-0.399-0.405-0.871-0.211-1.371c0.513-1.323,0.967-2.673,1.553-3.963c0.333-0.734,0.781-1.469,1.344-2.039
		c5.031-5.083,10.102-10.13,15.158-15.19C29.887,5.687,30.701,5.311,31.772,5.296z M17.793,25.158
		c4.422-4.415,8.845-8.83,13.25-13.229c-0.27-0.281-0.563-0.59-0.817-0.854c-4.433,4.433-8.849,8.851-13.239,13.242
		C17.251,24.593,17.549,24.904,17.793,25.158z M28.379,9.197c-4.444,4.442-8.854,8.851-13.244,13.241
		c0.246,0.275,0.51,0.572,0.731,0.82c4.445-4.444,8.862-8.861,13.285-13.284C28.908,9.73,28.636,9.455,28.379,9.197z M32.12,10.968
		c0.356-0.355,0.726-0.685,1.051-1.055c0.637-0.728,0.63-1.822,0.012-2.556c-0.632-0.752-1.75-0.965-2.552-0.406
		c-0.492,0.343-0.896,0.811-1.316,1.201C30.273,9.116,31.182,10.026,32.12,10.968z M14.131,23.591
		c-0.521,1.346-1.055,2.723-1.629,4.204c1.491-0.578,2.86-1.109,4.202-1.63C15.843,25.304,15.013,24.474,14.131,23.591z"/>
	<path fill-rule="evenodd" clip-rule="evenodd" d="M27.357,32.276c-3.174,0-6.347,0-9.52-0.001c-0.15,0-0.301,0.006-0.449-0.011
		c-0.342-0.04-0.546-0.244-0.583-0.579c-0.04-0.359,0.13-0.612,0.481-0.709c0.155-0.043,0.325-0.046,0.488-0.046
		c6.391-0.002,12.782-0.002,19.173,0.001c0.178,0,0.366,0.006,0.531,0.06c0.325,0.106,0.521,0.381,0.416,0.691
		c-0.078,0.228-0.321,0.421-0.534,0.567c-0.114,0.077-0.32,0.025-0.484,0.025C33.703,32.276,30.531,32.276,27.357,32.276z"/>
	<path fill-rule="evenodd" clip-rule="evenodd" d="M31.67,23.083c1.795,0,3.592-0.001,5.389,0.001c0.569,0,0.867,0.239,0.861,0.678
		c-0.006,0.435-0.308,0.668-0.881,0.668c-3.562,0.002-7.125,0.002-10.687,0c-0.548,0-0.849-0.215-0.887-0.62
		c-0.039-0.42,0.269-0.723,0.771-0.725c1.707-0.005,3.412-0.002,5.119-0.002C31.46,23.083,31.565,23.083,31.67,23.083z"/>
	<path fill-rule="evenodd" clip-rule="evenodd" d="M31.718,27.013c1.735,0,3.471,0,5.207,0.001c0.149,0,0.302-0.006,0.448,0.021
		c0.336,0.061,0.526,0.274,0.542,0.615c0.017,0.341-0.148,0.579-0.48,0.664c-0.171,0.044-0.355,0.046-0.534,0.046
		c-3.472,0.002-6.942,0.001-10.414,0.001c-0.105,0-0.211,0.005-0.314-0.004c-0.426-0.035-0.701-0.297-0.709-0.664
		c-0.008-0.388,0.277-0.672,0.733-0.674c1.841-0.009,3.681-0.004,5.521-0.004C31.718,27.014,31.718,27.014,31.718,27.013z"/>
</g>
</svg>
