<?xml version="1.0" encoding="utf-8"?>
<!-- Generator: Adobe Illustrator 16.0.0, SVG Export Plug-In . SVG Version: 6.00 Build 0)  -->
<!DOCTYPE svg PUBLIC "-//W3C//DTD SVG 1.1//EN" "http://www.w3.org/Graphics/SVG/1.1/DTD/svg11.dtd" [
	<!ENTITY ns_extend "http://ns.adobe.com/Extensibility/1.0/">
	<!ENTITY ns_ai "http://ns.adobe.com/AdobeIllustrator/10.0/">
	<!ENTITY ns_graphs "http://ns.adobe.com/Graphs/1.0/">
	<!ENTITY ns_vars "http://ns.adobe.com/Variables/1.0/">
	<!ENTITY ns_imrep "http://ns.adobe.com/ImageReplacement/1.0/">
	<!ENTITY ns_sfw "http://ns.adobe.com/SaveForWeb/1.0/">
	<!ENTITY ns_custom "http://ns.adobe.com/GenericCustomNamespace/1.0/">
	<!ENTITY ns_adobe_xpath "http://ns.adobe.com/XPath/1.0/">
]>
<svg version="1.1" id="Layer_1" xmlns:x="&ns_extend;" xmlns:i="&ns_ai;" xmlns:graph="&ns_graphs;"
	 xmlns="http://www.w3.org/2000/svg" xmlns:xlink="http://www.w3.org/1999/xlink" x="0px" y="0px" width="46px" height="46px"
	 viewBox="0 0 46 46" enable-background="new 0 0 46 46" xml:space="preserve">
<metadata>
	<sfw  xmlns="&ns_sfw;">
		<slices></slices>
		<sliceSourceBounds  width="46" height="45.984" y="-45.992" x="0" bottomLeftOrigin="true"></sliceSourceBounds>
	</sfw>
</metadata>
<g>
	<path fill-rule="evenodd" clip-rule="evenodd" d="M8.514,19.853c0-1.784,0.013-3.568-0.007-5.352
		c-0.007-0.587,0.224-0.95,0.745-1.21c2.937-1.466,5.868-2.944,8.792-4.435c0.473-0.241,0.886-0.246,1.357-0.007
		c2.925,1.489,5.857,2.964,8.79,4.438c0.407,0.205,0.737,0.457,0.75,0.953c0.013,0.523-0.329,0.791-0.751,1.003
		c-2.697,1.356-5.389,2.722-8.093,4.065c-0.318,0.158-0.417,0.338-0.417,0.679c0.012,3.205,0.007,6.41,0.007,9.615
		c0,0.148,0.006,0.298-0.004,0.446c-0.057,0.806-0.716,1.223-1.433,0.864c-3.069-1.535-6.128-3.087-9.191-4.634
		c-0.42-0.212-0.552-0.569-0.549-1.022C8.52,23.455,8.514,21.654,8.514,19.853z M10.417,15.815c0,2.979-0.005,5.853,0.015,8.726
		c0.001,0.152,0.189,0.366,0.344,0.445c2.187,1.122,4.382,2.225,6.577,3.33c0.112,0.057,0.234,0.092,0.363,0.142
		c0.02-0.08,0.041-0.126,0.041-0.171c0.002-2.824,0.009-5.649-0.009-8.473c-0.001-0.157-0.176-0.379-0.329-0.46
		c-1.065-0.561-2.146-1.092-3.221-1.633C12.964,17.1,11.731,16.478,10.417,15.815z M11.62,14.249
		c0.212,0.119,0.335,0.194,0.464,0.259c2.092,1.055,4.188,2.1,6.272,3.169c0.29,0.149,0.499,0.127,0.772-0.013
		c2.101-1.073,4.21-2.13,6.316-3.193c0.111-0.057,0.214-0.129,0.328-0.198c-0.047-0.05-0.063-0.081-0.089-0.093
		c-2.238-1.131-4.475-2.265-6.718-3.384c-0.124-0.062-0.33-0.067-0.452-0.006C16.239,11.92,13.972,13.065,11.62,14.249z"/>
	<path fill-rule="evenodd" clip-rule="evenodd" d="M31.215,35.108c-0.156,0.395-0.274,0.696-0.396,0.998
		c-0.177,0.437-0.474,0.715-0.974,0.693c-0.497-0.021-0.771-0.313-0.908-0.771c-0.359-1.2-0.724-2.399-1.089-3.599
		c-0.052-0.169-0.114-0.334-0.188-0.547c-1.258,0.632-2.477,1.245-3.696,1.857c-0.221,0.111-0.435,0.24-0.664,0.332
		c-0.644,0.259-1.255-0.103-1.355-0.788c-0.005-0.033-0.008-0.066-0.008-0.1c0-3.699-0.003-7.399,0.003-11.1
		c0-0.412,0.208-0.715,0.585-0.905c3.05-1.537,6.094-3.083,9.147-4.611c0.755-0.378,1.437,0.08,1.438,0.946
		c0.005,3.287,0.01,6.574-0.008,9.862c-0.003,0.398,0.1,0.579,0.496,0.68c0.799,0.202,1.583,0.462,2.372,0.7
		c0.664,0.201,0.954,0.489,0.955,0.977c0.001,0.569-0.354,0.85-0.85,1.019c-0.26,0.089-0.509,0.209-0.844,0.349
		c0.618,0.606,1.197,1.167,1.768,1.735c0.665,0.663,0.665,1.109,0.007,1.771c-0.77,0.773-1.54,1.544-2.313,2.313
		c-0.608,0.604-1.08,0.602-1.696-0.013C32.426,36.338,31.86,35.76,31.215,35.108z M31.16,27.301c0-2.797,0-5.532,0-8.313
		c-0.191,0.09-0.325,0.149-0.456,0.215c-2.135,1.075-4.265,2.158-6.406,3.218c-0.326,0.161-0.443,0.344-0.441,0.712
		c0.018,2.657,0.009,5.314,0.011,7.971c0,0.155,0.016,0.312,0.028,0.524c1.041-0.521,2.029-1.007,3-1.522
		c0.089-0.048,0.135-0.308,0.1-0.441c-0.201-0.747-0.446-1.483-0.651-2.229c-0.22-0.799,0.405-1.42,1.208-1.21
		c0.351,0.091,0.693,0.211,1.04,0.314C29.44,26.792,30.288,27.043,31.16,27.301z M33.002,29.865
		c-1.43-0.428-2.825-0.846-4.313-1.291c0.451,1.503,0.869,2.894,1.269,4.222c0.341-0.128,0.636-0.339,0.906-0.313
		c0.294,0.028,0.614,0.229,0.84,0.441c0.727,0.687,1.416,1.413,2.082,2.087c0.487-0.464,0.914-0.869,1.384-1.316
		c-0.705-0.698-1.396-1.381-2.085-2.066C32.448,30.993,32.423,30.614,33.002,29.865z"/>
	<path fill-rule="evenodd" clip-rule="evenodd" d="M42.046,0.012c0.644,0,1.287-0.007,1.931,0.001
		c1.186,0.014,2.001,0.81,2.014,1.984c0.014,1.304,0.013,2.608,0,3.912c-0.012,1.136-0.776,1.948-1.915,1.977
		c-1.353,0.035-2.707,0.035-4.061,0C38.874,7.857,38.117,7.06,38.1,5.909c-0.02-1.304-0.021-2.608,0-3.912
		c0.02-1.189,0.827-1.969,2.015-1.984C40.758,0.005,41.402,0.012,42.046,0.012z M44.044,1.975c-1.348,0-2.659,0-3.978,0
		c0,1.344,0,2.653,0,3.971c1.343,0,2.644,0,3.978,0C44.044,4.627,44.044,3.33,44.044,1.975z"/>
	<path fill-rule="evenodd" clip-rule="evenodd" d="M3.943,45.988c-0.644,0-1.288,0.008-1.931-0.001
		c-1.184-0.018-1.993-0.816-2.003-1.995c-0.012-1.304-0.012-2.608,0-3.912c0.011-1.114,0.762-1.931,1.874-1.963
		c1.369-0.04,2.74-0.036,4.109-0.003c1.098,0.027,1.87,0.79,1.899,1.887c0.037,1.369,0.04,2.741-0.002,4.109
		c-0.034,1.11-0.853,1.855-1.966,1.876C5.264,45.998,4.604,45.988,3.943,45.988z M1.955,44.028c1.344,0,2.656,0,3.979,0
		c0-1.343,0-2.652,0-3.954c-1.35,0-2.66,0-3.979,0C1.955,41.412,1.955,42.709,1.955,44.028z"/>
	<path fill-rule="evenodd" clip-rule="evenodd" d="M42.057,45.988c-0.66,0-1.32,0.01-1.98-0.002
		c-1.134-0.021-1.946-0.789-1.973-1.924c-0.03-1.336-0.027-2.674-0.002-4.011c0.021-1.121,0.786-1.909,1.902-1.938
		c1.369-0.034,2.74-0.037,4.109,0.002c1.111,0.033,1.864,0.848,1.877,1.962c0.014,1.305,0.013,2.608,0,3.912
		c-0.011,1.18-0.82,1.979-2.002,1.997C43.345,45.996,42.701,45.988,42.057,45.988z M40.071,40.059c0,1.363,0,2.67,0,3.957
		c1.352,0,2.658,0,3.977,0c0-1.342,0-2.637,0-3.957C42.71,40.059,41.4,40.059,40.071,40.059z"/>
	<path fill-rule="evenodd" clip-rule="evenodd" d="M3.956,0.012c0.644,0,1.287-0.007,1.931,0.001
		c1.148,0.014,1.972,0.754,2.005,1.887c0.04,1.369,0.039,2.74,0,4.109c-0.032,1.095-0.807,1.85-1.91,1.876
		c-1.353,0.033-2.708,0.034-4.06,0C0.782,7.857,0.02,7.044,0.009,5.907c-0.012-1.304-0.013-2.607,0-3.911
		c0.011-1.153,0.817-1.96,1.965-1.981C2.635,0.002,3.295,0.012,3.956,0.012z M1.956,5.922c1.351,0,2.673,0,3.991,0
		c0-1.341,0-2.639,0-3.962c-1.337,0-2.647,0-3.991,0C1.956,3.302,1.956,4.611,1.956,5.922z"/>
	<path fill-rule="evenodd" clip-rule="evenodd" d="M4.918,14.533c-0.679,0-1.268,0-1.892,0c0-0.623,0-1.224,0-1.903
		c0.549,0,1.104-0.01,1.657,0.011c0.081,0.003,0.221,0.151,0.225,0.237C4.929,13.417,4.918,13.956,4.918,14.533z"/>
	<path fill-rule="evenodd" clip-rule="evenodd" d="M16.895,3.016c0.662,0,1.262,0,1.894,0c0,0.624,0,1.225,0,1.897
		c-0.558,0-1.113,0.01-1.667-0.011c-0.079-0.003-0.214-0.156-0.217-0.244C16.885,4.12,16.895,3.581,16.895,3.016z"/>
	<path fill-rule="evenodd" clip-rule="evenodd" d="M42.973,14.529c-0.621,0-1.222,0-1.854,0c0-0.624,0-1.225,0-1.864
		c0.615,0,1.215,0,1.854,0C42.973,13.268,42.973,13.867,42.973,14.529z"/>
	<path fill-rule="evenodd" clip-rule="evenodd" d="M42.981,29.089c-0.636,0-1.224,0-1.854,0c0-0.629,0-1.242,0-1.881
		c0.623,0,1.223,0,1.854,0C42.981,27.835,42.981,28.437,42.981,29.089z"/>
	<path fill-rule="evenodd" clip-rule="evenodd" d="M31.477,3.007c0.638,0,1.228,0,1.896,0c0,0.565,0.01,1.119-0.012,1.672
		c-0.003,0.082-0.15,0.222-0.236,0.226c-0.538,0.021-1.078,0.01-1.648,0.01C31.477,4.26,31.477,3.661,31.477,3.007z"/>
	<path fill-rule="evenodd" clip-rule="evenodd" d="M3.013,29.108c0-0.678,0-1.267,0-1.891c0.623,0,1.224,0,1.904,0
		c0,0.547,0.01,1.102-0.011,1.654c-0.003,0.082-0.151,0.223-0.236,0.227C4.132,29.119,3.592,29.108,3.013,29.108z"/>
	<path fill-rule="evenodd" clip-rule="evenodd" d="M18.793,41.087c0,0.663,0,1.264,0,1.895c-0.628,0-1.229,0-1.896,0
		c0-0.567-0.008-1.123,0.009-1.677c0.002-0.075,0.13-0.206,0.203-0.208C17.664,41.079,18.219,41.087,18.793,41.087z"/>
	<path fill-rule="evenodd" clip-rule="evenodd" d="M33.373,42.991c-0.672,0-1.261,0-1.889,0c0-0.618,0-1.22,0-1.903
		c0.557,0,1.125-0.008,1.694,0.011c0.066,0.002,0.183,0.145,0.186,0.226C33.381,41.863,33.373,42.403,33.373,42.991z"/>
	<path fill-rule="evenodd" clip-rule="evenodd" d="M41.116,21.778c0-0.598,0-1.198,0-1.829c0.617,0,1.218,0,1.857,0
		c0,0.592,0,1.189,0,1.829C42.373,21.778,41.761,21.778,41.116,21.778z"/>
	<path fill-rule="evenodd" clip-rule="evenodd" d="M4.889,23.602c0,0.606,0,1.206,0,1.837c-0.618,0-1.218,0-1.858,0
		c0-0.594,0-1.191,0-1.837C3.635,23.602,4.246,23.602,4.889,23.602z"/>
	<path fill-rule="evenodd" clip-rule="evenodd" d="M3.011,32.71c0-0.64,0-1.225,0-1.845c0.632,0,1.244,0,1.881,0
		c0,0.619,0,1.218,0,1.845C4.262,32.71,3.661,32.71,3.011,32.71z"/>
	<path fill-rule="evenodd" clip-rule="evenodd" d="M41.117,32.692c0-0.6,0-1.2,0-1.831c0.616,0,1.216,0,1.856,0
		c0,0.59,0,1.188,0,1.831C42.372,32.692,41.761,32.692,41.117,32.692z"/>
	<path fill-rule="evenodd" clip-rule="evenodd" d="M9.648,3.019c0.626,0,1.225,0,1.85,0c0,0.631,0,1.232,0,1.867
		c-0.618,0-1.218,0-1.85,0C9.648,4.271,9.648,3.671,9.648,3.019z"/>
	<path fill-rule="evenodd" clip-rule="evenodd" d="M3.028,34.509c0.669,0,1.255,0,1.864,0c0,0.631,0,1.231,0,1.853
		c-0.631,0-1.232,0-1.864,0C3.028,35.736,3.028,35.125,3.028,34.509z"/>
	<path fill-rule="evenodd" clip-rule="evenodd" d="M41.117,34.496c0.637,0,1.226,0,1.854,0c0,0.609,0,1.207,0,1.848
		c-0.596,0-1.209,0-1.854,0C41.117,35.749,41.117,35.149,41.117,34.496z"/>
	<path fill-rule="evenodd" clip-rule="evenodd" d="M13.296,4.884c0-0.644,0-1.244,0-1.87c0.616,0,1.202,0,1.831,0
		c0,0.609,0,1.223,0,1.87C14.538,4.884,13.938,4.884,13.296,4.884z"/>
	<path fill-rule="evenodd" clip-rule="evenodd" d="M26.059,3.015c0,0.633,0,1.234,0,1.87c-0.61,0-1.209,0-1.843,0
		c0-0.623,0-1.233,0-1.87C24.825,3.015,25.41,3.015,26.059,3.015z"/>
	<path fill-rule="evenodd" clip-rule="evenodd" d="M36.958,4.887c-0.627,0-1.227,0-1.848,0c0-0.632,0-1.233,0-1.866
		c0.618,0,1.216,0,1.848,0C36.958,3.632,36.958,4.231,36.958,4.887z"/>
	<path fill-rule="evenodd" clip-rule="evenodd" d="M4.885,10.88c-0.669,0-1.255,0-1.866,0c0-0.625,0-1.224,0-1.85
		c0.629,0,1.23,0,1.866,0C4.885,9.653,4.885,10.265,4.885,10.88z"/>
	<path fill-rule="evenodd" clip-rule="evenodd" d="M41.114,10.873c0-0.62,0-1.22,0-1.846c0.63,0,1.23,0,1.865,0
		c0,0.615,0,1.213,0,1.846C42.374,10.873,41.774,10.873,41.114,10.873z"/>
	<path fill-rule="evenodd" clip-rule="evenodd" d="M11.505,41.113c0,0.638,0,1.227,0,1.856c-0.611,0-1.208,0-1.848,0
		c0-0.598,0-1.21,0-1.856C10.253,41.113,10.853,41.113,11.505,41.113z"/>
	<path fill-rule="evenodd" clip-rule="evenodd" d="M13.283,42.981c0-0.642,0-1.23,0-1.859c0.613,0,1.21,0,1.848,0
		c0,0.606,0,1.218,0,1.859C14.527,42.981,13.929,42.981,13.283,42.981z"/>
	<path fill-rule="evenodd" clip-rule="evenodd" d="M3.034,16.281c0.632,0,1.222,0,1.85,0c0,0.613,0,1.212,0,1.857
		c-0.612,0-1.222,0-1.85,0C3.034,17.511,3.034,16.901,3.034,16.281z"/>
	<path fill-rule="evenodd" clip-rule="evenodd" d="M24.196,42.98c0-0.64,0-1.229,0-1.858c0.626,0,1.236,0,1.864,0
		c0,0.626,0,1.227,0,1.858C25.439,42.98,24.842,42.98,24.196,42.98z"/>
	<path fill-rule="evenodd" clip-rule="evenodd" d="M29.701,42.981c-0.626,0-1.225,0-1.852,0c0-0.63,0-1.23,0-1.865
		c0.619,0,1.218,0,1.852,0C29.701,41.728,29.701,42.327,29.701,42.981z"/>
	<path fill-rule="evenodd" clip-rule="evenodd" d="M4.885,21.792c-0.637,0-1.239,0-1.867,0c0-0.625,0-1.223,0-1.848
		c0.628,0,1.229,0,1.867,0C4.885,20.549,4.885,21.147,4.885,21.792z"/>
	<path fill-rule="evenodd" clip-rule="evenodd" d="M36.965,41.109c0,0.63,0,1.23,0,1.867c-0.607,0-1.206,0-1.84,0
		c0-0.616,0-1.228,0-1.867C35.74,41.109,36.34,41.109,36.965,41.109z"/>
	<path fill-rule="evenodd" clip-rule="evenodd" d="M20.558,41.086c0.563,0,1.116-0.008,1.669,0.01
		c0.074,0.002,0.205,0.131,0.207,0.205c0.018,0.552,0.01,1.105,0.01,1.682c-0.662,0-1.26,0-1.886,0
		C20.558,42.354,20.558,41.753,20.558,41.086z"/>
	<path fill-rule="evenodd" clip-rule="evenodd" d="M42.984,16.305c0,0.613,0,1.211,0,1.844c-0.622,0-1.221,0-1.859,0
		c0-0.609,0-1.206,0-1.844C41.736,16.305,42.346,16.305,42.984,16.305z"/>
	<path fill-rule="evenodd" clip-rule="evenodd" d="M29.709,3.018c0,0.629,0,1.229,0,1.865c-0.61,0-1.21,0-1.85,0
		c0-0.622,0-1.231,0-1.865C28.486,3.018,29.085,3.018,29.709,3.018z"/>
	<path fill-rule="evenodd" clip-rule="evenodd" d="M20.558,4.879c0-0.634,0-1.234,0-1.862c0.626,0,1.225,0,1.857,0
		c0,0.625,0,1.224,0,1.862C21.803,4.879,21.206,4.879,20.558,4.879z"/>
	<path fill-rule="evenodd" clip-rule="evenodd" d="M41.125,23.583c0.627,0,1.228,0,1.857,0c0,0.627,0,1.226,0,1.856
		c-0.616,0-1.217,0-1.857,0C41.125,24.831,41.125,24.22,41.125,23.583z"/>
</g>
</svg>
