<?xml version="1.0" encoding="utf-8"?>
<!-- Generator: Adobe Illustrator 16.0.0, SVG Export Plug-In . SVG Version: 6.00 Build 0)  -->
<!DOCTYPE svg PUBLIC "-//W3C//DTD SVG 1.1//EN" "http://www.w3.org/Graphics/SVG/1.1/DTD/svg11.dtd" [
	<!ENTITY ns_extend "http://ns.adobe.com/Extensibility/1.0/">
	<!ENTITY ns_ai "http://ns.adobe.com/AdobeIllustrator/10.0/">
	<!ENTITY ns_graphs "http://ns.adobe.com/Graphs/1.0/">
	<!ENTITY ns_vars "http://ns.adobe.com/Variables/1.0/">
	<!ENTITY ns_imrep "http://ns.adobe.com/ImageReplacement/1.0/">
	<!ENTITY ns_sfw "http://ns.adobe.com/SaveForWeb/1.0/">
	<!ENTITY ns_custom "http://ns.adobe.com/GenericCustomNamespace/1.0/">
	<!ENTITY ns_adobe_xpath "http://ns.adobe.com/XPath/1.0/">
]>
<svg version="1.1" id="Layer_1" xmlns:x="&ns_extend;" xmlns:i="&ns_ai;" xmlns:graph="&ns_graphs;"
	 xmlns="http://www.w3.org/2000/svg" xmlns:xlink="http://www.w3.org/1999/xlink" x="0px" y="0px" width="46px" height="46px"
	 viewBox="0 0 46 46" enable-background="new 0 0 46 46" xml:space="preserve">
<metadata>
	<sfw  xmlns="&ns_sfw;">
		<slices></slices>
		<sliceSourceBounds  width="41.278" height="46" y="-46" x="2.361" bottomLeftOrigin="true"></sliceSourceBounds>
	</sfw>
</metadata>
<path fill-rule="evenodd" clip-rule="evenodd" d="M11.319,19.353c-0.196-0.579-0.354-1.101-0.557-1.604
	c-0.049-0.122-0.239-0.243-0.378-0.262c-0.292-0.041-0.595,0-0.892-0.018c-0.471-0.029-0.78-0.319-0.784-0.792
	c-0.014-1.588-0.014-3.177,0-4.765c0.004-0.472,0.314-0.762,0.789-0.786c0.378-0.018,0.759-0.004,1.064-0.004
	c0.479-1.068,0.943-2.085,1.384-3.111c0.04-0.092-0.038-0.274-0.116-0.37c-0.179-0.216-0.399-0.396-0.588-0.604
	c-0.365-0.402-0.38-0.808-0.006-1.188c1.09-1.109,2.19-2.208,3.298-3.299c0.4-0.395,0.798-0.375,1.225,0.015
	c0.267,0.243,0.508,0.645,0.804,0.689c0.294,0.044,0.636-0.286,0.969-0.423c0.746-0.307,1.5-0.595,2.288-0.906
	c0-0.347-0.013-0.728,0.003-1.106c0.021-0.499,0.316-0.807,0.816-0.811c1.572-0.012,3.144-0.012,4.714,0
	c0.498,0.004,0.785,0.315,0.814,0.815c0.011,0.197,0.002,0.396,0.002,0.595c0.001,0.18,0,0.36,0,0.445
	c1.07,0.48,2.074,0.938,3.087,1.375c0.098,0.042,0.283-0.015,0.376-0.091c0.229-0.188,0.419-0.423,0.64-0.622
	c0.384-0.344,0.791-0.361,1.152-0.006c1.121,1.101,2.233,2.211,3.335,3.333c0.372,0.38,0.347,0.783-0.017,1.191
	c-0.25,0.281-0.655,0.533-0.71,0.847c-0.05,0.288,0.298,0.632,0.436,0.966c0.257,0.625,0.514,1.253,0.72,1.896
	c0.094,0.294,0.225,0.372,0.517,0.373c1.545,0.005,1.583,0.051,1.583,1.587c0,1.258,0.003,2.515-0.001,3.772
	c-0.003,0.708-0.283,0.979-0.999,0.987c-0.964,0.011-0.962,0.011-1.268,0.894c-0.106,0.312-0.225,0.62-0.354,0.972
	c0.191,0.069,0.369,0.143,0.553,0.199c1.233,0.372,2.474,0.719,3.695,1.125c0.282,0.094,0.589,0.335,0.731,0.593
	c1.289,2.345,2.547,4.708,3.809,7.069c0.355,0.667,0.2,1.075-0.512,1.361c-0.936,0.376-1.87,0.752-2.815,1.1
	c-0.34,0.125-0.471,0.291-0.467,0.674c0.021,2.646,0.011,5.294,0.01,7.941c0,0.747-0.108,0.908-0.82,1.158
	c-5.11,1.792-10.221,3.586-15.338,5.359c-0.301,0.103-0.698,0.111-0.997,0.007c-5.149-1.783-10.29-3.592-15.432-5.395
	c-0.646-0.228-0.765-0.395-0.765-1.092c-0.001-2.647-0.011-5.294,0.011-7.941c0.004-0.422-0.134-0.603-0.517-0.741
	c-0.931-0.337-1.846-0.722-2.764-1.093c-0.703-0.285-0.86-0.703-0.504-1.367c1.27-2.375,2.536-4.753,3.837-7.111
	c0.147-0.267,0.481-0.505,0.779-0.6C8.526,20.147,9.91,19.765,11.319,19.353z M13.466,18.717c0-0.167-0.001-0.282,0-0.397
	c0.006-0.853,0.138-1.013,0.982-1.201c0.333-0.074,0.666-0.146,0.999-0.219c-0.985-3.847-0.07-7.04,3.25-9.242
	c2.772-1.838,5.764-1.852,8.546-0.032c3.351,2.191,4.292,5.392,3.303,9.253c0.22,0.053,0.438,0.12,0.66,0.157
	c1.32,0.222,1.339,0.428,1.329,1.571c0,0.03,0.021,0.061,0.044,0.122c0.15,0.042,0.316,0.089,0.567,0.159
	c0.237-0.772,0.473-1.506,0.688-2.247c0.162-0.558,0.381-0.753,0.936-0.762c0.294-0.005,0.587-0.001,0.9-0.001
	c0-1.08,0-2.11,0-3.177c-0.324,0-0.619-0.001-0.914,0c-0.499,0.002-0.822-0.232-0.924-0.723c-0.278-1.341-0.792-2.583-1.514-3.747
	c-0.302-0.485-0.252-0.783,0.161-1.186c0.209-0.203,0.438-0.384,0.633-0.554c-0.797-0.796-1.52-1.52-2.306-2.305
	c-0.209,0.232-0.422,0.484-0.652,0.72c-0.305,0.312-0.672,0.373-1.035,0.137C27.913,4.262,26.61,3.726,25.21,3.41
	c-0.426-0.096-0.637-0.386-0.636-0.826c0.001-0.323,0-0.646,0-0.965c-1.096,0-2.114,0-3.177,0c0,0.336,0.002,0.647,0,0.958
	c-0.005,0.479-0.247,0.786-0.711,0.882c-1.358,0.281-2.617,0.801-3.787,1.539c-0.413,0.26-0.79,0.213-1.112-0.144
	c-0.206-0.227-0.382-0.48-0.553-0.698c-0.831,0.854-1.541,1.583-2.314,2.378c0.185,0.16,0.417,0.346,0.632,0.55
	c0.348,0.33,0.394,0.702,0.132,1.114c-0.742,1.168-1.266,2.426-1.546,3.785c-0.101,0.485-0.406,0.738-0.915,0.728
	c-0.305-0.006-0.611,0-0.905,0c0,1.098,0,2.117,0,3.177c0.205,0,0.383,0,0.562,0c0.967,0,1.068,0.102,1.316,1.033
	c0.176,0.662,0.417,1.307,0.636,1.984C13.088,18.828,13.258,18.778,13.466,18.717z M23.827,29.716c0,4.854,0,9.612,0,14.389
	c0.104-0.02,0.171-0.022,0.232-0.045c4.564-1.598,9.128-3.201,13.697-4.788c0.317-0.11,0.33-0.296,0.329-0.558
	c-0.005-2.002-0.003-4.003-0.003-6.004c0-0.357,0-0.716,0-1.12c-0.244,0.089-0.429,0.15-0.61,0.223
	c-3.195,1.256-6.391,2.514-9.587,3.77c-0.739,0.291-1.026,0.178-1.386-0.541c-0.804-1.612-1.604-3.225-2.407-4.836
	C24.022,30.065,23.944,29.93,23.827,29.716z M22.177,29.815c-0.025-0.007-0.05-0.015-0.075-0.021
	c-0.868,1.742-1.734,3.486-2.603,5.229c-0.372,0.745-0.646,0.852-1.422,0.546c-2.597-1.022-5.192-2.047-7.789-3.069
	c-0.777-0.306-1.557-0.604-2.38-0.924c0,2.416,0.009,4.764-0.01,7.111c-0.003,0.366,0.122,0.508,0.453,0.623
	c3.434,1.186,6.861,2.389,10.29,3.587c1.166,0.408,2.332,0.817,3.536,1.239C22.177,39.325,22.177,34.57,22.177,29.815z
	 M24.157,26.708c1.217,2.44,2.401,4.814,3.605,7.23c4.677-1.84,9.317-3.665,13.981-5.499c-0.093-0.19-0.153-0.324-0.223-0.453
	c-0.919-1.718-1.85-3.43-2.753-5.157c-0.179-0.34-0.336-0.425-0.721-0.307c-3.108,0.951-6.226,1.874-9.339,2.81
	C27.21,25.781,25.714,26.237,24.157,26.708z M4.293,28.443c4.657,1.834,9.285,3.657,13.94,5.489
	c1.219-2.426,2.415-4.806,3.617-7.198c-0.122-0.058-0.178-0.093-0.239-0.111c-4.584-1.375-9.17-2.746-13.751-4.133
	c-0.329-0.1-0.431,0.029-0.562,0.276c-0.938,1.765-1.887,3.524-2.83,5.285C4.407,28.164,4.363,28.286,4.293,28.443z M30.914,18.612
	c-1.537-0.322-3.021-0.641-4.512-0.932c-0.17-0.033-0.427,0.035-0.548,0.154c-1.69,1.642-4.03,1.644-5.716-0.006
	c-0.101-0.098-0.286-0.198-0.407-0.174c-1.551,0.306-3.097,0.635-4.656,0.96c0,1.49,0,2.939,0,4.422
	c1.037,0.299,2.074,0.599,3.174,0.917c0-0.875,0-1.677,0-2.469c0.549,0,1.051,0,1.569,0c0,0.815,0.035,1.593-0.012,2.367
	c-0.029,0.489,0.14,0.682,0.604,0.795c0.88,0.215,1.745,0.707,2.612,0.698c0.886-0.009,1.763-0.499,2.653-0.743
	c0.379-0.104,0.528-0.264,0.508-0.68c-0.04-0.817-0.013-1.637-0.013-2.451c0.564,0,1.055,0,1.584,0c0,0.829,0,1.634,0,2.518
	c1.094-0.328,2.129-0.638,3.159-0.945C30.914,21.551,30.914,20.101,30.914,18.612z M28.875,16.558
	c1.137-2.379,0.214-5.613-2.067-7.339c-2.358-1.785-5.703-1.671-7.933,0.242c-2.356,2.02-2.68,5.221-1.743,7.104
	c0.654-0.139,1.313-0.279,2.021-0.43c-0.273-1.226-0.103-2.356,0.629-3.362c0.734-1.01,1.74-1.557,2.981-1.64
	c1.034-0.069,1.969,0.233,2.758,0.904c1.271,1.082,1.652,2.485,1.329,4.103C27.558,16.285,28.202,16.418,28.875,16.558z
	 M25.376,15.062c-0.008-1.289-1.092-2.359-2.382-2.351c-1.323,0.008-2.391,1.089-2.378,2.407c0.013,1.294,1.084,2.353,2.382,2.352
	C24.314,17.469,25.383,16.386,25.376,15.062z M35.925,21.503c-0.001-0.04-0.001-0.08-0.002-0.119
	c-1.118-0.331-2.236-0.662-3.37-0.997c0,0.749,0,1.415,0,2.128C33.703,22.17,34.813,21.837,35.925,21.503z M13.45,20.372
	c-1.143,0.346-2.254,0.682-3.365,1.018c0.005,0.039,0.011,0.079,0.017,0.118c1.106,0.333,2.212,0.665,3.348,1.006
	C13.45,21.777,13.45,21.105,13.45,20.372z"/>
</svg>
