<?xml version="1.0" encoding="utf-8"?>
<!-- Generator: Adobe Illustrator 16.0.0, SVG Export Plug-In . SVG Version: 6.00 Build 0)  -->
<!DOCTYPE svg PUBLIC "-//W3C//DTD SVG 1.1//EN" "http://www.w3.org/Graphics/SVG/1.1/DTD/svg11.dtd" [
	<!ENTITY ns_extend "http://ns.adobe.com/Extensibility/1.0/">
	<!ENTITY ns_ai "http://ns.adobe.com/AdobeIllustrator/10.0/">
	<!ENTITY ns_graphs "http://ns.adobe.com/Graphs/1.0/">
	<!ENTITY ns_vars "http://ns.adobe.com/Variables/1.0/">
	<!ENTITY ns_imrep "http://ns.adobe.com/ImageReplacement/1.0/">
	<!ENTITY ns_sfw "http://ns.adobe.com/SaveForWeb/1.0/">
	<!ENTITY ns_custom "http://ns.adobe.com/GenericCustomNamespace/1.0/">
	<!ENTITY ns_adobe_xpath "http://ns.adobe.com/XPath/1.0/">
]>
<svg version="1.1" id="Layer_1" xmlns:x="&ns_extend;" xmlns:i="&ns_ai;" xmlns:graph="&ns_graphs;"
	 xmlns="http://www.w3.org/2000/svg" xmlns:xlink="http://www.w3.org/1999/xlink" x="0px" y="0px" width="80px" height="80px"
	 viewBox="0 0 80 80" enable-background="new 0 0 80 80" xml:space="preserve">
<metadata>
	<sfw  xmlns="&ns_sfw;">
		<slices></slices>
		<sliceSourceBounds  width="64" height="64.023" x="810.5" y="563.488" bottomLeftOrigin="true"></sliceSourceBounds>
	</sfw>
</metadata>
<g>
	<path fill-rule="evenodd" clip-rule="evenodd" fill="#FFFFFF" d="M53.726,71.928c-0.035-0.18-0.207-0.184-0.327-0.246
		c-1.088-0.58-1.627-1.691-1.354-2.801c0.292-1.184,1.241-1.938,2.493-1.939c2.907-0.008,5.814-0.004,8.606-0.004
		C46.475,50.27,29.756,33.551,13.046,16.84c-0.042,0.06,0.031,0.27,0.031,0.463c-0.006,2.639-0.003,5.279-0.004,7.918
		c-0.001,1.472-0.682,2.432-1.942,2.743c-1.162,0.287-2.199-0.26-2.878-1.521c-0.04-0.074-0.069-0.15-0.168-0.158
		c0-5.487,0-10.974,0-16.461c0.448-0.77,1.029-1.397,1.871-1.746c5.404,0,10.808,0,16.211,0c0.311,0.183,0.645,0.336,0.93,0.553
		c0.828,0.63,1.142,1.742,0.807,2.742c-0.336,1.004-1.264,1.685-2.372,1.689c-2.721,0.011-5.442,0.004-8.164,0.004
		c-0.205,0-0.409,0-0.521,0C33.53,29.75,50.245,46.465,66.976,63.195c0.055-0.047-0.038-0.244-0.037-0.412
		c0.007-2.68,0.004-5.359,0.006-8.039c0.001-1.486,0.793-2.52,2.098-2.744c1.267-0.219,2.344,0.521,2.834,1.943
		c0.005,0.014,0.037,0.018,0.056,0.025c0,5.363,0,10.725,0,16.088c-0.372,0.875-0.999,1.494-1.87,1.871
		C64.616,71.928,59.171,71.928,53.726,71.928z"/>
	<path fill-rule="evenodd" clip-rule="evenodd" fill="#FFFFFF" d="M8.084,53.721c0.198-0.053,0.194-0.248,0.269-0.385
		c0.56-1.033,1.692-1.563,2.775-1.297c1.164,0.287,1.934,1.223,1.94,2.428c0.013,2.93,0.004,5.857,0.004,8.832
		c0.26-0.063,0.374-0.27,0.52-0.414c5.806-5.799,11.611-11.6,17.405-17.408c0.773-0.775,1.653-1.109,2.709-0.787
		c1.634,0.5,2.265,2.467,1.249,3.842c-0.184,0.248-0.411,0.467-0.63,0.688c-5.698,5.701-11.397,11.4-17.1,17.098
		c-0.173,0.172-0.375,0.318-0.574,0.484c0.227,0.213,0.42,0.133,0.591,0.133c2.659,0.006,5.318,0.004,7.978,0.006
		c1.514,0,2.526,0.748,2.782,2.051c0.238,1.211-0.413,2.246-1.779,2.838c-0.028,0.012-0.038,0.064-0.056,0.1
		c-5.445,0-10.891,0-16.336,0c-0.741-0.424-1.325-1.004-1.746-1.746C8.084,64.693,8.084,59.207,8.084,53.721z"/>
	<path fill-rule="evenodd" clip-rule="evenodd" fill="#FFFFFF" d="M71.932,26.161c-0.186,0.314-0.342,0.652-0.563,0.939
		c-0.638,0.826-1.749,1.134-2.745,0.794c-1.001-0.342-1.672-1.271-1.676-2.382c-0.01-2.721-0.004-5.442-0.004-8.163
		c0-0.202,0-0.404,0-0.606c-0.05-0.04-0.101-0.08-0.15-0.121c-0.13,0.173-0.24,0.364-0.392,0.516
		c-5.666,5.672-11.336,11.34-17.006,17.009c-0.235,0.235-0.463,0.479-0.716,0.694c-0.993,0.843-2.487,0.777-3.392-0.14
		c-0.89-0.902-0.953-2.356-0.141-3.346c0.145-0.176,0.313-0.333,0.474-0.495c5.728-5.729,11.455-11.457,17.186-17.182
		c0.171-0.17,0.383-0.3,0.575-0.448c-0.031-0.054-0.063-0.109-0.094-0.163c-0.529,0-1.059,0-1.587,0c-2.306,0-4.611,0.001-6.917,0
		c-1.505-0.001-2.526-0.763-2.773-2.064c-0.231-1.221,0.431-2.26,1.794-2.824c0.024-0.01,0.03-0.065,0.046-0.1
		c5.403,0,10.807,0,16.211,0c0.907,0.399,1.571,1.026,1.87,1.995C71.932,15.437,71.932,20.799,71.932,26.161z"/>
	<path fill-rule="evenodd" clip-rule="evenodd" fill="#FFFFFF" d="M71.932,10.075c-0.299-0.969-0.963-1.596-1.87-1.995
		c0.613,0,1.496-0.242,1.77,0.063c0.315,0.351,0.091,1.185,0.101,1.809C71.933,9.993,71.932,10.034,71.932,10.075z"/>
	<path fill-rule="evenodd" clip-rule="evenodd" fill="#FFFFFF" d="M70.062,71.928c0.871-0.377,1.498-0.996,1.87-1.871
		c0,0.539-0.014,1.08,0.007,1.621c0.009,0.217-0.039,0.264-0.257,0.256C71.143,71.912,70.602,71.928,70.062,71.928z"/>
	<path fill-rule="evenodd" clip-rule="evenodd" fill="#FFFFFF" d="M9.955,8.08C9.114,8.428,8.533,9.056,8.084,9.825
		c0-0.572-0.225-1.396,0.059-1.65C8.473,7.881,9.25,8.089,9.833,8.08C9.874,8.079,9.914,8.08,9.955,8.08z"/>
	<path fill-rule="evenodd" clip-rule="evenodd" fill="#FFFFFF" d="M8.084,70.182c0.421,0.742,1.005,1.322,1.746,1.746
		c-0.582,0-1.391,0.227-1.682-0.064S8.084,70.764,8.084,70.182z"/>
</g>
</svg>
