<?xml version="1.0" encoding="utf-8"?>
<!-- Generator: Adobe Illustrator 16.0.0, SVG Export Plug-In . SVG Version: 6.00 Build 0)  -->
<!DOCTYPE svg PUBLIC "-//W3C//DTD SVG 1.1//EN" "http://www.w3.org/Graphics/SVG/1.1/DTD/svg11.dtd" [
	<!ENTITY ns_extend "http://ns.adobe.com/Extensibility/1.0/">
	<!ENTITY ns_ai "http://ns.adobe.com/AdobeIllustrator/10.0/">
	<!ENTITY ns_graphs "http://ns.adobe.com/Graphs/1.0/">
	<!ENTITY ns_vars "http://ns.adobe.com/Variables/1.0/">
	<!ENTITY ns_imrep "http://ns.adobe.com/ImageReplacement/1.0/">
	<!ENTITY ns_sfw "http://ns.adobe.com/SaveForWeb/1.0/">
	<!ENTITY ns_custom "http://ns.adobe.com/GenericCustomNamespace/1.0/">
	<!ENTITY ns_adobe_xpath "http://ns.adobe.com/XPath/1.0/">
]>
<svg version="1.1" id="Layer_1" xmlns:x="&ns_extend;" xmlns:i="&ns_ai;" xmlns:graph="&ns_graphs;"
	 xmlns="http://www.w3.org/2000/svg" xmlns:xlink="http://www.w3.org/1999/xlink" x="0px" y="0px" width="80px" height="80px"
	 viewBox="0 0 80 80" enable-background="new 0 0 80 80" xml:space="preserve">
<metadata>
	<sfw  xmlns="&ns_sfw;">
		<slices></slices>
		<sliceSourceBounds  width="64" height="64" x="810.5" y="563.5" bottomLeftOrigin="true"></sliceSourceBounds>
	</sfw>
</metadata>
<g>
	<path fill-rule="evenodd" clip-rule="evenodd" fill="#FFFFFF" d="M32.625,8c4.917,0,9.833,0,14.75,0
		c0.865,0.384,1.143,1.059,1.132,1.983c-0.034,2.958-0.015,5.917-0.008,8.875c0,0.17-0.091,0.37,0.104,0.535
		c2.227-2.227,4.448-4.451,6.672-6.672c0.996-0.996,1.707-0.995,2.712,0.009c3.095,3.092,6.188,6.186,9.28,9.28
		c1.002,1.003,1.007,1.722,0.016,2.714c-2.091,2.094-4.184,4.184-6.274,6.276c-0.138,0.137-0.265,0.284-0.466,0.502
		c0.322,0,0.524,0,0.728,0c2.916,0,5.833,0.022,8.749-0.013c0.925-0.011,1.596,0.273,1.98,1.134c0,4.958,0,9.917,0,14.876
		c-0.499,0.812-1.229,1.027-2.162,1.013c-2.892-0.047-5.785-0.02-8.679-0.013c-0.173,0-0.366-0.078-0.591,0.126
		c0.164,0.141,0.328,0.265,0.472,0.407c2.077,2.073,4.153,4.148,6.228,6.225c1.002,1.004,1.008,1.723,0.018,2.712
		c-3.089,3.093-6.18,6.184-9.271,9.273c-1.034,1.034-1.735,1.039-2.755,0.02c-2.091-2.09-4.18-4.181-6.271-6.27
		c-0.135-0.134-0.283-0.254-0.494-0.443c0,3.235-0.02,6.354,0.013,9.473c0.011,0.924-0.271,1.595-1.132,1.977
		c-4.959,0-9.917,0-14.875,0c-0.846-0.51-1.025-1.28-1.011-2.223c0.043-2.872,0.018-5.744,0.012-8.617
		c0-0.173,0.078-0.366-0.16-0.626c-0.145,0.193-0.262,0.391-0.42,0.549c-2.086,2.095-4.174,4.185-6.268,6.271
		c-0.888,0.884-1.66,0.89-2.533,0.018c-3.153-3.146-6.303-6.296-9.451-9.448c-0.934-0.934-0.923-1.672,0.023-2.62
		c2.089-2.091,4.18-4.18,6.268-6.271c0.149-0.149,0.287-0.309,0.497-0.536c-3.184,0-6.241-0.028-9.296,0.017
		C9.229,48.526,8.498,48.314,8,47.501c0-5,0-10.001,0-15.001c0.499-0.813,1.229-1.027,2.161-1.013
		c2.871,0.046,5.744,0.019,8.616,0.013c0.194-0.001,0.405,0.076,0.666-0.121c-0.188-0.163-0.366-0.299-0.523-0.456
		c-2.047-2.044-4.093-4.091-6.138-6.137c-1.068-1.068-1.076-1.746-0.025-2.797c3.09-3.092,6.181-6.182,9.272-9.271
		c0.993-0.992,1.707-0.989,2.71,0.014c2.091,2.088,4.18,4.18,6.271,6.268c0.135,0.135,0.284,0.256,0.495,0.444
		c0-3.229,0.021-6.347-0.013-9.465C31.482,9.053,31.764,8.384,32.625,8z M40.032,11c-1.667,0-3.333,0.018-5-0.012
		c-0.451-0.008-0.54,0.126-0.538,0.554c0.02,3.083-0.016,6.166,0.023,9.249c0.016,1.244-0.792,1.761-1.716,2.191
		c-1.061,0.493-1.701,0.355-2.483-0.427c-2.18-2.181-4.368-4.354-6.532-6.55c-0.32-0.325-0.478-0.351-0.814-0.009
		c-2.311,2.345-4.636,4.673-6.984,6.979c-0.356,0.351-0.288,0.509,0.023,0.815c2.178,2.152,4.321,4.341,6.513,6.478
		c0.663,0.647,0.754,1.334,0.512,2.154c-0.144,0.485-0.372,0.922-0.669,1.327c-0.382,0.519-0.856,0.773-1.538,0.767
		c-3.062-0.028-6.125,0-9.186-0.024c-0.49-0.004-0.665,0.071-0.66,0.622c0.031,3.271,0.026,6.542,0.004,9.812
		c-0.003,0.458,0.095,0.586,0.573,0.582c2.937-0.026,5.874-0.013,8.811-0.013c1.49,0,2.27,0.579,2.73,2.018
		c0.263,0.826,0.137,1.516-0.518,2.156c-2.216,2.172-4.392,4.387-6.6,6.567c-0.305,0.301-0.327,0.455-0.009,0.77
		c2.357,2.326,4.7,4.667,7.027,7.025c0.323,0.327,0.474,0.276,0.768-0.021c2.166-2.193,4.369-4.35,6.521-6.558
		c0.612-0.629,1.271-0.726,2.042-0.524c0.484,0.127,0.931,0.351,1.341,0.644c0.56,0.399,0.852,0.891,0.845,1.625
		c-0.032,3.062-0.005,6.124-0.022,9.187c-0.002,0.449,0.059,0.635,0.586,0.63c3.292-0.028,6.583-0.023,9.874-0.004
		c0.434,0.003,0.551-0.099,0.549-0.542c-0.022-3.083,0.014-6.166-0.023-9.248c-0.017-1.277,0.833-1.782,1.775-2.211
		c1.049-0.477,1.646-0.34,2.424,0.438c2.195,2.193,4.396,4.384,6.579,6.59c0.276,0.278,0.424,0.314,0.722,0.012
		c2.343-2.371,4.699-4.728,7.07-7.07c0.305-0.302,0.258-0.448-0.018-0.722c-2.205-2.184-4.38-4.399-6.6-6.567
		c-0.608-0.594-0.705-1.24-0.517-1.988c0.132-0.527,0.377-1.008,0.706-1.446c0.386-0.515,0.854-0.777,1.536-0.771
		c3.103,0.028,6.207,0.002,9.311,0.023c0.448,0.003,0.541-0.122,0.538-0.551c-0.02-3.291-0.024-6.583,0.004-9.874
		c0.005-0.528-0.18-0.589-0.629-0.586c-3.083,0.017-6.167-0.017-9.249,0.022c-1.15,0.015-1.688-0.664-2.083-1.561
		c-0.496-1.129-0.374-1.868,0.381-2.624c2.193-2.196,4.382-4.397,6.592-6.577c0.317-0.313,0.299-0.465-0.008-0.768
		c-2.34-2.314-4.668-4.641-6.98-6.983c-0.316-0.321-0.474-0.358-0.813-0.012c-2.162,2.198-4.368,4.352-6.521,6.558
		c-0.593,0.609-1.235,0.714-1.984,0.531c-0.507-0.124-0.97-0.357-1.399-0.663c-0.563-0.402-0.846-0.896-0.838-1.628
		c0.031-3.082,0.004-6.166,0.023-9.248c0.002-0.424-0.082-0.564-0.535-0.556C43.323,11.019,41.678,11,40.032,11z"/>
	<path fill-rule="evenodd" clip-rule="evenodd" fill="#FFFFFF" d="M55.616,39.976c0.016,8.598-6.976,15.617-15.576,15.641
		c-8.624,0.022-15.66-7-15.656-15.623c0.004-8.602,7.006-15.604,15.607-15.609C48.593,24.38,55.6,31.372,55.616,39.976z
		 M27.384,40.008c0.004,6.954,5.681,12.618,12.638,12.607c6.93-0.011,12.58-5.66,12.593-12.591
		c0.013-6.959-5.649-12.635-12.608-12.639C33.05,27.381,27.381,33.05,27.384,40.008z"/>
	<path fill-rule="evenodd" clip-rule="evenodd" fill="#FFFFFF" d="M41.499,36.5c0.001,1.146,0.005,2.292-0.001,3.438
		c-0.004,0.95-0.604,1.557-1.546,1.562c-1.103,0.007-2.208,0.007-3.312-0.001c-1-0.006-1.647-0.586-1.659-1.472
		c-0.013-0.917,0.638-1.515,1.669-1.525c0.458-0.005,0.918-0.027,1.374,0.008c0.381,0.028,0.491-0.079,0.485-0.475
		c-0.025-1.666-0.02-3.333-0.007-4.999c0.009-1.064,0.803-1.742,1.789-1.559c0.723,0.134,1.194,0.712,1.204,1.524
		C41.51,34.167,41.499,35.333,41.499,36.5z"/>
</g>
</svg>
