<?xml version="1.0" encoding="utf-8"?>
<!-- Generator: Adobe Illustrator 16.0.0, SVG Export Plug-In . SVG Version: 6.00 Build 0)  -->
<!DOCTYPE svg PUBLIC "-//W3C//DTD SVG 1.1//EN" "http://www.w3.org/Graphics/SVG/1.1/DTD/svg11.dtd" [
	<!ENTITY ns_extend "http://ns.adobe.com/Extensibility/1.0/">
	<!ENTITY ns_ai "http://ns.adobe.com/AdobeIllustrator/10.0/">
	<!ENTITY ns_graphs "http://ns.adobe.com/Graphs/1.0/">
	<!ENTITY ns_vars "http://ns.adobe.com/Variables/1.0/">
	<!ENTITY ns_imrep "http://ns.adobe.com/ImageReplacement/1.0/">
	<!ENTITY ns_sfw "http://ns.adobe.com/SaveForWeb/1.0/">
	<!ENTITY ns_custom "http://ns.adobe.com/GenericCustomNamespace/1.0/">
	<!ENTITY ns_adobe_xpath "http://ns.adobe.com/XPath/1.0/">
]>
<svg version="1.1" id="Layer_1" xmlns:x="&ns_extend;" xmlns:i="&ns_ai;" xmlns:graph="&ns_graphs;"
	 xmlns="http://www.w3.org/2000/svg" xmlns:xlink="http://www.w3.org/1999/xlink" x="0px" y="0px" width="80px" height="80px"
	 viewBox="0 0 80 80" enable-background="new 0 0 80 80" xml:space="preserve">
<metadata>
	<sfw  xmlns="&ns_sfw;">
		<slices></slices>
		<sliceSourceBounds  width="64" height="64.001" x="810.5" y="563.5" bottomLeftOrigin="true"></sliceSourceBounds>
	</sfw>
</metadata>
<path fill-rule="evenodd" clip-rule="evenodd" fill="#FFFFFF" d="M35.993,13.077c0.677,0,1.355-0.019,2.032,0.007
	c0.351,0.014,0.47-0.078,0.46-0.447c-0.026-0.973-0.014-1.947-0.008-2.92C38.484,8.68,39.109,7.989,40.018,8
	c0.884,0.01,1.497,0.689,1.505,1.687c0.008,0.973,0.014,1.947-0.005,2.92c-0.006,0.326,0.031,0.486,0.429,0.479
	c1.418-0.026,2.836-0.022,4.254-0.001c0.351,0.005,0.416-0.117,0.41-0.432c-0.018-0.995-0.013-1.989-0.004-2.984
	c0.009-0.99,0.637-1.67,1.522-1.669c0.885,0,1.512,0.681,1.521,1.671c0.009,0.995,0.014,1.989-0.005,2.984
	c-0.006,0.318,0.063,0.436,0.412,0.431c1.418-0.021,2.836-0.025,4.254,0.001c0.4,0.007,0.434-0.156,0.427-0.481
	c-0.019-0.931-0.009-1.862-0.006-2.793C54.735,8.703,55.315,8.009,56.241,8c0.946-0.01,1.536,0.695,1.538,1.845
	c0.002,0.931,0.02,1.863-0.008,2.793c-0.012,0.372,0.114,0.444,0.461,0.448c1.286,0.013,2.577-0.115,3.849,0.234
	c2.727,0.749,4.736,3.25,4.831,6.077c0.026,0.803,0.026,1.609,0.004,2.412c-0.01,0.338,0.095,0.426,0.424,0.419
	c0.994-0.021,1.989-0.014,2.983-0.006c0.993,0.009,1.673,0.631,1.677,1.515c0.004,0.885-0.677,1.519-1.664,1.529
	c-0.974,0.01-1.947,0.018-2.92-0.006c-0.366-0.009-0.514,0.051-0.504,0.471c0.031,1.375,0.033,2.752-0.001,4.127
	c-0.011,0.452,0.16,0.507,0.54,0.498c0.952-0.023,1.905-0.014,2.857-0.006c0.999,0.008,1.679,0.617,1.691,1.5
	c0.013,0.908-0.678,1.538-1.712,1.544c-0.974,0.007-1.948,0.018-2.921-0.007c-0.362-0.01-0.457,0.1-0.451,0.456
	c0.02,1.396,0.021,2.793-0.001,4.19c-0.006,0.365,0.104,0.459,0.458,0.45c0.994-0.023,1.989-0.016,2.983-0.005
	c0.979,0.01,1.659,0.661,1.644,1.547c-0.016,0.861-0.685,1.485-1.633,1.496c-0.995,0.012-1.99,0.016-2.984-0.005
	c-0.34-0.007-0.475,0.06-0.469,0.44c0.024,1.396,0.03,2.794-0.002,4.189c-0.01,0.429,0.152,0.473,0.509,0.466
	c0.973-0.021,1.947-0.016,2.921-0.006c0.984,0.01,1.665,0.647,1.658,1.532s-0.687,1.503-1.682,1.512
	c-0.994,0.009-1.989,0.017-2.984-0.006c-0.339-0.008-0.421,0.098-0.417,0.425c0.017,1.418,0.019,2.836-0.001,4.254
	c-0.005,0.342,0.102,0.423,0.426,0.416c0.995-0.02,1.989-0.014,2.984-0.005c0.991,0.008,1.672,0.633,1.674,1.518
	s-0.679,1.517-1.666,1.526c-0.932,0.01-1.865,0.043-2.793-0.014c-0.568-0.035-0.635,0.178-0.631,0.671
	c0.01,1.201,0.102,2.406-0.221,3.595c-0.76,2.8-3.26,4.803-6.162,4.886c-0.72,0.02-1.442,0.048-2.158-0.006
	c-0.533-0.039-0.615,0.171-0.599,0.634c0.032,0.931,0.018,1.862,0.008,2.794c-0.011,0.986-0.646,1.667-1.53,1.662
	c-0.883-0.004-1.506-0.688-1.514-1.68c-0.009-0.994-0.017-1.989,0.006-2.983c0.007-0.336-0.093-0.425-0.423-0.421
	c-1.418,0.019-2.837,0.019-4.254,0c-0.338-0.005-0.426,0.097-0.419,0.425c0.021,0.994,0.015,1.989,0.006,2.983
	c-0.01,0.993-0.633,1.673-1.518,1.676c-0.883,0.003-1.518-0.681-1.526-1.666c-0.01-0.995-0.013-1.99,0.004-2.984
	c0.005-0.312-0.053-0.44-0.408-0.435c-1.418,0.022-2.836,0.024-4.254-0.001c-0.394-0.007-0.437,0.147-0.431,0.477
	c0.019,0.974,0.013,1.947,0.005,2.921c-0.009,0.999-0.62,1.678-1.504,1.688c-0.906,0.012-1.534-0.682-1.541-1.717
	c-0.006-0.974-0.019-1.948,0.008-2.921c0.01-0.37-0.113-0.451-0.461-0.446c-1.396,0.02-2.794,0.021-4.19-0.001
	c-0.372-0.006-0.453,0.116-0.445,0.463c0.022,0.973,0.014,1.947,0.006,2.921c-0.008,1.03-0.646,1.721-1.555,1.701
	c-0.88-0.019-1.483-0.701-1.49-1.704c-0.007-0.994-0.012-1.989,0.005-2.983c0.005-0.297-0.068-0.399-0.382-0.396
	c-1.439,0.017-2.878,0.022-4.317-0.004c-0.385-0.007-0.393,0.168-0.39,0.451c0.01,0.974,0.009,1.947,0.002,2.921
	C25.26,71.32,24.632,72.012,23.725,72c-0.882-0.011-1.495-0.693-1.503-1.691c-0.007-0.952-0.03-1.905,0.011-2.856
	c0.02-0.466-0.141-0.54-0.565-0.54c-1.222-0.003-2.449,0.11-3.66-0.214c-2.862-0.769-4.866-3.292-4.926-6.259
	c-0.015-0.741-0.025-1.482,0.004-2.222c0.015-0.375-0.117-0.453-0.463-0.445c-0.973,0.022-1.947,0.014-2.92,0.006
	C8.672,57.771,7.981,57.134,8,56.223c0.019-0.882,0.698-1.482,1.704-1.489c0.995-0.007,1.99-0.012,2.984,0.005
	c0.296,0.006,0.4-0.066,0.396-0.381c-0.017-1.439-0.023-2.879,0.003-4.317c0.007-0.385-0.166-0.395-0.451-0.392
	c-0.974,0.01-1.947,0.009-2.92,0.003C8.679,49.644,7.989,49.019,8,48.108c0.011-0.884,0.69-1.494,1.689-1.503
	c0.974-0.007,1.947-0.013,2.92,0.006c0.33,0.006,0.483-0.039,0.477-0.432c-0.025-1.418-0.023-2.836-0.001-4.254
	c0.006-0.356-0.125-0.412-0.435-0.407c-0.995,0.016-1.99,0.014-2.984,0.004C8.678,41.513,7.998,40.882,8,39.995
	c0.002-0.885,0.682-1.508,1.675-1.517c0.995-0.009,1.99-0.015,2.984,0.006c0.327,0.006,0.429-0.08,0.425-0.418
	c-0.019-1.418-0.018-2.836-0.001-4.254c0.004-0.33-0.083-0.431-0.419-0.423c-0.995,0.022-1.99,0.015-2.984,0.006
	C8.686,33.386,8.006,32.767,8,31.881s0.675-1.521,1.662-1.531c0.952-0.009,1.907-0.037,2.856,0.012
	c0.508,0.026,0.579-0.156,0.569-0.601c-0.03-1.291-0.044-2.583,0.005-3.873c0.021-0.56-0.167-0.655-0.668-0.632
	c-0.908,0.042-1.819,0.018-2.729,0.01c-1.001-0.008-1.68-0.615-1.694-1.5c-0.015-0.91,0.676-1.538,1.711-1.545
	c0.974-0.006,1.948-0.018,2.92,0.007c0.36,0.009,0.451-0.098,0.455-0.455c0.016-1.264-0.119-2.534,0.22-3.786
	c0.767-2.833,3.276-4.834,6.21-4.905c0.761-0.019,1.524-0.021,2.285,0c0.324,0.009,0.436-0.073,0.427-0.416
	c-0.023-0.994-0.014-1.989-0.006-2.984C22.23,8.687,22.846,8.008,23.731,8c0.886-0.008,1.525,0.672,1.535,1.656
	c0.01,0.973,0.016,1.947-0.004,2.92c-0.007,0.351,0.028,0.522,0.461,0.512c1.396-0.032,2.794-0.026,4.19-0.002
	c0.376,0.006,0.451-0.121,0.443-0.465c-0.021-0.973-0.013-1.947-0.006-2.92c0.007-1.004,0.609-1.683,1.493-1.7
	c0.909-0.018,1.544,0.673,1.552,1.703c0.007,0.974,0.016,1.948-0.006,2.92c-0.008,0.349,0.074,0.478,0.446,0.462
	C34.553,13.055,35.273,13.077,35.993,13.077z M16.125,40.004c0,6.667-0.001,13.332,0,19.998c0,2.403,1.467,3.873,3.867,3.873
	c13.331,0.001,26.662,0.001,39.993,0c2.438,0,3.89-1.461,3.89-3.916c0.001-13.31,0.001-26.62,0-39.93c0-2.449-1.454-3.904-3.9-3.904
	c-13.331-0.001-26.662-0.001-39.992,0c-2.397,0-3.856,1.47-3.857,3.883C16.124,26.674,16.125,33.339,16.125,40.004z M34.59,51.63
	c-1.657-1.425-2.908-3.107-3.713-5.101c-1.894-4.692-0.627-9.486,3.425-13.031c1.707-1.494,3.593-2.743,5.463-4.013
	c0.526-0.357,1.035-0.736,1.461-1.211c1.047-1.165,1.087-2.235,0.11-3.464c-0.351-0.441-0.549-0.902-0.393-1.462
	c0.284-1.019,1.413-1.444,2.34-0.858c0.859,0.543,1.642,1.193,2.402,1.866c3.774,3.34,6.752,7.222,8.071,12.178
	c1.137,4.272,0.861,8.381-1.689,12.148c-3.17,4.68-8.96,6.603-14.299,4.752c-0.339-0.117-0.527-0.056-0.777,0.162
	c-2.803,2.44-6.01,4.037-9.697,4.634c-1.044,0.17-1.862-0.315-2.009-1.235c-0.142-0.881,0.458-1.598,1.488-1.765
	C29.7,54.758,32.273,53.527,34.59,51.63z M39.663,50.881c4.015,0.696,7.208-0.467,9.616-3.568c2.171-2.795,2.44-6.007,1.701-9.344
	c-0.878-3.969-3.081-7.181-5.909-10.011c-0.036-0.036-0.113-0.03-0.181-0.045c-0.045,0.13-0.083,0.249-0.127,0.365
	c-0.658,1.727-1.981,2.858-3.457,3.85c-1.421,0.955-2.843,1.911-4.181,2.981c-1.212,0.97-2.335,2.021-3.09,3.408
	c-2.169,3.981-0.343,8.342,2.51,10.771c0.272,0.231,0.391,0.087,0.554-0.103c0.731-0.852,1.419-1.736,2.012-2.688
	c1.754-2.815,3.212-5.746,3.569-9.114c0.081-0.761,0.815-1.293,1.592-1.243c0.992,0.065,1.549,0.884,1.397,2.076
	c-0.344,2.723-1.383,5.209-2.634,7.619C42.12,47.598,41.01,49.237,39.663,50.881z"/>
</svg>
