<?xml version="1.0" encoding="utf-8"?>
<!-- Generator: Adobe Illustrator 16.0.0, SVG Export Plug-In . SVG Version: 6.00 Build 0)  -->
<!DOCTYPE svg PUBLIC "-//W3C//DTD SVG 1.1//EN" "http://www.w3.org/Graphics/SVG/1.1/DTD/svg11.dtd" [
	<!ENTITY ns_extend "http://ns.adobe.com/Extensibility/1.0/">
	<!ENTITY ns_ai "http://ns.adobe.com/AdobeIllustrator/10.0/">
	<!ENTITY ns_graphs "http://ns.adobe.com/Graphs/1.0/">
	<!ENTITY ns_vars "http://ns.adobe.com/Variables/1.0/">
	<!ENTITY ns_imrep "http://ns.adobe.com/ImageReplacement/1.0/">
	<!ENTITY ns_sfw "http://ns.adobe.com/SaveForWeb/1.0/">
	<!ENTITY ns_custom "http://ns.adobe.com/GenericCustomNamespace/1.0/">
	<!ENTITY ns_adobe_xpath "http://ns.adobe.com/XPath/1.0/">
]>
<svg version="1.1" id="Layer_1" xmlns:x="&ns_extend;" xmlns:i="&ns_ai;" xmlns:graph="&ns_graphs;"
	 xmlns="http://www.w3.org/2000/svg" xmlns:xlink="http://www.w3.org/1999/xlink" x="0px" y="0px" width="80px" height="80px"
	 viewBox="0 0 80 80" enable-background="new 0 0 80 80" xml:space="preserve">
<metadata>
	<sfw  xmlns="&ns_sfw;">
		<slices></slices>
		<sliceSourceBounds  width="64" height="64" x="810.5" y="563.5" bottomLeftOrigin="true"></sliceSourceBounds>
	</sfw>
</metadata>
<g>
	<path fill-rule="evenodd" clip-rule="evenodd" fill="#FFFFFF" d="M8,36.375c1.365-1.727,2.725-3.457,4.097-5.178
		c1.997-2.507,4.009-5.002,6-7.514c0.382-0.482,0.827-0.692,1.443-0.691c13.641,0.01,27.281,0.01,40.921,0
		c0.618,0,1.063,0.213,1.445,0.692c3.216,4.036,6.444,8.063,9.667,12.094c0.152,0.19,0.285,0.397,0.427,0.596c0,0.25,0,0.5,0,0.75
		c-0.201,0.259-0.386,0.532-0.604,0.774c-10.02,11.083-20.043,22.162-30.061,33.246c-0.292,0.322-0.602,0.614-0.961,0.855
		c-0.249,0-0.499,0-0.749,0c-0.337-0.235-0.639-0.504-0.917-0.812c-8.831-9.772-17.672-19.536-26.499-29.311
		c-1.418-1.57-2.906-3.08-4.209-4.753C8,36.875,8,36.625,8,36.375z M39.986,67.622c0.124-0.246,0.192-0.369,0.249-0.498
		c4.205-9.529,8.406-19.061,12.623-28.585c0.229-0.517,0.076-0.548-0.394-0.547C44.157,38.003,35.85,38,27.541,38.003
		c-0.177,0-0.364-0.056-0.585,0.082C31.282,47.893,35.608,57.699,39.986,67.622z M27.23,35.466c8.549,0,17.012,0,25.531,0
		c-0.12-0.207-0.208-0.365-0.302-0.521c-1.796-2.994-3.6-5.984-5.38-8.987c-0.208-0.351-0.426-0.469-0.831-0.467
		c-3.687,0.017-7.372,0.008-11.059,0.012c-0.665,0.001-1.444-0.184-1.961,0.1c-0.488,0.269-0.704,1.038-1.035,1.59
		C30.55,29.931,28.906,32.671,27.23,35.466z M12.067,38c7.854,8.685,15.618,17.27,23.405,25.879
		c0.079-0.301-0.091-0.484-0.179-0.685c-1.636-3.723-3.277-7.442-4.919-11.161c-1.993-4.518-3.987-9.033-5.981-13.55
		c-0.104-0.233-0.132-0.494-0.52-0.493C19.984,38.006,16.095,38,12.067,38z M44.482,63.685c0.046,0.031,0.092,0.063,0.137,0.095
		C52.365,55.214,60.112,46.648,67.934,38c-3.944,0-7.751,0.01-11.557-0.013c-0.452-0.002-0.635,0.159-0.805,0.546
		c-2.811,6.402-5.637,12.796-8.459,19.193C46.237,59.713,45.359,61.698,44.482,63.685z M30.289,25.5
		c-3.418,0-6.729,0.005-10.038-0.007c-0.308-0.001-0.486,0.109-0.67,0.34c-1.422,1.793-2.858,3.575-4.288,5.362
		c-1.124,1.405-2.245,2.813-3.379,4.233c0.091,0.04,0.125,0.068,0.159,0.068c3.956,0.002,7.912-0.001,11.868,0.012
		c0.307,0.001,0.435-0.136,0.569-0.367c0.472-0.807,0.961-1.604,1.441-2.406C27.382,30.353,28.81,27.97,30.289,25.5z M68.134,35.5
		c-0.106-0.144-0.148-0.205-0.195-0.263c-2.509-3.136-5.022-6.269-7.521-9.414c-0.211-0.265-0.429-0.329-0.74-0.328
		c-3.124,0.008-6.247,0.005-9.37,0.005c-0.174,0-0.348,0-0.6,0c1.988,3.313,3.927,6.531,5.848,9.759
		c0.174,0.293,0.401,0.239,0.638,0.239C60.004,35.5,63.814,35.5,67.625,35.5C67.762,35.5,67.898,35.5,68.134,35.5z"/>
	<path fill-rule="evenodd" clip-rule="evenodd" fill="#FFFFFF" d="M40.374,8c0.692,0.375,0.902,0.956,0.89,1.733
		c-0.039,2.306-0.008,4.613-0.018,6.919c-0.004,0.772-0.497,1.309-1.186,1.344c-0.616,0.032-1.185-0.417-1.291-1.035
		c-0.031-0.183-0.02-0.373-0.02-0.56c-0.001-2.244,0.024-4.489-0.015-6.732C38.723,8.905,38.961,8.361,39.625,8
		C39.875,8,40.125,8,40.374,8z"/>
	<path fill-rule="evenodd" clip-rule="evenodd" fill="#FFFFFF" d="M33.745,16.875c-0.041,0.422-0.28,0.806-0.767,1.019
		c-0.495,0.216-0.951,0.117-1.328-0.24c-0.635-0.601-1.245-1.228-1.864-1.845c-1.002-1-2.007-1.999-3.003-3.005
		c-0.649-0.656-0.707-1.377-0.174-1.923c0.538-0.549,1.277-0.51,1.923,0.132c1.567,1.555,3.124,3.12,4.687,4.679
		C33.521,15.994,33.763,16.323,33.745,16.875z"/>
	<path fill-rule="evenodd" clip-rule="evenodd" fill="#FFFFFF" d="M53.748,11.626c0.003,0.526-0.19,0.839-0.463,1.112
		c-1.604,1.606-3.203,3.217-4.817,4.813c-0.589,0.582-1.314,0.597-1.835,0.09c-0.538-0.523-0.521-1.266,0.084-1.877
		c1.597-1.613,3.206-3.214,4.813-4.817c0.418-0.417,0.903-0.59,1.475-0.331C53.488,10.836,53.713,11.233,53.748,11.626z"/>
	<path fill-rule="evenodd" clip-rule="evenodd" fill="#FFFFFF" d="M37.88,43c-1.477,0-2.953,0.003-4.43-0.001
		c-0.921-0.003-1.462-0.469-1.463-1.246c-0.002-0.779,0.538-1.251,1.457-1.252c2.952-0.003,5.905-0.004,8.857,0.001
		c0.886,0.001,1.461,0.52,1.443,1.275c-0.017,0.734-0.575,1.218-1.437,1.221C40.832,43.005,39.356,43,37.88,43z"/>
	<path fill-rule="evenodd" clip-rule="evenodd" fill="#FFFFFF" d="M47.511,42.998c-0.694,0.007-1.27-0.572-1.26-1.268
		c0.01-0.67,0.565-1.222,1.235-1.229c0.669-0.007,1.237,0.536,1.261,1.204C48.771,42.397,48.203,42.991,47.511,42.998z"/>
</g>
</svg>
