<?xml version="1.0" encoding="utf-8"?>
<!-- Generator: Adobe Illustrator 16.0.0, SVG Export Plug-In . SVG Version: 6.00 Build 0)  -->
<!DOCTYPE svg PUBLIC "-//W3C//DTD SVG 1.1//EN" "http://www.w3.org/Graphics/SVG/1.1/DTD/svg11.dtd" [
	<!ENTITY ns_extend "http://ns.adobe.com/Extensibility/1.0/">
	<!ENTITY ns_ai "http://ns.adobe.com/AdobeIllustrator/10.0/">
	<!ENTITY ns_graphs "http://ns.adobe.com/Graphs/1.0/">
	<!ENTITY ns_vars "http://ns.adobe.com/Variables/1.0/">
	<!ENTITY ns_imrep "http://ns.adobe.com/ImageReplacement/1.0/">
	<!ENTITY ns_sfw "http://ns.adobe.com/SaveForWeb/1.0/">
	<!ENTITY ns_custom "http://ns.adobe.com/GenericCustomNamespace/1.0/">
	<!ENTITY ns_adobe_xpath "http://ns.adobe.com/XPath/1.0/">
]>
<svg version="1.1" id="Layer_1" xmlns:x="&ns_extend;" xmlns:i="&ns_ai;" xmlns:graph="&ns_graphs;"
	 xmlns="http://www.w3.org/2000/svg" xmlns:xlink="http://www.w3.org/1999/xlink" x="0px" y="0px" width="80px" height="80px"
	 viewBox="0 0 80 80" enable-background="new 0 0 80 80" xml:space="preserve">
<metadata>
	<sfw  xmlns="&ns_sfw;">
		<slices></slices>
		<sliceSourceBounds  width="64.001" height="65.263" x="810.5" y="562.868" bottomLeftOrigin="true"></sliceSourceBounds>
	</sfw>
</metadata>
<g>
	<path fill-rule="evenodd" clip-rule="evenodd" fill="#FFFFFF" d="M16.254,53.533c2.406-1.393,4.788-2.776,7.174-4.152
		c1.233-0.712,2.488-1.373,3.908-1.648c1.209-0.235,2.386-0.158,3.558,0.24c2.956,1.005,5.857,2.186,8.921,2.855
		c0.448,0.099,0.907,0.168,1.342,0.306c2.139,0.679,3.271,2.882,2.602,5.024c-0.038,0.121-0.078,0.241-0.141,0.435
		c0.57-0.056,0.979-0.347,1.396-0.588c3.255-1.887,6.503-3.784,9.753-5.677c1.446-0.842,2.944-1.531,4.639-1.712
		c2.072-0.222,3.87,0.825,4.493,2.646c0.669,1.954-0.053,3.986-1.814,5.073c-5.938,3.663-11.886,7.313-17.815,10.99
		c-2.174,1.349-4.446,1.673-6.917,0.988c-4.002-1.108-8.022-2.152-12.035-3.224c-0.481-0.128-1.719,0.297-2.006,0.668
		c-0.117,0.15-0.01,0.237,0.045,0.34c0.219,0.402,0.464,0.793,0.668,1.204c0.597,1.199,0.25,2.578-0.884,3.287
		c-1,0.625-2.032,1.208-3.082,1.745c-1.304,0.669-2.684,0.183-3.455-1.175c-1.857-3.27-3.705-6.546-5.557-9.819
		c-0.872-1.541-1.752-3.078-2.617-4.624c-0.832-1.486-0.439-2.896,1.034-3.745c0.834-0.48,1.671-0.954,2.512-1.421
		c1.479-0.822,2.882-0.424,3.74,1.055C15.891,52.905,16.064,53.206,16.254,53.533z M39.826,66.575
		c1.356,0.04,2.501-0.528,3.613-1.215c5.826-3.597,11.656-7.186,17.485-10.777c0.989-0.609,1.344-1.577,0.97-2.646
		c-0.316-0.902-1.157-1.35-2.288-1.226c-1.405,0.154-2.633,0.77-3.829,1.466c-3.309,1.924-6.613,3.853-9.922,5.775
		c-1.505,0.874-3.112,1.214-4.854,1.017c-1.619-0.184-3.174-0.63-4.741-1.025c-1.25-0.315-2.493-0.661-3.731-1.021
		c-0.64-0.187-0.95-0.744-0.792-1.312c0.157-0.565,0.715-0.865,1.356-0.721c0.191,0.043,0.377,0.111,0.567,0.162
		c1.984,0.533,3.939,1.182,5.962,1.558c1.132,0.209,2.013-0.356,2.204-1.348c0.19-0.985-0.412-1.881-1.466-2.155
		c-0.445-0.116-0.897-0.2-1.344-0.303c-2.948-0.679-5.761-1.774-8.602-2.781c-1.114-0.396-2.221-0.423-3.345-0.048
		c-0.708,0.236-1.381,0.545-2.026,0.917c-2.424,1.399-4.841,2.812-7.276,4.19c-0.403,0.229-0.444,0.392-0.216,0.787
		c1.29,2.233,2.548,4.486,3.824,6.729c0.257,0.452,0.475,1.167,0.833,1.254c0.374,0.092,0.913-0.405,1.351-0.69
		c0.544-0.354,1.072-0.468,1.729-0.285c3.497,0.968,7,1.909,10.51,2.83C37.127,66.055,38.426,66.557,39.826,66.575z M22.207,68.421
		c-0.048-0.104-0.102-0.246-0.176-0.378c-2.712-4.798-5.429-9.594-8.136-14.395c-0.233-0.412-0.496-0.497-0.907-0.256
		c-0.812,0.475-1.629,0.94-2.458,1.385c-0.462,0.247-0.49,0.548-0.239,0.964c0.349,0.581,0.675,1.176,1.009,1.766
		c2.348,4.149,4.702,8.296,7.034,12.454c0.304,0.541,0.587,0.669,1.135,0.317c0.735-0.472,1.516-0.871,2.28-1.298
		C21.962,68.859,22.172,68.741,22.207,68.421z"/>
	<path fill-rule="evenodd" clip-rule="evenodd" fill="#FFFFFF" d="M69.354,36.047c0,0.635,0.016,1.271-0.007,1.906
		c-0.01,0.287,0.072,0.399,0.362,0.372c0.195-0.018,0.395-0.008,0.592,0c0.686,0.026,1.236,0.292,1.535,0.938
		c0.296,0.64,0.181,1.234-0.25,1.78c-1.046,1.324-2.088,2.65-3.132,3.977c-0.38,0.481-0.748,0.973-1.142,1.443
		c-0.757,0.903-1.866,0.938-2.598,0.03c-1.471-1.825-2.906-3.679-4.354-5.522c-0.417-0.531-0.491-1.118-0.2-1.726
		c0.294-0.613,0.825-0.938,1.482-0.903c0.573,0.03,0.676-0.201,0.706-0.706c0.658-10.828-7.321-20.98-18.026-22.904
		c-0.71-0.127-1.43-0.201-2.146-0.29c-0.905-0.113-1.224-0.457-1.228-1.376c-0.006-1.469-0.009-2.938,0.001-4.407
		c0.006-0.954,0.445-1.345,1.402-1.284C54.56,8.157,65.33,17.081,68.415,28.97c0.303,1.167,0.541,2.344,0.706,3.538
		C69.283,33.683,69.374,34.861,69.354,36.047z M69.298,40.539c-0.24-0.174-0.442-0.104-0.63-0.107
		c-1.286-0.015-1.565-0.34-1.471-1.629c0.185-2.503,0.121-5.002-0.399-7.461c-1.672-7.917-5.965-14-12.892-18.193
		c-3.168-1.917-6.622-3.038-10.286-3.538c-0.485-0.066-0.605,0.083-0.575,0.542c0.037,0.567,0.036,1.141,0,1.709
		c-0.026,0.413,0.102,0.589,0.523,0.625c0.874,0.073,1.729,0.272,2.577,0.49c11.585,2.967,19.181,13.645,18.219,25.612
		c-0.038,0.476,0.004,0.969-0.274,1.4c-0.318,0.493-0.853,0.43-1.465,0.457c1.17,1.489,2.258,2.873,3.373,4.291
		C67.112,43.317,68.202,41.933,69.298,40.539z"/>
	<path fill-rule="evenodd" clip-rule="evenodd" fill="#FFFFFF" d="M37.048,32.837c-4.169-3.278-3.802-8.573-1.021-11.457
		c2.95-3.059,7.804-3.137,10.851-0.161c2.891,2.822,3.415,8.208-0.87,11.639c1.398,0.513,2.705,1.153,3.879,2.041
		c3.222,2.438,5.063,5.674,5.585,9.67c0.092,0.703-0.314,1.189-1.021,1.247c-0.174,0.015-0.351,0.008-0.525,0.008
		c-8.243,0-16.486,0-24.729,0c-1.439,0-1.786-0.371-1.529-1.788c0.96-5.316,3.953-8.992,8.969-11.012
		c0.101-0.041,0.204-0.077,0.304-0.12C36.979,32.889,37.012,32.86,37.048,32.837z M41.516,43.716c3.684,0,7.366-0.012,11.05,0.013
		c0.575,0.004,0.625-0.139,0.486-0.659c-1.309-4.903-5.479-8.34-10.693-8.778c-5.622-0.472-10.98,3.363-12.367,8.826
		c-0.127,0.501-0.054,0.614,0.474,0.611C34.148,43.705,37.832,43.716,41.516,43.716z M36.038,26.579
		c-0.023,3.065,2.399,5.53,5.455,5.552c3.052,0.021,5.522-2.417,5.542-5.472c0.02-3.018-2.401-5.477-5.429-5.515
		C38.545,21.104,36.06,23.53,36.038,26.579z"/>
	<path fill-rule="evenodd" clip-rule="evenodd" fill="#FFFFFF" d="M14.579,35.748c-0.746,0-1.491,0.01-2.237-0.002
		c-0.919-0.015-1.338-0.46-1.268-1.356c0.292-3.726,1.217-7.283,2.868-10.643c0.388-0.79,0.949-0.968,1.718-0.53
		c1.311,0.747,2.615,1.506,3.918,2.268c0.775,0.454,0.921,0.881,0.554,1.689c-1.078,2.372-1.749,4.849-1.985,7.445
		c-0.068,0.742-0.457,1.105-1.2,1.125C16.158,35.764,15.368,35.748,14.579,35.748z M15.436,25.518
		c-0.169,0.405-0.334,0.785-0.487,1.169c-0.818,2.063-1.34,4.203-1.625,6.401c-0.028,0.212-0.212,0.56,0.274,0.555
		c0.745-0.007,1.49-0.008,2.234,0.001c0.263,0.003,0.324-0.134,0.354-0.361c0.268-2.071,0.816-4.068,1.608-5.997
		c0.108-0.263,0.07-0.378-0.173-0.512C16.896,26.375,16.184,25.951,15.436,25.518z"/>
	<path fill-rule="evenodd" clip-rule="evenodd" fill="#FFFFFF" d="M14.604,37.25c0.767,0,1.534-0.013,2.3,0.003
		c0.753,0.016,1.155,0.349,1.216,1.101c0.216,2.667,0.928,5.197,2.029,7.627c0.298,0.659,0.133,1.124-0.501,1.497
		c-1.337,0.787-2.681,1.563-4.032,2.327c-0.732,0.413-1.303,0.228-1.672-0.526c-1.654-3.379-2.586-6.954-2.872-10.701
		c-0.066-0.86,0.356-1.31,1.23-1.326C13.07,37.239,13.837,37.25,14.604,37.25z M14.699,39.355c-0.329,0-0.659,0.021-0.986-0.006
		c-0.352-0.028-0.459,0.09-0.413,0.444c0.331,2.554,0.985,5.018,1.987,7.391c0.124,0.294,0.253,0.25,0.474,0.114
		c0.54-0.331,1.081-0.667,1.648-0.948c0.395-0.196,0.456-0.379,0.281-0.799c-0.647-1.559-1.114-3.177-1.382-4.847
		C16.091,39.355,16.093,39.355,14.699,39.355z"/>
	<path fill-rule="evenodd" clip-rule="evenodd" fill="#FFFFFF" d="M39.443,10.847c0,0.767,0.009,1.533-0.003,2.299
		c-0.013,0.811-0.321,1.207-1.111,1.271c-2.666,0.219-5.196,0.915-7.625,2.022c-0.659,0.3-1.116,0.136-1.494-0.504
		c-0.789-1.335-1.566-2.678-2.33-4.028c-0.408-0.721-0.211-1.29,0.551-1.663c3.356-1.644,6.906-2.578,10.627-2.868
		C39,7.303,39.43,7.714,39.441,8.678C39.451,9.401,39.443,10.124,39.443,10.847z M29.216,11.742
		c0.418,0.726,0.812,1.381,1.176,2.053c0.151,0.278,0.293,0.369,0.612,0.236c1.904-0.794,3.88-1.326,5.931-1.57
		c0.281-0.034,0.42-0.136,0.409-0.456c-0.023-0.678-0.022-1.357,0-2.035c0.011-0.337-0.12-0.411-0.424-0.372
		C34.261,9.94,31.699,10.617,29.216,11.742z"/>
	<path fill-rule="evenodd" clip-rule="evenodd" fill="#FFFFFF" d="M28.078,17.25c0.004,0.529-0.216,0.815-0.537,1.04
		c-2.179,1.522-4.004,3.393-5.53,5.566c-0.447,0.637-0.909,0.726-1.593,0.338c-1.37-0.776-2.734-1.562-4.089-2.365
		c-0.648-0.384-0.775-0.991-0.35-1.623c2.13-3.165,4.783-5.811,7.944-7.944c0.598-0.404,1.221-0.278,1.584,0.334
		c0.826,1.392,1.624,2.8,2.423,4.207C28.024,16.969,28.053,17.172,28.078,17.25z M24.278,14.613
		c-0.174,0.114-0.267,0.167-0.352,0.231c-2.043,1.531-3.824,3.324-5.371,5.355c-0.227,0.298-0.163,0.422,0.137,0.581
		c0.559,0.295,1.119,0.597,1.643,0.949c0.362,0.244,0.534,0.148,0.77-0.169c0.864-1.161,1.887-2.178,2.925-3.185
		c0.508-0.493,1.497-0.754,1.458-1.471c-0.036-0.662-0.665-1.292-1.033-1.936c-0.033-0.057-0.073-0.109-0.102-0.168
		C24.324,14.742,24.305,14.68,24.278,14.613z"/>
	<path fill-rule="evenodd" clip-rule="evenodd" fill="#FFFFFF" d="M12.917,57.174c-0.545-0.001-1.002-0.457-1.009-1.006
		c-0.006-0.543,0.445-1.017,0.985-1.031c0.558-0.017,1.058,0.48,1.046,1.04C13.928,56.714,13.456,57.175,12.917,57.174z"/>
</g>
</svg>
