<?xml version="1.0" encoding="utf-8"?>
<!-- Generator: Adobe Illustrator 16.0.0, SVG Export Plug-In . SVG Version: 6.00 Build 0)  -->
<!DOCTYPE svg PUBLIC "-//W3C//DTD SVG 1.1//EN" "http://www.w3.org/Graphics/SVG/1.1/DTD/svg11.dtd" [
	<!ENTITY ns_extend "http://ns.adobe.com/Extensibility/1.0/">
	<!ENTITY ns_ai "http://ns.adobe.com/AdobeIllustrator/10.0/">
	<!ENTITY ns_graphs "http://ns.adobe.com/Graphs/1.0/">
	<!ENTITY ns_vars "http://ns.adobe.com/Variables/1.0/">
	<!ENTITY ns_imrep "http://ns.adobe.com/ImageReplacement/1.0/">
	<!ENTITY ns_sfw "http://ns.adobe.com/SaveForWeb/1.0/">
	<!ENTITY ns_custom "http://ns.adobe.com/GenericCustomNamespace/1.0/">
	<!ENTITY ns_adobe_xpath "http://ns.adobe.com/XPath/1.0/">
]>
<svg version="1.1" id="Layer_1" xmlns:x="&ns_extend;" xmlns:i="&ns_ai;" xmlns:graph="&ns_graphs;"
	 xmlns="http://www.w3.org/2000/svg" xmlns:xlink="http://www.w3.org/1999/xlink" x="0px" y="0px" width="80px" height="80px"
	 viewBox="0 0 80 80" enable-background="new 0 0 80 80" xml:space="preserve">
<metadata>
	<sfw  xmlns="&ns_sfw;">
		<slices></slices>
		<sliceSourceBounds  width="71" height="64.316" x="807" y="563.342" bottomLeftOrigin="true"></sliceSourceBounds>
	</sfw>
</metadata>
<g>
	<path fill-rule="evenodd" clip-rule="evenodd" fill="#FFFFFF" d="M4.5,20.716c0.656-1.263,1.716-1.655,3.091-1.547
		c1.058,0.083,2.127-0.009,3.188,0.029c0.451,0.016,0.564-0.138,0.519-0.547c-0.031-0.274-0.01-0.554-0.004-0.832
		c0.021-1.078,0.634-1.936,1.674-2.178c0.425-0.099,0.485-0.271,0.482-0.641c-0.004-0.762,0.012-1.525,0.07-2.284
		c0.058-0.731,0.55-1.183,1.143-1.124c0.621,0.062,0.964,0.559,0.93,1.303c-0.035,0.761-0.038,1.524-0.07,2.285
		c-0.012,0.293,0.086,0.402,0.393,0.401c2.172-0.011,4.344-0.009,6.517-0.001c0.262,0.001,0.379-0.076,0.364-0.352
		c-0.044-0.806,0.076-1.616-0.101-2.417c-0.481-2.186-2.695-3.409-4.799-2.644c-0.13,0.047-0.256,0.106-0.386,0.151
		c-0.621,0.214-1.143,0.009-1.382-0.537c-0.238-0.543-0.021-1.071,0.567-1.376c1.946-1.007,4.56-0.633,6.266,0.908
		c1.188,1.074,1.806,2.427,1.902,4.02c0.022,0.368,0.04,0.742,0.005,1.108c-0.066,0.68-0.005,1.113,0.84,1.36
		c0.973,0.284,1.324,1.188,1.309,2.214c-0.016,1.171,0.006,1.171,1.191,1.171c1.064,0,2.127-0.004,3.189,0.001
		c1.521,0.008,2.39,0.876,2.4,2.414c0.01,1.548,0.019,3.097-0.008,4.645c-0.007,0.449,0.108,0.585,0.573,0.58
		c2.195-0.026,4.391-0.017,6.586-0.011c1.469,0.004,2.365,0.902,2.367,2.385c0.007,4.021,0.011,8.042-0.009,12.063
		c-0.002,0.51,0.081,0.708,0.656,0.691c1.641-0.045,3.282-0.034,4.922-0.003c0.47,0.009,0.561-0.14,0.56-0.577
		c-0.018-3.998-0.011-7.996-0.01-11.995c0.001-1.715,0.841-2.565,2.534-2.566c4.46-0.001,8.92-0.001,13.38,0
		c1.704,0,2.531,0.836,2.531,2.558c0.002,3.721,0.001,7.441,0.001,11.162c0,1.396,0,1.393,1.377,1.406
		c2.245,0.021,3.991,0.965,5.264,2.813c0.489,0.707,0.651,1.541,0.977,2.313c0,0.739,0,1.479,0,2.219
		c-0.229,0.071-0.191,0.297-0.241,0.455c-0.749,2.365-2.342,3.814-4.752,4.331c-1.043,0.224-2.119,0.112-3.179,0.088
		c-0.504-0.012-0.786,0.161-1.057,0.567c-0.789,1.19-1.624,2.353-2.438,3.527c-0.6,0.862-1.378,1.5-2.408,1.744
		c-0.473,0.111-0.527,0.347-0.524,0.766c0.018,2.862,0.025,5.726-0.004,8.589c-0.006,0.556,0.104,0.734,0.703,0.73
		c4.086-0.029,8.173-0.005,12.259-0.027c0.645-0.003,1.204,0.08,1.642,0.585c0,0.277,0,0.555,0,0.832
		c-0.354,0.517-0.835,0.688-1.466,0.688c-22.69-0.013-45.379-0.013-68.068,0c-0.63,0-1.114-0.167-1.466-0.688
		c0-0.231,0-0.463,0-0.693c0.3-0.536,0.74-0.757,1.366-0.722C6.625,70.1,7.392,70.03,8.15,70.079c0.53,0.033,0.648-0.138,0.645-0.65
		c-0.024-3.532-0.012-7.063-0.012-10.596c0-1.212-0.003-1.269-1.234-1.196c-1.354,0.077-2.46-0.201-3.049-1.559
		c0-2.959,0-5.917,0-8.875c0.311-0.517,0.729-0.871,1.362-0.662c0.631,0.208,0.729,0.742,0.725,1.346
		c-0.015,2.334,0.005,4.669-0.016,7.002c-0.004,0.472,0.047,0.669,0.613,0.666c7.973-0.022,15.946-0.021,23.92,0
		c0.547,0.002,0.627-0.165,0.626-0.657c-0.014-10.978-0.015-21.955,0.003-32.934c0.001-0.583-0.158-0.712-0.726-0.71
		c-7.904,0.02-15.809,0.02-23.712,0c-0.562-0.002-0.731,0.118-0.729,0.707c0.022,7.049,0.012,14.098,0.019,21.147
		c0,0.586-0.055,1.113-0.699,1.358C5.23,44.716,4.862,44.305,4.5,43.875C4.5,36.156,4.5,28.436,4.5,20.716z M64.146,54.172
		c-0.42,0-0.646,0-0.872,0c-4.853,0-9.706,0-14.559,0c-4.736,0-9.473,0.011-14.211-0.015c-0.583-0.003-0.75,0.156-0.718,0.729
		c0.05,0.875,0.041,1.757,0.002,2.633c-0.021,0.492,0.138,0.617,0.62,0.615c3.304-0.021,6.609-0.012,9.913-0.011
		c0.739,0,1.479,0,2.218,0.012c0.413,0.007,0.69,0.238,0.86,0.597c0.176,0.367,0.119,0.725-0.118,1.043
		c-0.277,0.373-0.684,0.431-1.116,0.43c-2.171-0.004-4.343,0.011-6.515-0.012c-0.43-0.005-0.54,0.11-0.536,0.537
		c0.02,2.912,0.022,5.823-0.001,8.735c-0.003,0.483,0.126,0.613,0.612,0.612c5.014-0.019,10.028-0.022,15.043,0.003
		c0.565,0.003,0.622-0.2,0.618-0.676c-0.02-2.796-0.032-5.593,0.008-8.388c0.01-0.659-0.136-0.863-0.819-0.832
		c-1.337,0.061-2.68,0.035-4.019,0.01c-0.691-0.015-1.134-0.479-1.113-1.076c0.02-0.566,0.46-0.962,1.112-0.993
		c0.184-0.009,0.369-0.002,0.555-0.002c2.934,0,5.868-0.005,8.803,0.002c0.747,0.001,1.467-0.13,1.937-0.737
		C62.62,56.392,63.319,55.337,64.146,54.172z M23.985,70.065c3.003,0,6.007-0.012,9.011,0.013c0.491,0.003,0.613-0.136,0.61-0.618
		c-0.023-2.911-0.013-5.822-0.01-8.731c0.001-0.286,0.014-0.501-0.366-0.613c-1.02-0.301-1.462-0.856-1.493-1.894
		c-0.014-0.471-0.128-0.613-0.614-0.611c-5.406,0.018-10.813,0.019-16.218-0.001c-0.5-0.001-0.603,0.151-0.599,0.62
		c0.019,3.743,0.024,7.486-0.005,11.229c-0.004,0.564,0.202,0.621,0.675,0.617C17.979,70.056,20.982,70.065,23.985,70.065z
		 M52.065,52.091c5.752,0,11.503,0.012,17.255-0.006c2.347-0.008,4.113-1.786,4.098-4.058c-0.017-2.223-1.812-4.003-4.097-4.005
		c-11.641-0.009-23.282-0.001-34.923-0.015c-0.489,0-0.615,0.13-0.609,0.613c0.025,2.24,0.034,4.48-0.004,6.721
		c-0.01,0.597,0.123,0.769,0.75,0.766C40.378,52.08,46.222,52.092,52.065,52.091z M58.679,41.938c2.194,0,4.39-0.004,6.586,0.005
		c0.331,0.001,0.549,0.006,0.547-0.455c-0.019-4.043-0.016-8.088-0.003-12.131c0.001-0.358-0.089-0.48-0.462-0.47
		c-0.947,0.025-1.896,0.039-2.842-0.004c-0.492-0.022-0.564,0.172-0.556,0.595c0.023,1.202,0.02,2.403,0.004,3.605
		c-0.011,0.811-0.384,1.187-1.195,1.196c-1.387,0.017-2.773,0.016-4.159,0.001c-0.852-0.009-1.215-0.386-1.222-1.24
		c-0.008-1.201-0.018-2.404,0.008-3.605c0.009-0.408-0.07-0.569-0.521-0.551c-0.924,0.038-1.85,0.034-2.772,0.001
		c-0.448-0.016-0.587,0.105-0.584,0.571c0.02,3.974,0.02,7.949,0,11.923c-0.003,0.467,0.142,0.574,0.585,0.57
		C54.287,41.926,56.482,41.938,58.679,41.938z M41.238,35.459c0-2.01-0.012-4.02,0.01-6.029c0.004-0.424-0.103-0.561-0.537-0.547
		c-0.946,0.033-1.895,0.029-2.841,0.002c-0.395-0.011-0.507,0.109-0.5,0.501c0.025,1.2,0.014,2.402,0.008,3.603
		c-0.005,0.929-0.364,1.279-1.311,1.291c-0.555,0.007-1.111,0.033-1.663-0.008c-0.484-0.036-0.622,0.122-0.615,0.61
		c0.026,2.147,0.025,4.296,0.001,6.445c-0.005,0.468,0.092,0.631,0.597,0.623c2.078-0.029,4.158-0.035,6.236,0.003
		c0.557,0.01,0.633-0.188,0.626-0.674C41.223,39.34,41.238,37.399,41.238,35.459z M19.2,19.186c1.708,0,3.419-0.04,5.125,0.02
		c0.669,0.023,0.628-0.31,0.605-0.745c-0.021-0.409,0.156-0.836-0.604-0.825c-3.324,0.047-6.649,0.02-9.975,0.02
		c-0.992,0-0.964,0.001-0.991,0.978c-0.013,0.462,0.13,0.569,0.574,0.563C15.69,19.17,17.445,19.186,19.2,19.186z M12.237,63.857
		c0-1.895-0.03-3.788,0.017-5.68c0.015-0.645-0.34-0.554-0.731-0.563c-0.389-0.01-0.682-0.052-0.676,0.536
		c0.028,3.787,0.031,7.573-0.002,11.358c-0.006,0.641,0.327,0.544,0.72,0.567c0.462,0.028,0.701-0.029,0.688-0.609
		C12.21,67.597,12.237,65.727,12.237,63.857z M35.673,65.169c0,1.476,0.028,2.95-0.014,4.424c-0.018,0.593,0.335,0.485,0.663,0.472
		c0.326-0.013,0.742,0.179,0.737-0.476c-0.026-2.972-0.026-5.944-0.001-8.916c0.005-0.658-0.425-0.45-0.744-0.467
		c-0.323-0.017-0.674-0.127-0.656,0.472C35.703,62.174,35.673,63.672,35.673,65.169z M58.83,65.161c0-1.498-0.02-2.996,0.009-4.493
		c0.013-0.729-0.501-0.408-0.815-0.46c-0.343-0.058-0.588-0.035-0.583,0.471c0.028,2.95,0.031,5.9-0.001,8.851
		c-0.006,0.578,0.271,0.562,0.668,0.543c0.382-0.018,0.763,0.104,0.739-0.554C58.794,68.068,58.83,66.614,58.83,65.161z
		 M59.877,30.52c-0.072-0.458,0.261-1.209-0.128-1.534c-0.331-0.275-1.054-0.08-1.603-0.093c-0.092-0.002-0.187,0.011-0.276-0.002
		c-0.336-0.05-0.433,0.093-0.421,0.421c0.023,0.667,0.054,1.34-0.006,2.001c-0.063,0.696,0.128,0.938,0.875,0.907
		C59.875,32.155,59.877,32.201,59.877,30.52z M35.301,30.569c0-0.231,0-0.462,0-0.693c0-1.024,0-1-1.028-0.997
		c-0.42,0.002-0.498,0.158-0.483,0.526c0.025,0.669,0.047,1.342-0.004,2.007c-0.047,0.613,0.115,0.829,0.777,0.818
		c0.604-0.01,0.842-0.145,0.747-0.763C35.265,31.175,35.301,30.869,35.301,30.569z"/>
	<path fill-rule="evenodd" clip-rule="evenodd" fill="#FFFFFF" d="M19.194,23.316c2.749,0,5.497-0.004,8.246,0.002
		c1.531,0.003,2.179,0.66,2.18,2.198c0.003,2.633,0.005,5.267,0,7.899c-0.003,1.425-0.703,2.127-2.12,2.128
		c-5.566,0.003-11.133,0.003-16.699,0c-1.405-0.001-2.125-0.725-2.126-2.139c-0.005-2.656-0.005-5.312,0-7.969
		c0.003-1.415,0.703-2.113,2.136-2.117C13.604,23.31,16.398,23.316,19.194,23.316z M19.13,33.463c2.611,0,5.223-0.009,7.835,0.009
		c0.432,0.003,0.59-0.084,0.585-0.559c-0.026-2.334-0.025-4.668,0-7.002c0.004-0.448-0.141-0.522-0.548-0.522
		c-5.223,0.013-10.446,0.017-15.669-0.004c-0.515-0.001-0.595,0.169-0.591,0.629c0.023,2.288,0.027,4.576-0.002,6.864
		c-0.006,0.507,0.159,0.599,0.624,0.595C13.953,33.452,16.542,33.463,19.13,33.463z"/>
	<path fill-rule="evenodd" clip-rule="evenodd" fill="#FFFFFF" d="M25.71,44.067c0.369,0,0.742-0.029,1.107,0.006
		c0.617,0.061,0.99,0.479,0.985,1.044c-0.005,0.566-0.39,0.986-1.007,1.012c-0.761,0.03-1.523,0.023-2.284-0.002
		c-0.598-0.021-0.924-0.395-0.99-0.965c-0.063-0.53,0.358-1.019,0.946-1.081c0.409-0.044,0.829-0.009,1.244-0.009
		C25.71,44.07,25.71,44.069,25.71,44.067z"/>
	<path fill-rule="evenodd" clip-rule="evenodd" fill="#FFFFFF" d="M19.094,46.131c-0.37,0-0.74,0.021-1.107-0.004
		c-0.6-0.039-0.942-0.41-0.971-0.979c-0.029-0.579,0.307-1.007,0.886-1.05c0.825-0.063,1.661-0.063,2.486-0.004
		c0.575,0.042,0.912,0.437,0.894,1.036c-0.018,0.593-0.355,0.942-0.944,0.992C19.926,46.158,19.509,46.13,19.094,46.131z"/>
	<path fill-rule="evenodd" clip-rule="evenodd" fill="#FFFFFF" d="M12.624,46.129c-0.392,0-0.786,0.024-1.175-0.007
		c-0.6-0.048-0.928-0.433-0.944-1.002c-0.015-0.543,0.297-0.954,0.848-1.017c0.87-0.098,1.753-0.114,2.621,0.011
		c0.549,0.081,0.827,0.485,0.798,1.046c-0.029,0.559-0.347,0.902-0.902,0.957c-0.412,0.039-0.83,0.007-1.245,0.007
		C12.624,46.125,12.624,46.127,12.624,46.129z"/>
	<path fill-rule="evenodd" clip-rule="evenodd" fill="#FFFFFF" d="M19.2,38.585c0.37,0,0.74-0.021,1.108,0.005
		c0.589,0.042,0.936,0.375,0.974,0.965c0.037,0.601-0.298,1.015-0.864,1.065c-0.824,0.074-1.662,0.069-2.488,0.011
		c-0.572-0.04-0.901-0.45-0.922-1.033c-0.021-0.541,0.423-0.962,1.015-1.014c0.045-0.004,0.092-0.005,0.137-0.005
		c0.347,0,0.693,0,1.039,0C19.2,38.582,19.2,38.584,19.2,38.585z"/>
	<path fill-rule="evenodd" clip-rule="evenodd" fill="#FFFFFF" d="M25.675,40.655c-0.393,0-0.788,0.03-1.177-0.007
		c-0.585-0.056-0.997-0.525-0.984-1.06c0.013-0.542,0.436-0.979,1.032-0.998c0.76-0.025,1.524-0.029,2.285,0.003
		c0.591,0.025,0.933,0.386,0.964,0.973c0.032,0.6-0.311,0.971-0.875,1.064c-0.405,0.065-0.829,0.012-1.244,0.012
		C25.675,40.646,25.675,40.651,25.675,40.655z"/>
	<path fill-rule="evenodd" clip-rule="evenodd" fill="#FFFFFF" d="M12.664,38.584c0.37,0,0.74-0.016,1.108,0.004
		c0.588,0.031,0.939,0.351,0.998,0.941c0.057,0.567-0.313,1.068-0.904,1.105c-0.827,0.051-1.664,0.061-2.488-0.012
		c-0.569-0.051-0.91-0.486-0.871-1.066c0.037-0.565,0.376-0.937,0.98-0.966c0.391-0.019,0.784-0.004,1.176-0.004
		C12.664,38.586,12.664,38.585,12.664,38.584z"/>
	<path fill-rule="evenodd" clip-rule="evenodd" fill="#FFFFFF" d="M12.604,51.64c-0.347,0.001-0.693,0.016-1.039-0.002
		c-0.63-0.031-1.077-0.473-1.074-1.04c0.002-0.538,0.426-1.002,1.014-1.026c0.761-0.031,1.524-0.032,2.285,0
		c0.598,0.025,0.99,0.473,0.988,1.035c-0.002,0.563-0.401,0.989-0.997,1.028C13.389,51.659,12.996,51.639,12.604,51.64z"/>
	<path fill-rule="evenodd" clip-rule="evenodd" fill="#FFFFFF" d="M19.135,51.637c-0.393,0-0.789,0.032-1.176-0.008
		c-0.587-0.061-0.933-0.437-0.944-1.01c-0.011-0.576,0.33-0.995,0.91-1.034c0.827-0.056,1.665-0.066,2.49,0.006
		c0.564,0.05,0.896,0.464,0.868,1.063c-0.026,0.563-0.362,0.9-0.903,0.968c-0.409,0.053-0.83,0.011-1.245,0.011
		C19.135,51.635,19.135,51.636,19.135,51.637z"/>
	<path fill-rule="evenodd" clip-rule="evenodd" fill="#FFFFFF" d="M25.673,51.639c-0.393-0.001-0.788,0.023-1.177-0.007
		c-0.579-0.044-1.018-0.515-0.977-1.054c0.044-0.577,0.374-0.967,0.958-1c0.782-0.046,1.57-0.039,2.353-0.004
		c0.589,0.025,0.984,0.496,0.971,1.053c-0.012,0.558-0.418,0.973-1.02,1.009C26.414,51.657,26.043,51.639,25.673,51.639z"/>
	<path fill-rule="evenodd" clip-rule="evenodd" fill="#FFFFFF" d="M60.903,48.045c-0.06,0.58-0.357,0.95-0.935,1.045
		c-0.248,0.041-0.507,0.026-0.761,0.018c-0.356-0.014-0.639-0.044-0.704,0.479c-0.061,0.476-0.479,0.729-0.968,0.727
		c-0.52-0.001-0.918-0.283-0.994-0.79c-0.059-0.389-0.225-0.42-0.534-0.417c-1.016,0.012-2.032,0.012-3.049,0
		c-0.328-0.004-0.551,0.011-0.615,0.437c-0.078,0.526-0.485,0.777-1.001,0.768c-0.484-0.009-0.864-0.255-0.949-0.749
		c-0.066-0.39-0.245-0.465-0.6-0.458c-1.017,0.021-2.032,0.012-3.049,0.005c-0.289-0.002-0.494-0.015-0.548,0.399
		c-0.066,0.507-0.461,0.797-0.982,0.806c-0.522,0.009-0.912-0.273-1.007-0.776c-0.068-0.354-0.188-0.439-0.522-0.433
		c-1.039,0.02-2.079,0.018-3.118,0c-0.328-0.006-0.492,0.064-0.553,0.429c-0.088,0.527-0.48,0.784-0.997,0.777
		c-0.517-0.008-0.893-0.277-0.974-0.807c-0.051-0.332-0.199-0.413-0.502-0.398c-0.321,0.018-0.653,0.036-0.967-0.021
		c-0.565-0.104-0.909-0.456-0.881-1.06c0.028-0.594,0.37-0.921,0.959-0.981c0.16-0.017,0.324-0.021,0.484-0.011
		c0.472,0.03,0.875,0.068,0.977-0.612c0.064-0.424,0.507-0.636,0.974-0.606c0.462,0.028,0.831,0.261,0.906,0.712
		c0.077,0.464,0.307,0.525,0.702,0.512c0.762-0.024,1.524-0.001,2.287-0.01c0.572-0.005,1.217,0.203,1.369-0.729
		c0.063-0.384,0.544-0.534,0.976-0.481c0.466,0.057,0.803,0.336,0.863,0.773c0.059,0.413,0.238,0.453,0.582,0.446
		c1.016-0.021,2.032-0.02,3.048-0.001c0.326,0.007,0.499-0.06,0.56-0.421c0.089-0.521,0.453-0.794,0.979-0.8s0.895,0.264,0.993,0.78
		c0.065,0.343,0.199,0.449,0.544,0.441c1.062-0.021,2.124-0.014,3.188-0.003c0.267,0.003,0.394-0.039,0.441-0.355
		c0.08-0.539,0.439-0.857,1.003-0.864c0.566-0.007,0.937,0.315,1.017,0.847c0.056,0.366,0.223,0.382,0.501,0.373
		c0.322-0.01,0.648-0.017,0.969,0.022C60.584,47.127,60.823,47.521,60.903,48.045z"/>
	<path fill-rule="evenodd" clip-rule="evenodd" fill="#FFFFFF" d="M66.804,50.83c-0.46,0-0.922,0.013-1.382-0.002
		c-1.549-0.044-2.716-1.196-2.758-2.708c-0.04-1.481,1.118-2.758,2.641-2.831c1.034-0.051,2.076-0.053,3.111,0.001
		c1.485,0.078,2.633,1.33,2.625,2.782c-0.008,1.498-1.188,2.701-2.715,2.754c-0.508,0.018-1.015,0.002-1.522,0.002
		C66.804,50.829,66.804,50.83,66.804,50.83z M66.871,48.75c0,0,0-0.001,0-0.002c0.463,0,0.924,0.007,1.386-0.002
		c0.415-0.007,0.662-0.261,0.688-0.641c0.028-0.423-0.238-0.723-0.663-0.736c-0.945-0.032-1.894-0.028-2.841-0.006
		c-0.428,0.012-0.695,0.286-0.68,0.718c0.016,0.426,0.28,0.667,0.725,0.669C65.947,48.753,66.409,48.75,66.871,48.75z"/>
</g>
</svg>
