<?xml version="1.0" encoding="utf-8"?>
<!-- Generator: Adobe Illustrator 16.0.0, SVG Export Plug-In . SVG Version: 6.00 Build 0)  -->
<!DOCTYPE svg PUBLIC "-//W3C//DTD SVG 1.1//EN" "http://www.w3.org/Graphics/SVG/1.1/DTD/svg11.dtd" [
	<!ENTITY ns_extend "http://ns.adobe.com/Extensibility/1.0/">
	<!ENTITY ns_ai "http://ns.adobe.com/AdobeIllustrator/10.0/">
	<!ENTITY ns_graphs "http://ns.adobe.com/Graphs/1.0/">
	<!ENTITY ns_vars "http://ns.adobe.com/Variables/1.0/">
	<!ENTITY ns_imrep "http://ns.adobe.com/ImageReplacement/1.0/">
	<!ENTITY ns_sfw "http://ns.adobe.com/SaveForWeb/1.0/">
	<!ENTITY ns_custom "http://ns.adobe.com/GenericCustomNamespace/1.0/">
	<!ENTITY ns_adobe_xpath "http://ns.adobe.com/XPath/1.0/">
]>
<svg version="1.1" id="Layer_1" xmlns:x="&ns_extend;" xmlns:i="&ns_ai;" xmlns:graph="&ns_graphs;"
	 xmlns="http://www.w3.org/2000/svg" xmlns:xlink="http://www.w3.org/1999/xlink" x="0px" y="0px" width="80px" height="80px"
	 viewBox="0 0 80 80" enable-background="new 0 0 80 80" xml:space="preserve">
<metadata>
	<sfw  xmlns="&ns_sfw;">
		<slices></slices>
		<sliceSourceBounds  width="80" height="79.965" y="410.517" x="409.5" bottomLeftOrigin="true"></sliceSourceBounds>
	</sfw>
</metadata>
<g>
	<path fill="#AA965C" d="M27.132,77.357c0-0.861,0-1.654,0-2.443c1.968-0.279,3.967-0.492,5.938-0.854
		c6.914-1.271,13.208-4.059,19.015-7.976c7.422-5.006,13.449-11.418,18.681-18.624c0.93-1.281,1.811-2.602,2.705-3.906
		c0.713-1.039,1.032-1.154,2.223-0.761c0.371,0.123,0.744,0.241,1.231,0.399c-0.577-2.594-1.127-5.068-1.704-7.672
		c-2.388,1.323-4.697,2.604-7.197,3.99c0.68,0.188,1.177,0.324,1.672,0.461c1.275,0.35,1.604,1.229,0.832,2.295
		c-2.42,3.342-5.18,6.381-8.235,9.148c-8.256,7.48-17.854,12.264-28.815,14.294c-0.738,0.138-1.481,0.242-2.319,0.378
		c-0.068-0.436-0.136-0.848-0.196-1.263c-0.058-0.396-0.108-0.791-0.171-1.257c0.948-0.176,1.859-0.375,2.78-0.504
		c0.511-0.071,0.713-0.271,0.789-0.801c0.931-6.511,1.933-13.011,2.808-19.527c0.179-1.334-0.079-2.728-0.154-4.091
		c-0.035-0.631-0.114-1.26-0.193-2.1c-0.434,0.564-0.741,0.959-1.044,1.357C34.18,40,32.566,42.08,31.006,44.199
		c-0.69,0.938-1.525,1.453-2.705,1.469c-0.83,0.012-1.658,0.145-2.489,0.202c-1.086,0.077-1.955-0.326-2.506-1.279
		c-0.551-0.952-0.491-1.924,0.151-2.804c3.454-4.729,6.917-9.449,10.393-14.16c0.827-1.121,2.004-1.761,3.403-2.204
		c-1.366-1.601-1.94-3.411-1.607-5.458c0.222-1.366,0.855-2.534,1.839-3.507c1.993-1.97,5.164-2.408,7.598-1.057
		c2.875,1.595,3.757,4.164,2.841,8.448c1.094-0.854,2.124-1.655,3.152-2.459c2.18-1.704,4.354-3.415,6.54-5.111
		c1.491-1.156,3.016-0.919,4.086,0.619c0.414,0.596,0.821,1.195,1.222,1.8c0.938,1.417,0.719,2.781-0.637,3.817
		c-3.605,2.757-7.208,5.521-10.842,8.241c-0.59,0.442-0.797,0.857-0.674,1.592c0.273,1.613,0.429,3.247,0.682,4.864
		c0.04,0.256,0.29,0.562,0.525,0.69c1.506,0.825,3.024,1.629,4.563,2.395c0.881,0.439,1.4,1.104,1.672,2.042
		c0.689,2.394,1.417,4.776,2.174,7.312c2.61-2.332,4.908-4.803,7.049-7.58c-1.088-0.277-2.064-0.543-3.051-0.775
		c-0.64-0.15-1.083-0.486-1.166-1.16c-0.078-0.64,0.264-1.058,0.807-1.358c3.756-2.081,7.504-4.175,11.265-6.248
		c1.045-0.576,1.845-0.209,2.108,0.959c0.846,3.741,1.682,7.487,2.504,11.233c0.258,1.174-0.598,1.951-1.743,1.606
		c-0.72-0.216-1.445-0.423-2.136-0.713c-0.537-0.226-0.797-0.071-1.104,0.386c-3.104,4.628-6.54,8.992-10.435,12.986
		c-7.06,7.24-15.143,12.902-24.838,16.068c-3.82,1.248-7.74,1.989-11.744,2.301C27.692,77.372,27.478,77.357,27.132,77.357z
		 M59.428,18.137c-3.613,2.825-7.113,5.585-10.648,8.297c-0.457,0.351-1.092,0.585-1.668,0.645
		c-2.725,0.278-5.455,0.489-8.187,0.699c-1.46,0.113-2.573,0.738-3.443,1.939c-3.134,4.329-6.31,8.628-9.467,12.939
		c-0.132,0.181-0.237,0.379-0.412,0.662c0.821-0.073,1.514-0.182,2.208-0.184c0.639-0.002,1.005-0.308,1.367-0.789
		c2.437-3.242,4.902-6.463,7.348-9.697c0.429-0.567,0.886-1.055,1.671-0.811c0.769,0.238,0.923,0.881,0.977,1.594
		c0.134,1.768,0.314,3.531,0.438,5.299c0.094,1.337,0.322,2.703,0.16,4.014c-0.522,4.207-1.2,8.396-1.814,12.592
		c-0.333,2.274-0.657,4.554-1.007,6.978c1.003-0.297,1.879-0.617,2.783-0.805c0.734-0.15,0.958-0.553,1.073-1.238
		c0.982-5.793,1.993-11.582,3.01-17.371c0.231-1.317,0.998-1.682,2.218-1.09c1.616,0.785,3.194,1.664,4.851,2.354
		c1.518,0.631,2.391,1.646,2.856,3.215c0.594,1.994,1.379,3.932,2.112,5.979c0.711-0.545,1.375-1,1.965-1.539
		c0.189-0.172,0.311-0.603,0.238-0.852c-0.718-2.527-1.496-5.037-2.219-7.564c-0.148-0.519-0.416-0.807-0.884-1.041
		c-1.634-0.813-3.237-1.686-4.868-2.501c-0.656-0.329-1.021-0.771-1.111-1.533c-0.266-2.266-0.58-4.526-0.906-6.784
		c-0.127-0.876,0.074-1.516,0.832-2.083c3.806-2.85,7.572-5.748,11.354-8.631c0.207-0.158,0.403-0.331,0.641-0.527
		C60.398,19.568,59.936,18.886,59.428,18.137z M43.43,60.189c3.572-1.399,6.814-3.094,9.885-5.114
		c0.148-0.097,0.203-0.525,0.129-0.74c-0.795-2.303-1.621-4.595-2.45-6.886c-0.068-0.189-0.179-0.43-0.337-0.51
		c-1.475-0.742-2.965-1.455-4.547-2.224C45.21,49.908,44.33,54.986,43.43,60.189z M42.016,17.21
		c-2.166-0.004-3.902,1.729-3.883,3.876c0.019,2.122,1.73,3.834,3.846,3.846c2.146,0.011,3.89-1.739,3.873-3.891
		C45.837,18.9,44.146,17.213,42.016,17.21z"/>
	<path fill="#AA965C" d="M26.628,58.615c-0.526,0.604-0.975,1.186-1.497,1.691c-0.358,0.35-0.416,0.616-0.239,1.104
		c0.209,0.576,0.595,0.511,1.017,0.512c2.334,0.006,2.469,0.139,2.469,2.443c0,1.182,0.002,2.363-0.001,3.545
		c-0.003,1.355-0.409,1.752-1.791,1.756c-0.242,0.001-0.485,0.018-0.725-0.004c-0.462-0.039-0.774,0.033-0.994,0.556
		c-0.221,0.522-0.021,0.767,0.303,1.089c1.717,1.713,1.711,1.857-0.016,3.584c-0.874,0.875-1.738,1.758-2.623,2.618
		c-0.731,0.711-1.361,0.699-2.102-0.004c-0.253-0.239-0.516-0.475-0.738-0.741c-0.307-0.371-0.589-0.478-1.093-0.281
		c-0.542,0.213-0.544,0.553-0.543,1c0.001,2.375-0.127,2.498-2.494,2.498c-1.236,0-2.471,0.008-3.707-0.004
		c-1.06-0.01-1.518-0.471-1.537-1.52c-0.006-0.322-0.028-0.646,0.005-0.966c0.052-0.513-0.098-0.798-0.611-1.038
		c-0.571-0.27-0.78,0.077-1.072,0.367c-1.629,1.621-1.856,1.623-3.484,0c-0.894-0.891-1.794-1.775-2.676-2.68
		c-0.716-0.732-0.712-1.361-0.016-2.103c0.239-0.254,0.477-0.515,0.743-0.738c0.359-0.304,0.503-0.573,0.289-1.088
		c-0.217-0.521-0.527-0.562-0.989-0.56c-2.392,0.004-2.505-0.117-2.505-2.48c0-1.208-0.004-2.417,0.001-3.625
		c0.006-1.173,0.442-1.613,1.591-1.626c0.322-0.003,0.648-0.03,0.966,0.007c0.503,0.059,0.742-0.138,0.958-0.606
		c0.228-0.498,0.008-0.724-0.289-1.021c-1.748-1.758-1.743-1.87,0.028-3.642c0.836-0.835,1.668-1.676,2.51-2.504
		c0.828-0.818,1.427-0.813,2.275,0.009c0.212,0.205,0.426,0.41,0.625,0.627c0.299,0.324,0.542,0.569,1.083,0.321
		c0.494-0.229,0.579-0.504,0.578-0.98c-0.005-2.436,0.1-2.527,2.537-2.527c1.235,0,2.471-0.011,3.707,0.004
		c1.004,0.011,1.467,0.481,1.49,1.483c0.007,0.322,0.015,0.646-0.001,0.968c-0.024,0.475,0.004,0.834,0.573,1.063
		c0.535,0.215,0.772-0.014,1.087-0.326c1.679-1.672,1.874-1.668,3.537-0.003c0.873,0.874,1.764,1.731,2.612,2.63
		C26.146,57.716,26.316,58.114,26.628,58.615z M12.896,54.219c0,0.463,0.003,0.86,0,1.26c-0.01,1.002-0.258,1.313-1.192,1.646
		c-0.655,0.232-1.313,0.48-1.922,0.811c-0.765,0.414-1.391,0.307-1.937-0.33c-0.278-0.323-0.515-0.685-0.747-0.994
		c-0.774,0.75-1.361,1.32-2.101,2.037c0.341,0.267,0.684,0.486,0.968,0.767c0.754,0.741,0.776,1.106,0.314,2.069
		c-0.3,0.627-0.565,1.274-0.785,1.933c-0.247,0.74-0.719,1.101-1.492,1.087c-0.449-0.008-0.897-0.001-1.373-0.001
		c0,0.896,0,1.711,0,2.586c0.445,0,0.843-0.003,1.241,0c1.011,0.009,1.314,0.249,1.648,1.187c0.234,0.654,0.485,1.311,0.812,1.922
		c0.385,0.723,0.342,1.339-0.266,1.882c-0.338,0.302-0.715,0.56-1.056,0.821c0.745,0.763,1.317,1.348,1.973,2.019
		c0.306-0.333,0.596-0.646,0.882-0.962c0.57-0.628,1.19-0.698,1.947-0.295c0.634,0.338,1.319,0.594,2.003,0.822
		c0.741,0.246,1.101,0.715,1.086,1.49c-0.009,0.448-0.002,0.897-0.002,1.381c0.891,0,1.706,0,2.585,0c0-0.439-0.003-0.838,0-1.235
		c0.009-1.045,0.245-1.327,1.25-1.683c0.654-0.231,1.301-0.504,1.917-0.821c0.701-0.362,1.281-0.269,1.817,0.288
		c0.326,0.338,0.666,0.66,0.938,0.932c0.667-0.629,1.249-1.176,2.016-1.898c-0.352-0.261-0.705-0.47-0.991-0.746
		c-0.775-0.752-0.804-1.112-0.349-2.062c0.29-0.603,0.573-1.217,0.762-1.854c0.242-0.817,0.722-1.217,1.574-1.188
		c0.445,0.016,0.891,0.003,1.318,0.003c0-0.928,0-1.743,0-2.586c-0.437,0-0.812,0.002-1.187,0c-1.093-0.008-1.372-0.237-1.74-1.288
		c-0.22-0.631-0.47-1.259-0.784-1.847c-0.39-0.729-0.306-1.345,0.304-1.874c0.342-0.297,0.729-0.543,1.003-0.744
		c-0.764-0.787-1.334-1.374-1.973-2.032c-0.259,0.281-0.52,0.587-0.804,0.867c-0.727,0.722-1.101,0.761-2.001,0.331
		c-0.627-0.299-1.267-0.59-1.929-0.793c-0.825-0.253-1.184-0.766-1.148-1.604c0.017-0.422,0.003-0.844,0.003-1.299
		C14.601,54.219,13.805,54.219,12.896,54.219z"/>
	<path fill="#AA965C" d="M80,7.364c-0.146,0.238-0.318,0.635-0.596,0.934c-0.855,0.927-1.723,1.847-2.646,2.707
		c-0.479,0.448-0.556,0.893-0.438,1.499c0.248,1.29,0.492,2.588,0.606,3.894c0.04,0.458-0.168,1.135-0.503,1.371
		c-0.336,0.238-1.047,0.215-1.462,0.021c-1.213-0.563-2.349-1.292-3.543-1.9c-0.251-0.128-0.678-0.131-0.929-0.005
		c-1.148,0.58-2.268,1.219-3.389,1.852c-0.545,0.308-1.088,0.499-1.656,0.097c-0.557-0.392-0.623-0.936-0.506-1.573
		c0.238-1.293,0.416-2.596,0.647-3.89c0.091-0.514,0.019-0.9-0.39-1.288c-0.951-0.907-1.893-1.835-2.741-2.836
		c-0.302-0.356-0.543-1.019-0.415-1.411c0.129-0.393,0.716-0.786,1.169-0.892c1.226-0.285,2.479-0.452,3.731-0.594
		c0.561-0.063,0.847-0.307,1.063-0.798c0.53-1.201,1.11-2.381,1.658-3.575c0.254-0.553,0.615-0.952,1.264-0.959
		c0.649-0.007,1.025,0.383,1.281,0.935C72.771,2.169,73.361,3.374,73.9,4.6c0.209,0.471,0.486,0.683,1.013,0.745
		c1.304,0.157,2.601,0.39,3.897,0.596C79.521,6.053,79.887,6.487,80,7.364z M74.014,14.344c-0.146-0.936-0.217-1.714-0.4-2.464
		c-0.196-0.802,0.02-1.402,0.604-1.95c0.59-0.554,1.133-1.155,1.776-1.818c-0.921-0.142-1.66-0.281-2.405-0.362
		c-0.766-0.084-1.29-0.421-1.59-1.155c-0.289-0.707-0.65-1.384-1.055-2.226c-0.404,0.845-0.77,1.521-1.059,2.229
		c-0.3,0.736-0.826,1.067-1.591,1.152c-0.757,0.084-1.508,0.229-2.261,0.347c-0.053,0.081-0.104,0.161-0.155,0.241
		c0.615,0.552,1.229,1.104,1.847,1.655c0.549,0.492,0.729,1.071,0.561,1.811c-0.182,0.794-0.264,1.61-0.41,2.552
		c0.83-0.458,1.538-0.833,2.23-1.234c0.566-0.328,1.113-0.32,1.678-0.004C72.48,13.509,73.186,13.889,74.014,14.344z"/>
	<path fill="#AA965C" d="M3.884,3.89c0-0.826,0-1.652,0-2.534c0.842,0,1.653,0,2.555,0c0,0.844,0,1.688,0,2.534l0.024-0.022
		c-0.868,0-1.735,0-2.603,0L3.884,3.89z"/>
	<path fill="#AA965C" d="M3.882,6.446c-0.826,0-1.652,0-2.534,0c0-0.843,0-1.654,0-2.557c0.844,0,1.69,0,2.536,0L3.86,3.867
		c0,0.868,0,1.735,0,2.603L3.882,6.446z"/>
	<path fill="#AA965C" d="M6.438,3.89c0.826,0,1.652,0,2.535,0c0,0.843,0,1.654,0,2.557c-0.843,0-1.688,0-2.534,0L6.462,6.47
		c0-0.867,0-1.734,0-2.603L6.438,3.89z"/>
	<path fill="#AA965C" d="M14.202,7.759c0-0.825,0-1.651,0-2.533c0.842,0,1.654,0,2.555,0c0,0.843,0,1.688,0,2.533l0.023-0.021
		c-0.868,0-1.734,0-2.602,0L14.202,7.759z"/>
	<path fill="#AA965C" d="M6.44,6.446c0,0.826,0,1.652,0,2.535c-0.843,0-1.655,0-2.558,0c0-0.844,0-1.689,0-2.535L3.86,6.47
		c0.868,0,1.735,0,2.603,0L6.44,6.446z"/>
	<path fill="#AA965C" d="M14.201,10.315c-0.826,0-1.652,0-2.534,0c0-0.842,0-1.654,0-2.557c0.845,0,1.69,0,2.536,0L14.18,7.737
		c0,0.867,0,1.734,0,2.602L14.201,10.315z"/>
	<path fill="#AA965C" d="M16.757,7.759c0.826,0,1.652,0,2.535,0c0,0.843,0,1.655,0,2.557c-0.843,0-1.688,0-2.534,0l0.022,0.023
		c0-0.867,0-1.734,0-2.602L16.757,7.759z"/>
	<path fill="#AA965C" d="M16.759,10.315c0,0.826,0,1.652,0,2.535c-0.843,0-1.655,0-2.558,0c0-0.844,0-1.689,0-2.535l-0.022,0.023
		c0.868,0,1.734,0,2.602,0L16.759,10.315z"/>
	<path fill="#AA965C" d="M73.535,73.541c0-0.826,0-1.652,0-2.534c0.842,0,1.652,0,2.555,0c0,0.845,0,1.688,0,2.534l0.023-0.021
		c-0.867,0-1.734,0-2.602,0L73.535,73.541z"/>
	<path fill="#AA965C" d="M73.533,76.098c-0.826,0-1.652,0-2.534,0c0-0.843,0-1.654,0-2.557c0.845,0,1.69,0,2.536,0l-0.023-0.021
		c0,0.867,0,1.733,0,2.603L73.533,76.098z"/>
	<path fill="#AA965C" d="M76.09,73.541c0.826,0,1.652,0,2.535,0c0,0.843,0,1.654,0,2.557c-0.843,0-1.688,0-2.533,0l0.021,0.023
		c0-0.868,0-1.734,0-2.604L76.09,73.541z"/>
	<path fill="#AA965C" d="M76.092,76.098c0,0.826,0,1.652,0,2.535c-0.844,0-1.654,0-2.559,0c0-0.844,0-1.689,0-2.535l-0.021,0.023
		c0.867,0,1.734,0,2.602,0L76.092,76.098z"/>
	<path fill="#AA965C" d="M7.743,65.789c0-3.557,2.909-6.454,6.467-6.444c3.553,0.009,6.442,2.925,6.426,6.486
		c-0.017,3.517-2.908,6.397-6.427,6.405C10.653,72.246,7.743,69.344,7.743,65.789z M18.057,65.775
		c-0.007-2.106-1.735-3.84-3.841-3.853c-2.142-0.012-3.899,1.739-3.893,3.88c0.006,2.105,1.736,3.842,3.84,3.854
		C16.302,69.671,18.063,67.915,18.057,65.775z"/>
</g>
</svg>
