<?xml version="1.0" encoding="utf-8"?>
<!-- Generator: Adobe Illustrator 16.0.0, SVG Export Plug-In . SVG Version: 6.00 Build 0)  -->
<!DOCTYPE svg PUBLIC "-//W3C//DTD SVG 1.1//EN" "http://www.w3.org/Graphics/SVG/1.1/DTD/svg11.dtd" [
	<!ENTITY ns_extend "http://ns.adobe.com/Extensibility/1.0/">
	<!ENTITY ns_ai "http://ns.adobe.com/AdobeIllustrator/10.0/">
	<!ENTITY ns_graphs "http://ns.adobe.com/Graphs/1.0/">
	<!ENTITY ns_vars "http://ns.adobe.com/Variables/1.0/">
	<!ENTITY ns_imrep "http://ns.adobe.com/ImageReplacement/1.0/">
	<!ENTITY ns_sfw "http://ns.adobe.com/SaveForWeb/1.0/">
	<!ENTITY ns_custom "http://ns.adobe.com/GenericCustomNamespace/1.0/">
	<!ENTITY ns_adobe_xpath "http://ns.adobe.com/XPath/1.0/">
]>
<svg version="1.1" id="Layer_1" xmlns:x="&ns_extend;" xmlns:i="&ns_ai;" xmlns:graph="&ns_graphs;"
	 xmlns="http://www.w3.org/2000/svg" xmlns:xlink="http://www.w3.org/1999/xlink" x="0px" y="0px" width="80px" height="80px"
	 viewBox="0 0 80 80" enable-background="new 0 0 80 80" xml:space="preserve">
<metadata>
	<sfw  xmlns="&ns_sfw;">
		<slices></slices>
		<sliceSourceBounds  width="75.269" height="80.001" y="410.499" x="411.866" bottomLeftOrigin="true"></sliceSourceBounds>
	</sfw>
</metadata>
<g>
	<path fill="#AA965C" d="M16.537,0c1.472,0.346,2.905,0.778,4.131,1.723c1.968,1.515,3.153,3.49,3.54,5.945
		c0.023,0.146,0.068,0.289,0.116,0.49c0.24-0.086,0.431-0.147,0.615-0.221c13.225-5.34,25.686-3.922,37.377,4.237
		c0.396,0.276,0.646,0.417,1.139,0.08c3.13-2.137,6.408-2.323,9.688-0.411c3.131,1.826,4.779,5.504,4.272,9.07
		c-0.331,2.327-1.116,4.484-2.306,6.498c-0.26,0.44-0.318,0.8-0.135,1.299c4.405,11.97,3.414,23.481-3.535,34.187
		c-6.295,9.699-15.381,15.283-26.895,16.81c-0.743,0.099-1.484,0.196-2.229,0.295c-1.563,0-3.125,0-4.688,0
		c-1.411-0.199-2.828-0.365-4.232-0.604c-6.48-1.1-12.257-3.772-17.299-7.967C9.121,65.628,4.716,58.26,3.019,49.325
		C2.06,44.273,2.168,39.228,3.268,34.206c0.222-1.017,0.741-1.45,1.513-1.268c0.724,0.171,1.002,0.772,0.787,1.759
		c-1.566,7.174-1.13,14.232,1.783,20.968c5.36,12.394,14.788,19.774,28.192,21.659c14.551,2.046,28.412-5.48,35.262-17.854
		c3.282-5.931,4.73-12.289,4.355-19.061c-0.012-0.173-0.035-0.345-0.045-0.438c-1.029,0.337-2.01,0.78-3.034,0.971
		c-3.015,0.562-6.19-0.74-7.604-3.435c-1.396-2.656-2.576-5.456-3.537-8.298c-0.489-1.445-0.285-3.125-0.403-4.698
		c-0.027-0.357-0.052-0.724-0.151-1.065c-0.947-3.184-0.934-6.15,0.864-9.009C58.133,10.46,44.895,6.31,38.061,7.277
		c0.253,0.564,0.396,1.139,0.727,1.568c0.714,0.926,1.529,1.774,2.294,2.661c1.854,2.146,1.777,4.872-0.209,6.885
		c-1.682,1.705-3.389,3.387-5.079,5.085c-1.628,1.634-3.6,2.422-5.897,2.421c-1.641,0-3.281,0.019-4.921-0.004
		c-1.646-0.022-3.119,0.447-4.457,1.405c-1.227,0.878-2.487,1.71-3.719,2.583c-1.068,0.757-2.187,0.967-3.366,0.329
		c-1.146-0.62-1.599-1.639-1.588-2.918c0.018-1.968,0.005-3.936-0.143-5.967c-0.436,0.627-0.937,1.218-1.295,1.887
		c-1.114,2.082-2.19,4.186-3.248,6.297c-0.391,0.779-0.82,1.107-1.482,0.958c-0.76-0.172-1.055-0.917-0.703-1.817
		c1.23-3.144,2.864-6.063,4.887-8.765c0.186-0.247,0.37-0.496,0.418-0.562c-1.009-2.049-2.108-3.92-2.872-5.921
		c-1.015-2.66-1.282-5.441-0.042-8.138c1.304-2.838,3.53-4.564,6.627-5.131C14.115,0.111,14.23,0.045,14.349,0
		C15.079,0,15.807,0,16.537,0z M14.192,23.183c0,1.396-0.024,2.719,0.018,4.041c0.009,0.316,0.161,0.746,0.395,0.9
		c0.18,0.118,0.641-0.037,0.89-0.202c1.256-0.833,2.489-1.703,3.722-2.571c1.711-1.205,3.597-1.821,5.7-1.79
		c1.664,0.025,3.33,0.008,4.995,0.002c1.486-0.004,2.841-0.417,3.919-1.465c1.865-1.813,3.709-3.648,5.524-5.512
		c0.953-0.978,0.953-2.332,0.078-3.402c-0.461-0.563-0.952-1.103-1.434-1.648c-1.051-1.186-2.219-2.307-2.148-4.099
		c-0.221,0.011-0.347,0.009-0.472,0.025c-3.51,0.429-6.851,1.441-10.083,2.86c-0.769,0.337-1.184,0.759-1.384,1.642
		c-0.894,3.949-3.171,7.119-5.86,10.048C16.992,23.167,15.842,23.817,14.192,23.183z M15.479,2.344
		c-3.861-0.006-6.904,3.324-6.534,7.163c0.448,4.641,3.008,8.155,6.122,11.357c0.133,0.137,0.662,0.102,0.832-0.049
		c0.542-0.48,1.023-1.035,1.489-1.593c2.311-2.776,4.148-5.776,4.56-9.476C22.381,5.858,19.334,2.351,15.479,2.344z M68.609,12.878
		c-0.463,0.059-0.936,0.079-1.389,0.182c-3.595,0.82-5.662,4.113-4.992,7.966c0.727,4.178,3.104,7.416,5.955,10.381
		c0.33,0.345,0.633,0.28,0.928-0.042c0.457-0.498,0.933-0.98,1.367-1.497c2.239-2.657,4.032-5.539,4.582-9.057
		C75.714,16.617,72.689,12.898,68.609,12.878z M63.482,29.642c0.004,0.044-0.015,0.126,0.014,0.188
		c0.943,2.11,1.789,4.272,2.865,6.313c1.279,2.42,4.312,3.268,6.764,2.073c1.775-0.867,1.789-0.892,1.404-2.817
		c-0.01-0.051-0.012-0.104-0.024-0.154c-0.423-1.589-0.846-3.179-1.301-4.888c-0.916,1.001-1.661,1.866-2.461,2.678
		c-1.304,1.322-2.97,1.318-4.259-0.032C65.448,31.914,64.479,30.76,63.482,29.642z"/>
	<path fill="#AA965C" d="M50.009,41.327c-1.165,1.34-2.237,2.646-3.389,3.88c-1.372,1.471-3.034,1.452-4.427,0.016
		c-2.807-2.895-5.127-6.094-6.176-10.061c-0.237-0.9-0.353-1.832-0.562-2.953c-0.664,0.135-1.455,0.133-2.072,0.46
		c-0.897,0.476-1.841,1.051-2.459,1.827c-1.504,1.891-2.851,3.91-4.223,5.902c-0.635,0.922-0.861,1.971-0.713,3.221
		c0.513-0.409,0.917-0.76,1.348-1.07c5.406-3.904,13.18-0.438,13.906,6.194c0.351,3.194-0.549,6.121-2.189,8.771
		c-1.225,1.978-2.768,3.76-4.211,5.598c-0.801,1.019-1.867,1.472-3.299,1.095c-0.045,1.911-0.239,3.78-0.09,5.624
		c0.147,1.818,2.319,2.65,3.919,1.611c1.418-0.922,2.792-1.909,4.18-2.875c2.138-1.484,4.267-2.98,6.409-4.459
		c1.604-1.106,2.962-2.451,4.075-4.051c0.968-1.389,1.948-2.767,2.933-4.143c0.54-0.757,1.18-0.928,1.784-0.501
		s0.66,1.081,0.122,1.849c-1.075,1.534-2.156,3.064-3.251,4.586c-1.197,1.666-2.677,3.043-4.36,4.211
		c-3.424,2.371-6.849,4.737-10.26,7.125c-1.706,1.195-3.507,1.471-5.361,0.483c-1.883-1.001-2.691-2.666-2.604-4.786
		c0.08-1.949,0.123-3.902,0.225-5.854c0.028-0.533-0.099-0.926-0.451-1.332c-2.258-2.607-4.047-5.481-4.848-8.885
		c-0.498-2.115-0.558-4.221,0.233-6.299c0.088-0.229,0.053-0.558-0.041-0.795c-0.976-2.474-0.688-4.793,0.819-6.966
		c1.039-1.496,2.16-2.938,3.143-4.47c1.771-2.761,4.157-4.398,7.548-4.377c0.082-0.242,0.163-0.457,0.228-0.675
		c1.235-4.157,5.356-6.905,9.5-6.332c4.508,0.623,7.789,4.249,7.869,8.705c0.043,2.423-0.638,4.671-1.687,6.827
		c-0.124,0.256-0.25,0.51-0.41,0.838c0.251,0.188,0.489,0.372,0.735,0.546c1.721,1.22,3.445,2.432,5.16,3.655
		c3.02,2.151,3.61,5.578,1.489,8.607c-0.253,0.362-0.491,0.741-0.794,1.062c-0.429,0.452-0.97,0.521-1.484,0.164
		c-0.539-0.375-0.692-0.918-0.356-1.503c0.284-0.495,0.649-0.942,0.957-1.425c0.95-1.489,0.812-3.416-0.532-4.467
		C54.275,44.291,52.094,42.824,50.009,41.327z M37.867,31.828c0.053,0.517,0.073,1.039,0.164,1.549
		c0.735,4.148,3.105,7.359,5.933,10.307c0.327,0.342,0.629,0.293,0.927-0.041c0.623-0.697,1.283-1.365,1.869-2.094
		c2.012-2.501,3.584-5.216,4.088-8.455c0.62-3.997-2.076-7.582-5.977-7.907C41.105,24.875,37.882,27.941,37.867,31.828z
		 M32.481,43.256c-3.988-0.008-7.008,3.484-6.5,7.473c0.57,4.465,3.042,7.875,6.029,11.01c0.319,0.336,0.615,0.328,0.925-0.01
		c0.42-0.461,0.866-0.899,1.269-1.377c2.418-2.857,4.357-5.939,4.76-9.791C39.367,46.718,36.333,43.266,32.481,43.256z"/>
	<path fill="#AA965C" d="M15.43,14.08c-2.719-0.009-4.91-2.212-4.903-4.931c0.006-2.712,2.212-4.922,4.918-4.926
		c2.733-0.004,4.995,2.27,4.955,4.982C20.361,11.928,18.156,14.09,15.43,14.08z M15.424,11.738c1.435,0.012,2.598-1.104,2.636-2.527
		c0.039-1.424-1.169-2.648-2.608-2.647c-1.416,0.002-2.578,1.162-2.587,2.581C12.857,10.569,13.997,11.726,15.424,11.738z"/>
	<path fill="#AA965C" d="M63.705,19.742c-0.012-2.737,2.145-4.926,4.874-4.947c2.754-0.021,4.989,2.191,4.981,4.932
		c-0.006,2.696-2.236,4.928-4.929,4.933C65.93,24.666,63.716,22.457,63.705,19.742z M66.045,19.704
		c-0.003,1.434,1.128,2.594,2.548,2.615c1.427,0.021,2.64-1.195,2.628-2.631c-0.014-1.419-1.176-2.561-2.603-2.555
		C67.175,17.139,66.049,18.264,66.045,19.704z"/>
	<path fill="#AA965C" d="M44.424,36.914c-2.732,0.007-4.924-2.16-4.937-4.882c-0.013-2.727,2.148-4.946,4.861-4.973
		c0.359-0.004,0.731,0.04,1.08,0.129c0.647,0.167,0.959,0.632,0.86,1.285c-0.099,0.659-0.55,0.974-1.208,0.988
		c-0.412,0.008-0.84-0.065-1.232,0.021c-1.345,0.29-2.146,1.455-2.007,2.835c0.125,1.239,1.21,2.224,2.488,2.256
		c1.351,0.035,2.46-0.91,2.659-2.253c0.047-0.304,0.021-0.73,0.205-0.878c0.347-0.278,0.834-0.562,1.242-0.534
		c0.652,0.043,0.908,0.597,0.907,1.248C49.342,34.711,47.077,36.906,44.424,36.914z"/>
	<path fill="#AA965C" d="M32.481,45.139c2.724,0.006,4.919,2.194,4.924,4.913c0.006,2.731-2.25,4.968-4.989,4.943
		c-2.693-0.022-4.916-2.282-4.889-4.97C27.554,47.311,29.76,45.133,32.481,45.139z M35.068,50.08c0.015-1.416-1.136-2.585-2.56-2.6
		c-1.438-0.017-2.597,1.09-2.64,2.52c-0.042,1.424,1.162,2.654,2.599,2.654C33.878,52.655,35.053,51.492,35.068,50.08z"/>
</g>
</svg>
