<?xml version="1.0" encoding="UTF-8"?>
<!-- Generator: Adobe Illustrator 16.0.0, SVG Export Plug-In . SVG Version: 6.00 Build 0)  -->
<!DOCTYPE svg PUBLIC "-//W3C//DTD SVG 1.1//EN" "http://www.w3.org/Graphics/SVG/1.1/DTD/svg11.dtd">
<svg version="1.1" id="Layer_1" xmlns:x="http://ns.adobe.com/Extensibility/1.0/" xmlns:i="http://ns.adobe.com/AdobeIllustrator/10.0/" xmlns:graph="http://ns.adobe.com/Graphs/1.0/" xmlns="http://www.w3.org/2000/svg" xmlns:xlink="http://www.w3.org/1999/xlink" x="0px" y="0px" width="50px" height="50px" viewBox="0 0 50 50" enable-background="new 0 0 50 50" xml:space="preserve">
<metadata>
	<sfw xmlns="http://ns.adobe.com/SaveForWeb/1.0/">
		<slices/>
		<sliceSourceBounds width="44.574" height="49.445" y="-49.723" x="2.713" bottomLeftOrigin="true"/>
	</sfw>
</metadata>
<g>
	<path fill-rule="evenodd" clip-rule="evenodd" d="M4.621,49.723c-0.085-0.039-0.168-0.08-0.255-0.114   c-0.979-0.376-1.562-1.074-1.621-2.129c-0.042-0.753-0.047-1.516,0.017-2.266c0.123-1.437,0.887-2.457,2.198-3.042   c0.303-0.136,0.388-0.297,0.386-0.611c-0.014-1.883-0.008-3.766-0.005-5.647c0-0.177-0.001-0.358,0.04-0.527   c0.086-0.358,0.332-0.546,0.7-0.537c0.366,0.009,0.606,0.203,0.676,0.565c0.033,0.171,0.029,0.352,0.029,0.528   c0.002,1.771,0.001,3.541,0.001,5.311c0,0.175,0,0.349,0,0.564c4.213,0,8.386,0,12.616,0c0.008-0.183,0.025-0.367,0.026-0.553   c0.001-2.526-0.001-5.053,0.001-7.579c0.002-2.192,1.287-3.471,3.482-3.471c1.416-0.001,2.832-0.001,4.249,0   c2.092,0.001,3.397,1.303,3.402,3.404c0.007,2.526,0.002,5.053,0.002,7.579c0,0.191,0,0.383,0,0.616c4.211,0,8.384,0,12.643,0   c0-0.19,0-0.391,0-0.591c0-5.182,0-10.363,0.001-15.545c0-0.192-0.006-0.389,0.028-0.576c0.064-0.364,0.307-0.565,0.669-0.579   c0.362-0.013,0.621,0.173,0.705,0.532c0.046,0.2,0.043,0.414,0.044,0.623c0.002,5.262,0.005,10.523-0.006,15.786   c-0.001,0.381,0.093,0.572,0.474,0.75c1.396,0.652,2.087,1.804,2.145,3.336c0.015,0.401-0.02,0.806,0.008,1.206   c0.101,1.464-0.472,2.486-1.9,2.966C31.79,49.723,18.206,49.723,4.621,49.723z M24.99,48.273c6.532,0,13.063,0.001,19.594,0   c0.94,0,1.235-0.296,1.238-1.245c0.002-0.499,0.016-0.999-0.006-1.496c-0.047-1.063-0.674-1.898-1.636-2.137   c-0.338-0.084-0.702-0.086-1.054-0.086c-12.081-0.004-24.163-0.003-36.245-0.003c-0.161,0-0.322-0.003-0.483,0.006   c-1.31,0.065-2.175,0.938-2.223,2.254c-0.017,0.481-0.005,0.965-0.004,1.447c0.003,0.979,0.287,1.26,1.271,1.26   C11.96,48.274,18.475,48.273,24.99,48.273z M29.078,41.829c0.019-0.108,0.034-0.156,0.034-0.203   c0.002-2.733,0.016-5.467-0.003-8.201c-0.007-1.086-0.724-1.757-1.811-1.761c-1.48-0.004-2.959-0.002-4.439-0.001   c-1.329,0-1.979,0.648-1.98,1.984c-0.003,2.557-0.001,5.113,0,7.671c0,0.169,0.017,0.338,0.027,0.511   C23.661,41.829,26.355,41.829,29.078,41.829z"/>
	<path fill-rule="evenodd" clip-rule="evenodd" d="M37.938,0.277c0.816,0.237,1.622,0.496,2.281,1.07   c1.109,0.964,1.675,2.178,1.677,3.647c0.005,2.494,0.007,4.989-0.005,7.483c-0.002,0.303,0.085,0.485,0.336,0.672   c1.586,1.184,2.395,2.783,2.423,4.76c0.021,1.416,0.01,2.833,0.003,4.248c-0.002,0.572-0.274,0.899-0.717,0.904   c-0.442,0.004-0.723-0.324-0.726-0.891c-0.007-1.335,0.003-2.671-0.004-4.007c-0.015-2.84-1.894-4.72-4.729-4.721   c-8.996-0.002-17.992-0.002-26.988,0c-2.33,0.001-4.101,1.35-4.582,3.503c-0.097,0.435-0.115,0.893-0.116,1.341   c-0.008,4.635-0.004,9.27-0.005,13.904c0,0.177,0.005,0.354-0.015,0.53c-0.047,0.414-0.302,0.651-0.704,0.653   c-0.403,0.003-0.656-0.237-0.712-0.647c-0.021-0.158-0.017-0.32-0.017-0.481c-0.001-4.667,0.011-9.334-0.006-14   c-0.008-2.164,0.786-3.903,2.538-5.199c0.132-0.098,0.215-0.344,0.216-0.521c0.014-2.446,0.007-4.892,0.009-7.338   C8.1,2.653,9.458,0.946,11.94,0.352c0.042-0.01,0.078-0.049,0.117-0.074C20.684,0.277,29.312,0.277,37.938,0.277z M40.435,12.121   c0.003-0.054,0.015-0.195,0.015-0.337c0.001-2.237,0.004-4.475-0.001-6.711c-0.005-2.004-1.361-3.346-3.38-3.346   c-8.047-0.003-16.095-0.003-24.142,0c-2.036,0-3.377,1.349-3.38,3.395c-0.003,2.205,0,4.41,0,6.615c0,0.156,0,0.313,0,0.388   c0.954-0.044,1.865-0.124,2.777-0.125c8.433-0.01,16.867-0.01,25.3,0C38.552,12.001,39.48,12.079,40.435,12.121z"/>
	<path fill-rule="evenodd" clip-rule="evenodd" d="M33.348,22.148c0-0.66-0.013-1.32,0.002-1.979c0.035-1.523,1.03-2.531,2.55-2.577   c0.659-0.02,1.32-0.021,1.979,0.001c1.514,0.049,2.521,1.072,2.541,2.587c0.018,1.335,0.017,2.671,0.001,4.007   c-0.019,1.544-1.045,2.568-2.579,2.59c-0.643,0.009-1.287,0.009-1.93,0c-1.501-0.024-2.511-1.007-2.559-2.506   C33.33,23.565,33.349,22.856,33.348,22.148L33.348,22.148z M38.974,22.248c0-0.691,0.015-1.384-0.003-2.075   c-0.019-0.708-0.407-1.104-1.115-1.129c-0.642-0.023-1.286-0.021-1.93-0.001c-0.718,0.022-1.113,0.404-1.123,1.113   c-0.019,1.351-0.018,2.702-0.002,4.053c0.01,0.745,0.399,1.106,1.156,1.119c0.611,0.012,1.223,0.011,1.834,0.001   c0.794-0.013,1.17-0.394,1.182-1.199C38.983,23.502,38.975,22.875,38.974,22.248z"/>
	<path fill-rule="evenodd" clip-rule="evenodd" d="M16.649,22.2c0,0.66,0.011,1.319-0.002,1.979c-0.031,1.583-1.039,2.583-2.615,2.6   c-0.644,0.006-1.287,0.011-1.931-0.002c-1.458-0.032-2.491-1.037-2.521-2.497c-0.028-1.399-0.029-2.8,0.001-4.199   c0.03-1.342,0.932-2.349,2.252-2.454c0.894-0.071,1.805-0.063,2.697,0.024c1.15,0.112,1.972,1.03,2.095,2.185   c0.009,0.079,0.02,0.16,0.021,0.24c0.001,0.708,0.001,1.416,0.001,2.124C16.647,22.2,16.648,22.2,16.649,22.2z M11.021,22.197   c0,0.66-0.011,1.319,0.003,1.978c0.016,0.751,0.394,1.136,1.13,1.152c0.643,0.015,1.287,0.016,1.93,0   c0.718-0.017,1.101-0.387,1.11-1.115c0.018-1.351,0.018-2.703-0.001-4.054c-0.009-0.71-0.405-1.092-1.122-1.115   c-0.627-0.021-1.255-0.019-1.882-0.002c-0.762,0.02-1.151,0.416-1.166,1.178C11.01,20.878,11.021,21.538,11.021,22.197z"/>
	<path fill-rule="evenodd" clip-rule="evenodd" d="M28.537,22.183c0,0.66,0.009,1.319-0.002,1.979   c-0.024,1.6-1.046,2.605-2.649,2.618c-0.627,0.005-1.256,0.01-1.883-0.001c-1.468-0.028-2.499-1.012-2.536-2.48   c-0.035-1.398-0.033-2.8-0.001-4.199c0.032-1.446,1.024-2.437,2.473-2.501c0.707-0.031,1.417-0.032,2.124,0.001   c1.447,0.067,2.417,1.059,2.468,2.509c0.024,0.691,0.004,1.383,0.004,2.076C28.536,22.183,28.536,22.183,28.537,22.183z    M27.089,22.173c-0.001,0-0.001,0-0.002,0c0-0.675,0.018-1.352-0.005-2.026c-0.022-0.688-0.402-1.076-1.088-1.102   c-0.659-0.026-1.32-0.024-1.979-0.001c-0.691,0.024-1.089,0.406-1.1,1.089c-0.021,1.366-0.021,2.735-0.001,4.102   c0.011,0.713,0.409,1.078,1.135,1.093c0.611,0.013,1.223,0.01,1.834,0.001c0.827-0.01,1.191-0.381,1.203-1.225   C27.097,23.46,27.089,22.816,27.089,22.173z"/>
	<path fill-rule="evenodd" clip-rule="evenodd" d="M40.424,34.82c0,0.66,0.009,1.319-0.002,1.979   c-0.025,1.563-1.062,2.587-2.624,2.597c-0.676,0.005-1.352,0.012-2.027-0.005c-1.26-0.029-2.326-0.955-2.382-2.21   c-0.07-1.574-0.071-3.155-0.002-4.729c0.055-1.276,1.132-2.211,2.411-2.235c0.676-0.013,1.352-0.006,2.028-0.002   c1.502,0.009,2.552,1.025,2.594,2.529C40.439,33.436,40.423,34.128,40.424,34.82z M34.796,34.791c0,0.66,0,1.319,0,1.979   c0,0.031,0,0.064,0.002,0.097c0.045,0.689,0.423,1.065,1.104,1.077c0.643,0.012,1.287,0.01,1.932,0.001   c0.707-0.01,1.124-0.39,1.135-1.096c0.02-1.353,0.017-2.704,0.001-4.056c-0.009-0.732-0.424-1.121-1.154-1.13   c-0.611-0.006-1.223-0.005-1.834,0c-0.773,0.007-1.164,0.378-1.182,1.147C34.784,33.472,34.796,34.131,34.796,34.791z"/>
	<path fill-rule="evenodd" clip-rule="evenodd" d="M16.649,34.82c0,0.66,0.011,1.32-0.002,1.979   c-0.031,1.583-1.046,2.585-2.619,2.596c-0.628,0.005-1.255,0.006-1.883,0c-1.461-0.016-2.523-1.004-2.562-2.455   c-0.038-1.432-0.042-2.865,0.002-4.297c0.044-1.427,1.114-2.416,2.541-2.428c0.692-0.006,1.384-0.012,2.076,0.002   c1.281,0.024,2.317,0.959,2.414,2.238c0.059,0.784,0.01,1.576,0.01,2.364C16.633,34.82,16.641,34.82,16.649,34.82z M15.2,34.831   c0-0.659,0-1.319,0-1.979c0-0.033,0-0.064-0.002-0.097c-0.045-0.711-0.428-1.083-1.143-1.092c-0.644-0.007-1.288-0.009-1.931,0.002   c-0.652,0.012-1.079,0.39-1.091,1.039c-0.025,1.399-0.025,2.801,0,4.2c0.012,0.652,0.436,1.026,1.09,1.039   c0.627,0.012,1.255,0.007,1.883,0.002c0.796-0.007,1.178-0.379,1.193-1.184C15.21,36.119,15.2,35.476,15.2,34.831z"/>
	<path fill-rule="evenodd" clip-rule="evenodd" d="M21.079,10.343c-1.914,0.007-3.476-1.537-3.487-3.445   c-0.011-1.9,1.547-3.464,3.46-3.475c1.918-0.01,3.469,1.53,3.474,3.448C24.53,8.798,23.002,10.337,21.079,10.343z M23.076,6.874   c-0.004-1.127-0.906-2.014-2.034-2.001c-1.1,0.013-1.991,0.903-2.002,1.999c-0.011,1.109,0.902,2.022,2.022,2.022   C22.194,8.895,23.081,8.006,23.076,6.874z"/>
	<path fill-rule="evenodd" clip-rule="evenodd" d="M15.322,7.531c-0.82,0-1.557,0-2.37,0c0,0.535,0.001,1.059-0.001,1.583   c0,0.208,0.011,0.42-0.018,0.625c-0.052,0.365-0.278,0.573-0.646,0.598c-0.365,0.024-0.625-0.142-0.729-0.499   c-0.044-0.15-0.052-0.315-0.053-0.475c-0.003-1.655-0.002-3.311-0.001-4.967c0-0.127,0-0.26,0.028-0.382   c0.094-0.4,0.354-0.61,0.766-0.578c0.389,0.031,0.628,0.264,0.64,0.656c0.02,0.639,0.005,1.278,0.005,1.946   c0.804,0,1.552,0,2.378,0c0-0.617-0.011-1.237,0.003-1.858c0.012-0.487,0.313-0.78,0.75-0.748c0.444,0.033,0.679,0.314,0.683,0.73   c0.015,1.815,0.016,3.632,0,5.448c-0.004,0.462-0.317,0.734-0.732,0.729c-0.421-0.004-0.69-0.276-0.7-0.75   C15.312,8.917,15.322,8.247,15.322,7.531z"/>
	<path fill-rule="evenodd" clip-rule="evenodd" d="M31.7,7.628c0,0.439,0,0.818,0,1.271c0.508,0,1-0.01,1.491,0.003   c0.349,0.009,0.664,0.151,0.727,0.512c0.037,0.221-0.038,0.509-0.167,0.696c-0.094,0.137-0.355,0.216-0.545,0.223   c-0.724,0.025-1.447,0.019-2.17,0.008c-0.532-0.008-0.802-0.269-0.805-0.808c-0.011-1.752-0.011-3.504,0-5.256   c0.004-0.531,0.284-0.801,0.812-0.809c0.706-0.013,1.414-0.012,2.121-0.001c0.486,0.008,0.802,0.297,0.81,0.71   c0.008,0.43-0.319,0.725-0.834,0.733c-0.464,0.007-0.929,0.001-1.429,0.001c0,0.419,0,0.811,0,1.268   c0.417,0,0.829-0.007,1.241,0.002c0.532,0.011,0.84,0.282,0.842,0.723c0.003,0.445-0.302,0.712-0.833,0.721   C32.56,7.634,32.159,7.628,31.7,7.628z"/>
	<path fill-rule="evenodd" clip-rule="evenodd" d="M27.638,4.895c0,1.438,0.001,2.817-0.001,4.196c0,0.209,0.009,0.419-0.017,0.626   c-0.049,0.388-0.283,0.605-0.674,0.62c-0.392,0.015-0.641-0.187-0.724-0.567c-0.034-0.156-0.032-0.32-0.033-0.479   c-0.002-1.286-0.001-2.57-0.001-3.855c0-0.172,0-0.344,0-0.54c-0.313-0.016-0.567-0.013-0.818-0.043   c-0.438-0.053-0.683-0.331-0.672-0.734c0.01-0.401,0.269-0.679,0.715-0.686c1.012-0.018,2.023-0.018,3.035,0   c0.44,0.009,0.701,0.297,0.707,0.696c0.005,0.398-0.246,0.674-0.685,0.725C28.219,4.882,27.963,4.88,27.638,4.895z"/>
	<path fill-rule="evenodd" clip-rule="evenodd" d="M36.569,8.897c0.411,0,0.763-0.011,1.112,0.003   c0.485,0.018,0.799,0.314,0.799,0.726c0,0.417-0.308,0.704-0.8,0.714c-0.595,0.012-1.189,0.012-1.784-0.005   c-0.536-0.015-0.771-0.266-0.772-0.827c-0.006-1.753-0.006-3.506,0-5.259c0.002-0.513,0.257-0.804,0.684-0.82   c0.443-0.017,0.751,0.291,0.757,0.809c0.013,1.142,0.005,2.284,0.005,3.425C36.569,8.048,36.569,8.433,36.569,8.897z"/>
</g>
</svg>