<?xml version="1.0" encoding="utf-8"?>
<!-- Generator: Adobe Illustrator 16.0.0, SVG Export Plug-In . SVG Version: 6.00 Build 0)  -->
<!DOCTYPE svg PUBLIC "-//W3C//DTD SVG 1.1//EN" "http://www.w3.org/Graphics/SVG/1.1/DTD/svg11.dtd" [
	<!ENTITY ns_extend "http://ns.adobe.com/Extensibility/1.0/">
	<!ENTITY ns_ai "http://ns.adobe.com/AdobeIllustrator/10.0/">
	<!ENTITY ns_graphs "http://ns.adobe.com/Graphs/1.0/">
	<!ENTITY ns_vars "http://ns.adobe.com/Variables/1.0/">
	<!ENTITY ns_imrep "http://ns.adobe.com/ImageReplacement/1.0/">
	<!ENTITY ns_sfw "http://ns.adobe.com/SaveForWeb/1.0/">
	<!ENTITY ns_custom "http://ns.adobe.com/GenericCustomNamespace/1.0/">
	<!ENTITY ns_adobe_xpath "http://ns.adobe.com/XPath/1.0/">
]>
<svg version="1.1" id="Layer_1" xmlns:x="&ns_extend;" xmlns:i="&ns_ai;" xmlns:graph="&ns_graphs;"
	 xmlns="http://www.w3.org/2000/svg" xmlns:xlink="http://www.w3.org/1999/xlink" x="0px" y="0px" width="80px" height="80px"
	 viewBox="0 0 80 80" enable-background="new 0 0 80 80" xml:space="preserve">
<metadata>
	<sfw  xmlns="&ns_sfw;">
		<slices></slices>
		<sliceSourceBounds  width="72.508" height="79.999" y="410.501" x="413.246" bottomLeftOrigin="true"></sliceSourceBounds>
	</sfw>
</metadata>
<g>
	<path fill="#AA965C" d="M40.471,0c0.562,0.432,0.72,1.007,0.71,1.7c-0.029,1.952-0.009,3.906-0.014,5.858
		c-0.001,0.26,0.061,0.601-0.076,0.76c-0.294,0.346-0.661,0.756-1.065,0.849c-0.545,0.124-1.106-0.259-1.118-0.837
		c-0.051-2.495-0.039-4.992,0.012-7.487C38.927,0.558,39.319,0.28,39.533,0C39.845,0,40.158,0,40.471,0z"/>
	<path fill="#AA965C" d="M30.558,61.609c0.309,0,0.589,0,0.869,0c2.891,0,5.782,0,8.673,0c0.183,0,0.365-0.008,0.546,0.004
		c0.799,0.046,1.27,0.494,1.26,1.193c-0.012,0.704-0.475,1.131-1.299,1.135c-3.021,0.01-6.042,0.004-9.063,0.004
		c-0.279,0-0.559,0-0.885,0c0,2.21-0.081,4.342,0.03,6.463c0.067,1.281,1.256,2.234,2.603,2.244
		c4.479,0.027,8.959,0.029,13.438-0.004c1.437-0.01,2.586-1.105,2.625-2.493c0.058-2.027,0.015-4.06,0.015-6.21
		c-1.007,0-1.985,0-2.964,0c-0.313,0-0.627,0.012-0.938-0.006c-0.692-0.037-1.157-0.478-1.188-1.103
		c-0.029-0.637,0.457-1.188,1.168-1.213c1.145-0.038,2.291-0.022,3.438-0.01c0.385,0.004,0.59-0.063,0.684-0.52
		c0.459-2.271,1.689-4.051,3.554-5.413c5.285-3.863,8.506-9.01,9.396-15.51c1.508-11.043-5.053-21.389-15.694-24.714
		c-6.489-2.028-12.697-1.206-18.556,2.241c-0.179,0.105-0.349,0.228-0.533,0.324c-0.655,0.342-1.297,0.199-1.639-0.355
		c-0.347-0.563-0.228-1.259,0.425-1.613c1.55-0.843,3.086-1.754,4.727-2.383c14.405-5.521,30.712,3.561,33.375,18.755
		c1.772,10.113-1.586,18.472-9.7,24.796c-2.172,1.692-3.331,3.68-3.213,6.455c0.086,2.002,0.021,4.01,0.016,6.016
		c-0.008,2.51-1.244,4.233-3.6,5.1c-0.252,0.093-0.51,0.334-0.639,0.575c-1.604,2.998-4.096,4.635-7.49,4.631
		c-3.395-0.004-5.882-1.646-7.481-4.646c-0.127-0.239-0.394-0.475-0.647-0.566c-2.311-0.84-3.574-2.585-3.583-5.03
		c-0.007-2.188-0.025-4.376,0.005-6.563c0.032-2.363-0.872-4.244-2.792-5.623c-3.541-2.543-6.255-5.773-8.151-9.7
		c-4.596-9.521-2.544-21.153,5.042-28.517c0.661-0.642,1.331-0.707,1.847-0.181c0.496,0.507,0.431,1.21-0.21,1.854
		c-3.648,3.659-5.95,8.011-6.55,13.161c-0.921,7.9,1.629,14.547,7.465,19.936c0.592,0.546,1.244,1.027,1.888,1.516
		C28.977,57.266,29.982,58.836,30.558,61.609z M44.948,75.055c-3.371,0-6.559,0-9.892,0c1.285,1.733,2.885,2.604,4.906,2.615
		C42.014,77.682,43.643,76.814,44.948,75.055z"/>
	<path fill="#AA965C" d="M57.167,38.849c0,0.755,0.015,1.511-0.004,2.266c-0.017,0.716-0.358,1.178-1.101,1.29
		c-0.873,0.132-1.752,0.241-2.619,0.415c-0.223,0.047-0.482,0.253-0.592,0.457c-0.258,0.479-0.468,0.988-0.627,1.509
		c-0.067,0.225-0.047,0.559,0.078,0.745c0.463,0.691,0.992,1.338,1.482,2.012c0.543,0.746,0.521,1.227-0.105,1.863
		c-1.021,1.039-2.055,2.07-3.096,3.092c-0.654,0.643-1.117,0.665-1.863,0.134c-0.232-0.166-0.494-0.312-0.68-0.522
		c-1.075-1.221-2.281-1.315-3.591-0.43c-0.222,0.148-0.456,0.414-0.505,0.661c-0.164,0.815-0.236,1.647-0.361,2.472
		c-0.12,0.793-0.51,1.145-1.311,1.151c-1.51,0.013-3.021,0.013-4.531,0c-0.809-0.006-1.195-0.353-1.327-1.134
		c-0.052-0.309-0.137-0.618-0.132-0.926c0.022-1.434-0.429-2.459-2.002-2.795c-0.471-0.101-0.79-0.19-1.185,0.144
		c-0.596,0.503-1.243,0.945-1.867,1.415c-0.612,0.461-1.195,0.448-1.747-0.104c-1.069-1.065-2.138-2.133-3.208-3.2
		c-0.548-0.546-0.583-1.13-0.122-1.746c0.187-0.25,0.375-0.5,0.562-0.75c1.287-1.716,1.295-1.72,0.417-3.647
		c-0.084-0.186-0.346-0.367-0.553-0.406c-0.842-0.159-1.698-0.246-2.543-0.395c-0.857-0.148-1.187-0.52-1.197-1.359
		c-0.018-1.484-0.013-2.97-0.002-4.454c0.005-0.755,0.367-1.22,1.147-1.326c0.876-0.12,1.753-0.238,2.621-0.405
		c0.203-0.04,0.423-0.241,0.542-0.427c0.848-1.329,0.821-2.56-0.44-3.653c-0.25-0.217-0.418-0.53-0.611-0.808
		c-0.379-0.542-0.37-1.088,0.094-1.563c1.11-1.136,2.235-2.258,3.371-3.369c0.472-0.462,1.02-0.494,1.559-0.105
		c0.696,0.503,1.388,1.014,2.062,1.546c0.318,0.252,0.574,0.226,0.974,0.131c1.555-0.364,2.23-1.292,2.133-2.858
		c-0.017-0.278,0.079-0.564,0.122-0.848c0.13-0.841,0.508-1.19,1.35-1.197c1.484-0.012,2.969-0.011,4.454-0.001
		c0.88,0.006,1.257,0.355,1.384,1.249c0.11,0.772,0.174,1.556,0.346,2.313c0.066,0.288,0.338,0.583,0.594,0.764
		c1.341,0.943,2.516,0.623,3.576-0.52c0.227-0.244,0.527-0.424,0.81-0.609c0.524-0.346,1.054-0.317,1.499,0.118
		c1.137,1.108,2.262,2.232,3.373,3.365c0.492,0.501,0.491,1.069,0.084,1.627c-0.507,0.693-1.061,1.356-1.525,2.075
		c-0.146,0.222-0.141,0.594-0.093,0.879c0.276,1.677,1.411,2.21,2.964,2.183c0.281-0.005,0.564,0.082,0.849,0.123
		c0.745,0.109,1.077,0.581,1.094,1.293C57.182,37.338,57.168,38.094,57.167,38.849z M51.382,48.242
		c-0.534-0.713-1.144-1.402-1.599-2.184c-0.215-0.367-0.284-0.959-0.152-1.363c0.362-1.104,0.817-2.187,1.34-3.227
		c0.18-0.357,0.627-0.693,1.02-0.805c0.744-0.209,1.542-0.219,2.305-0.377c0.201-0.041,0.491-0.311,0.505-0.493
		c0.058-0.746,0.024-1.499,0.024-2.313c-0.922-0.14-1.788-0.302-2.661-0.394c-0.724-0.076-1.088-0.453-1.32-1.12
		c-0.323-0.929-0.692-1.848-1.13-2.728c-0.334-0.672-0.306-1.216,0.164-1.795c0.538-0.663,1.027-1.364,1.447-1.924
		c-0.67-0.706-1.286-1.358-1.926-2.033c-0.641,0.478-1.326,0.951-1.969,1.478c-0.604,0.494-1.164,0.513-1.861,0.154
		c-0.85-0.438-1.741-0.818-2.654-1.101c-0.73-0.227-1.083-0.643-1.174-1.366c-0.105-0.846-0.234-1.688-0.355-2.549
		c-0.955,0-1.854,0-2.772,0c-0.124,0.892-0.247,1.741-0.358,2.592c-0.09,0.692-0.445,1.092-1.133,1.318
		c-0.933,0.308-1.85,0.688-2.729,1.126c-0.671,0.336-1.214,0.313-1.794-0.155c-0.664-0.535-1.364-1.025-1.97-1.478
		c-0.706,0.66-1.361,1.273-2.036,1.904c0.465,0.619,0.882,1.252,1.377,1.815c0.644,0.731,0.698,1.423,0.185,2.263
		c-0.375,0.614-0.721,1.3-0.852,1.997c-0.227,1.202-0.927,1.592-2.05,1.711c-2.187,0.232-2.168,0.274-2.087,2.493
		c0.016,0.441,0.181,0.585,0.586,0.628c0.697,0.075,1.388,0.219,2.086,0.283c0.723,0.066,1.087,0.453,1.32,1.12
		c0.323,0.929,0.697,1.847,1.132,2.728c0.332,0.671,0.301,1.221-0.164,1.799c-0.535,0.666-1.031,1.363-1.458,1.934
		c0.667,0.707,1.282,1.36,1.918,2.036c0.681-0.51,1.38-1.008,2.05-1.542c0.558-0.443,1.084-0.464,1.727-0.141
		c0.855,0.43,1.738,0.834,2.652,1.105c0.835,0.25,1.187,0.734,1.268,1.553c0.079,0.795,0.221,1.584,0.337,2.386
		c0.955,0,1.852,0,2.771,0c0.125-0.897,0.248-1.745,0.358-2.597c0.09-0.693,0.452-1.082,1.142-1.308
		c0.935-0.303,1.849-0.69,2.728-1.13c0.639-0.318,1.167-0.328,1.729,0.115c0.689,0.544,1.404,1.056,2.129,1.596
		C50.118,49.578,50.723,48.939,51.382,48.242z"/>
	<path fill="#AA965C" d="M8.313,37.374c-1.066,0-2.132,0.009-3.198-0.002c-0.845-0.009-1.369-0.463-1.369-1.157
		c0-0.698,0.519-1.173,1.365-1.179c2.158-0.015,4.316-0.015,6.474,0c0.845,0.006,1.367,0.48,1.37,1.175
		c0.003,0.696-0.52,1.151-1.365,1.161C10.497,37.383,9.405,37.374,8.313,37.374z"/>
	<path fill="#AA965C" d="M71.646,37.374c-1.092,0-2.185,0.01-3.275-0.004c-0.807-0.01-1.305-0.446-1.324-1.12
		c-0.021-0.704,0.491-1.205,1.327-1.212c2.185-0.018,4.369-0.018,6.553,0c0.832,0.007,1.351,0.516,1.326,1.216
		c-0.022,0.664-0.532,1.107-1.33,1.117C73.831,37.384,72.738,37.374,71.646,37.374z"/>
	<path fill="#AA965C" d="M66.131,11.384c-0.264,0.426-0.4,0.77-0.643,1.014c-1.51,1.539-3.036,3.062-4.57,4.577
		c-0.618,0.611-1.279,0.646-1.789,0.139c-0.512-0.509-0.479-1.165,0.133-1.781c1.536-1.551,3.09-3.084,4.629-4.631
		c0.414-0.416,0.92-0.584,1.408-0.291C65.632,10.609,65.836,11.025,66.131,11.384z"/>
	<path fill="#AA965C" d="M15.135,10.12c0.424,0.262,0.768,0.397,1.012,0.637c1.541,1.508,3.064,3.033,4.582,4.564
		c0.616,0.621,0.654,1.27,0.148,1.783c-0.5,0.506-1.182,0.476-1.791-0.126c-1.552-1.533-3.088-3.083-4.633-4.623
		c-0.411-0.409-0.594-0.913-0.292-1.405C14.365,10.618,14.777,10.414,15.135,10.12z"/>
	<path fill="#AA965C" d="M52.575,7.435c-0.517,1.212-0.902,2.287-1.433,3.285c-0.267,0.503-0.937,0.603-1.371,0.253
		c-0.322-0.259-0.66-0.855-0.576-1.2c0.238-0.973,0.654-1.909,1.072-2.827c0.246-0.543,0.82-0.725,1.325-0.485
		C51.977,6.641,52.236,7.084,52.575,7.435z"/>
	<path fill="#AA965C" d="M31.038,10.084c-0.334,0.354-0.593,0.861-0.946,0.938c-0.395,0.085-1.118-0.089-1.273-0.377
		c-0.509-0.949-0.906-1.981-1.167-3.027C27.574,7.306,28,6.67,28.347,6.505c0.312-0.147,1.075,0.016,1.22,0.275
		C30.13,7.787,30.525,8.888,31.038,10.084z"/>
	<path fill="#AA965C" d="M69.82,25.237c-0.161,0.188-0.389,0.634-0.75,0.825c-0.729,0.386-1.523,0.656-2.307,0.931
		c-0.699,0.245-1.34-0.028-1.572-0.611c-0.254-0.637,0.027-1.257,0.75-1.564c0.74-0.314,1.484-0.625,2.246-0.878
		C69.029,23.661,69.794,24.176,69.82,25.237z"/>
	<path fill="#AA965C" d="M14.875,25.697c0.022,1.007-0.662,1.578-1.472,1.331c-0.89-0.271-1.764-0.62-2.603-1.022
		c-0.542-0.26-0.757-0.777-0.528-1.386c0.225-0.595,0.705-0.904,1.292-0.723c0.962,0.297,1.905,0.677,2.814,1.108
		C14.647,25.135,14.778,25.555,14.875,25.697z"/>
	<path fill="#AA965C" d="M39.958,46.425c-4.148-0.016-7.542-3.411-7.558-7.563c-0.017-4.196,3.459-7.635,7.682-7.601
		c4.143,0.034,7.541,3.473,7.518,7.606C47.575,43.059,44.154,46.441,39.958,46.425z M39.996,44.081
		c2.879,0.001,5.22-2.312,5.257-5.193c0.038-2.882-2.347-5.281-5.249-5.282c-2.9-0.002-5.291,2.395-5.26,5.274
		C34.775,41.756,37.121,44.08,39.996,44.081z"/>
</g>
</svg>
