<?xml version="1.0" encoding="UTF-8"?>
<!-- Generator: Adobe Illustrator 16.0.0, SVG Export Plug-In . SVG Version: 6.00 Build 0)  -->
<!DOCTYPE svg PUBLIC "-//W3C//DTD SVG 1.1//EN" "http://www.w3.org/Graphics/SVG/1.1/DTD/svg11.dtd">
<svg version="1.1" id="Layer_1" xmlns:x="http://ns.adobe.com/Extensibility/1.0/" xmlns:i="http://ns.adobe.com/AdobeIllustrator/10.0/" xmlns:graph="http://ns.adobe.com/Graphs/1.0/" xmlns="http://www.w3.org/2000/svg" xmlns:xlink="http://www.w3.org/1999/xlink" x="0px" y="0px" width="50px" height="50px" viewBox="0 0 50 50" enable-background="new 0 0 50 50" xml:space="preserve">
<metadata>
	<sfw xmlns="http://ns.adobe.com/SaveForWeb/1.0/">
		<slices/>
		<sliceSourceBounds width="45.78" height="49.5" y="-49.75" x="2.11" bottomLeftOrigin="true"/>
	</sfw>
</metadata>
<g>
	<path fill-rule="evenodd" clip-rule="evenodd" d="M46.557,49.75c-14.373,0-28.746,0-43.118,0c-0.734-0.299-1.267-0.771-1.307-1.618   c-0.025-0.53-0.034-1.063,0.003-1.594c0.066-0.933,0.736-1.559,1.674-1.609c0.142-0.008,0.285-0.013,0.452-0.02   c0.011-0.146,0.03-0.271,0.03-0.397c0.001-6.891,0.003-13.781-0.01-20.673c0-0.188-0.12-0.428-0.262-0.557   c-0.888-0.801-1.35-1.784-1.353-2.979c-0.003-1.031-0.011-2.061,0.006-3.092c0.004-0.265,0.06-0.544,0.158-0.791   c1.166-2.944,2.37-5.873,3.506-8.829C6.746,6.524,7.368,5.91,8.559,6.027c0.265,0.027,0.351-0.092,0.396-0.35   C9.38,3.23,10.8,1.59,13.085,0.687c0.502-0.198,1.044-0.294,1.568-0.437c0.515,0,1.031,0,1.547,0   c0.09,0.029,0.179,0.072,0.273,0.086c1.419,0.225,2.62,0.867,3.592,1.918c0.217,0.235,0.43,0.327,0.745,0.326   c3.657-0.01,7.316-0.006,10.972-0.005c0.161,0,0.326-0.015,0.482,0.016c0.381,0.073,0.596,0.314,0.596,0.707   c0,0.39-0.21,0.636-0.594,0.708c-0.155,0.03-0.321,0.017-0.481,0.017c-3.302,0.001-6.605,0.001-9.908,0.001   c-0.172,0-0.345,0-0.437,0c0.149,0.925,0.406,1.821,0.407,2.719c0.001,0.896-0.255,1.793-0.402,2.715c0.098,0,0.273,0,0.449,0   c4.914,0,9.828,0,14.742,0c0.177,0,0.354-0.001,0.53-0.014c1.393-0.094,2.403-1.118,2.506-2.539   c0.099-1.354-0.787-2.554-2.145-2.792c-0.611-0.107-1.25-0.065-1.876-0.089c-0.535-0.021-0.827-0.283-0.817-0.742   c0.007-0.435,0.294-0.695,0.801-0.705c0.468-0.01,0.936-0.009,1.402-0.001c1.794,0.03,3.377,1.217,3.909,2.925   c0.052,0.166,0.102,0.332,0.161,0.526c0.159,0,0.304-0.001,0.446,0c1.155,0.011,1.584,0.302,2.01,1.365   c1.201,3.001,2.404,6.002,3.597,9.006c0.093,0.233,0.16,0.494,0.163,0.743c0.019,1.078,0.018,2.159,0.006,3.238   c-0.013,1.122-0.438,2.074-1.277,2.813c-0.257,0.226-0.355,0.438-0.354,0.774c0.01,6.799,0.008,13.599,0.008,20.397   c0,0.173,0,0.346,0,0.537c0.179,0.012,0.305,0.022,0.43,0.027c1.017,0.045,1.684,0.693,1.737,1.705   c0.018,0.321-0.013,0.646,0.01,0.966C47.955,48.639,47.561,49.379,46.557,49.75z M15.729,22.632   c-0.815,1.003-1.827,1.517-3.084,1.521c-1.271,0.002-2.28-0.545-3.095-1.525c-0.998,1.241-2.283,1.677-3.767,1.515   c0,6.961,0,13.862,0,20.752c0.486,0,0.93,0,1.414,0c0-0.223,0-0.413,0-0.604c0-5.026,0-10.055,0-15.082   c0-0.193-0.006-0.387,0.01-0.579c0.063-0.793,0.716-1.483,1.509-1.499c1.562-0.031,3.125-0.018,4.688-0.008   c0.415,0.001,0.656,0.238,0.69,0.656c0.033,0.407-0.213,0.705-0.635,0.771c-0.142,0.022-0.289,0.015-0.434,0.015   c-1.256,0.001-2.514,0.023-3.77-0.011c-0.501-0.015-0.619,0.153-0.618,0.633c0.017,5.075,0.01,10.151,0.011,15.228   c0,0.156,0.013,0.312,0.021,0.479c0.44,0,0.849,0,1.292,0c0-0.241,0-0.45,0-0.657c0-4.383-0.001-8.765,0-13.148   c0.001-0.894,0.305-1.208,1.178-1.209c9.232-0.002,18.466-0.002,27.698,0c0.88,0,1.191,0.313,1.193,1.193   c0.005,1.531,0.004,3.063,0,4.593c-0.001,0.338,0.009,0.681-0.045,1.011c-0.058,0.371-0.334,0.535-0.7,0.53   c-0.346-0.007-0.586-0.174-0.664-0.519c-0.037-0.17-0.039-0.351-0.04-0.527c-0.002-1.419-0.002-2.836-0.002-4.254   c0-0.174,0-0.347,0-0.539c-1.98,0-3.901,0-5.809,0c0,4.54,0,9.042,0,13.527c1.951,0,3.861,0,5.809,0c0-0.225,0-0.417,0-0.608   c0-1.402-0.004-2.804,0.003-4.205c0.003-0.6,0.245-0.894,0.706-0.902c0.48-0.009,0.736,0.295,0.741,0.918   c0.008,0.95,0.002,1.9,0.002,2.851c0,0.642,0,1.282,0,1.952c0.457,0,0.865,0,1.314,0c0-0.187,0-0.344,0-0.502   c0-5.059,0-10.119,0-15.179c0-0.652-0.001-0.653-0.674-0.653c-7.813,0-15.629,0-23.444,0c-0.177,0-0.357,0.01-0.53-0.018   c-0.42-0.065-0.665-0.372-0.626-0.777c0.041-0.417,0.287-0.63,0.701-0.65c0.128-0.008,0.258-0.004,0.387-0.004   c7.879-0.001,15.758-0.001,23.638,0c1.388,0,1.998,0.61,1.998,2.002c0.001,5.076,0,10.151,0,15.228c0,0.186,0,0.37,0,0.555   c0.522,0,0.967,0,1.424,0c0-6.931,0-13.833,0-20.774c-1.551,0.201-2.806-0.309-3.794-1.495c-0.813,1.002-1.823,1.519-3.083,1.522   c-1.273,0.003-2.284-0.547-3.088-1.512c-1.417,1.818-4.318,2.2-6.191,0.014c-0.786,0.963-1.79,1.492-3.046,1.499   c-1.275,0.005-2.293-0.525-3.092-1.5C20.102,24.807,17.191,24.497,15.729,22.632z M4.479,16.187c13.716,0,27.351,0,41.025,0   c-0.07-0.189-0.124-0.339-0.182-0.484c-0.998-2.494-1.996-4.987-2.995-7.48c-0.33-0.824-0.33-0.824-1.229-0.694   c-0.608,2.312-2.398,3.44-4.728,3.405c-5.154-0.077-10.31-0.021-15.466-0.03c-0.363-0.001-0.614,0.093-0.875,0.367   c-3.37,3.552-9.513,2.056-10.895-2.643C9.027,8.261,8.957,7.884,8.872,7.521C7.987,7.419,7.988,7.42,7.682,8.182   c-0.569,1.418-1.14,2.835-1.708,4.253C5.479,13.671,4.988,14.908,4.479,16.187z M18.748,31.357c0,5.661,0,11.288,0,16.914   c1.849,0,3.663,0,5.48,0c0-5.651,0-11.277,0-16.914C22.372,31.357,20.559,31.357,18.748,31.357z M31.258,31.354   c-1.847,0-3.661,0-5.499,0c0,5.655,0,11.281,0,16.922c1.849,0,3.663,0,5.499,0C31.258,42.638,31.258,37.021,31.258,31.354z    M17.228,44.904c0-4.546,0-9.042,0-13.546c-1.943,0-3.851,0-5.781,0c0,4.529,0,9.025,0,13.546   C13.388,44.904,15.296,44.904,17.228,44.904z M15.35,11.766c2.894,0.007,5.084-2.182,5.081-5.077   c-0.002-2.724-2.293-4.988-5.049-4.995c-2.764-0.006-5.053,2.232-5.074,4.962C10.284,9.553,12.462,11.758,15.35,11.766z    M17.248,46.378c-0.24,0-0.43,0-0.621,0c-3.913,0-7.825-0.008-11.737,0.004c-1.523,0.006-1.286-0.257-1.327,1.328   c-0.012,0.467,0.15,0.601,0.614,0.599c4.203-0.016,8.405-0.009,12.607-0.009c0.153,0,0.307,0,0.465,0   C17.248,47.634,17.248,47.041,17.248,46.378z M32.745,48.3c0.237,0,0.428,0,0.618,0c3.929,0,7.857,0,11.786,0   c1.282,0,1.282,0,1.276-1.273c-0.003-0.637-0.013-0.648-0.65-0.648c-4.171,0-8.34,0-12.511,0c-0.169,0-0.339,0-0.52,0   C32.745,47.045,32.745,47.639,32.745,48.3z M8.835,17.707c-1.598,0-3.146,0-4.72,0c0,0.889-0.009,1.74,0.001,2.591   c0.018,1.381,0.943,2.357,2.254,2.397c1.368,0.041,2.375-0.847,2.455-2.238C8.877,19.56,8.835,18.657,8.835,17.707z M10.296,17.688   c0,0.948-0.014,1.847,0.004,2.744c0.025,1.223,0.971,2.194,2.186,2.275c1.226,0.08,2.32-0.731,2.465-1.953   c0.107-0.905,0.054-1.829,0.066-2.743c0.001-0.105-0.033-0.212-0.052-0.323C13.412,17.688,11.889,17.688,10.296,17.688z    M35.025,17.69c0,1.047-0.078,2.062,0.021,3.059c0.11,1.133,1.088,1.923,2.216,1.963c1.146,0.041,2.218-0.705,2.361-1.848   c0.131-1.036,0.028-2.101,0.028-3.174C38.111,17.69,36.587,17.69,35.025,17.69z M45.868,17.7c-1.592,0-3.128,0-4.716,0   c0,0.844-0.003,1.66,0.003,2.476c0.001,0.192,0.019,0.386,0.053,0.575c0.229,1.246,1.154,1.984,2.425,1.945   c1.197-0.038,2.141-0.891,2.224-2.117C45.919,19.635,45.868,18.686,45.868,17.7z M16.502,17.695c0,1.049-0.069,2.066,0.019,3.07   c0.096,1.098,1.041,1.877,2.142,1.928c1.2,0.055,2.249-0.593,2.401-1.714c0.145-1.067,0.031-2.171,0.031-3.283   C19.601,17.695,18.078,17.695,16.502,17.695z M28.837,17.694c-0.013,0.168-0.031,0.294-0.03,0.419   c0.012,0.854-0.024,1.71,0.053,2.559c0.104,1.162,1.016,1.97,2.157,2.021c1.237,0.055,2.273-0.631,2.424-1.811   c0.132-1.039,0.027-2.107,0.027-3.188C31.936,17.694,30.411,17.694,28.837,17.694z M22.727,17.695c0,1.112-0.108,2.211,0.031,3.279   c0.136,1.049,1.084,1.694,2.151,1.722c1.099,0.026,2.098-0.544,2.279-1.552c0.199-1.121,0.158-2.283,0.223-3.448   C25.752,17.695,24.23,17.695,22.727,17.695z"/>
	<path fill-rule="evenodd" clip-rule="evenodd" d="M30.606,6.027c1.933,0,3.863,0,5.795,0c0.177,0,0.357-0.005,0.53,0.023   c0.346,0.056,0.537,0.278,0.565,0.624c0.028,0.359-0.112,0.638-0.475,0.741c-0.182,0.052-0.381,0.059-0.572,0.059   c-3.928,0.002-7.855,0.002-11.783,0.001c-0.16,0-0.326,0.003-0.479-0.035c-0.376-0.095-0.576-0.35-0.548-0.741   c0.026-0.39,0.253-0.614,0.641-0.66c0.159-0.018,0.322-0.012,0.482-0.012C26.712,6.026,28.659,6.027,30.606,6.027z"/>
	<path fill-rule="evenodd" clip-rule="evenodd" d="M23.164,39.417c0,0.177,0.011,0.354-0.002,0.53   c-0.033,0.413-0.334,0.719-0.713,0.703c-0.408-0.017-0.673-0.247-0.715-0.649c-0.038-0.366-0.032-0.741-0.004-1.109   c0.032-0.427,0.331-0.677,0.738-0.666c0.406,0.01,0.665,0.268,0.695,0.708C23.173,39.094,23.164,39.256,23.164,39.417z"/>
	<path fill-rule="evenodd" clip-rule="evenodd" d="M28.264,39.453c0,0.193,0.028,0.39-0.005,0.577   c-0.071,0.402-0.336,0.632-0.742,0.611c-0.404-0.021-0.656-0.261-0.68-0.677c-0.021-0.353-0.022-0.708-0.001-1.062   c0.025-0.41,0.26-0.648,0.674-0.68c0.396-0.027,0.708,0.236,0.758,0.649c0.023,0.191,0.003,0.387,0.003,0.58   C28.27,39.453,28.267,39.453,28.264,39.453z"/>
	<path fill-rule="evenodd" clip-rule="evenodd" d="M15.36,2.958c2.17-0.002,3.82,1.651,3.825,3.832   c0.004,2.037-1.746,3.771-3.813,3.777c-2.067,0.007-3.812-1.716-3.815-3.767C11.554,4.612,13.19,2.96,15.36,2.958z M15.378,9.087   c1.359-0.008,2.38-1.05,2.355-2.401c-0.023-1.266-1.093-2.297-2.378-2.294c-1.308,0.005-2.365,1.069-2.348,2.365   C13.025,8.099,14.04,9.096,15.378,9.087z"/>
</g>
</svg>