<?xml version="1.0" encoding="utf-8"?>
<!-- Generator: Adobe Illustrator 16.0.0, SVG Export Plug-In . SVG Version: 6.00 Build 0)  -->
<!DOCTYPE svg PUBLIC "-//W3C//DTD SVG 1.1//EN" "http://www.w3.org/Graphics/SVG/1.1/DTD/svg11.dtd" [
	<!ENTITY ns_extend "http://ns.adobe.com/Extensibility/1.0/">
	<!ENTITY ns_ai "http://ns.adobe.com/AdobeIllustrator/10.0/">
	<!ENTITY ns_graphs "http://ns.adobe.com/Graphs/1.0/">
	<!ENTITY ns_vars "http://ns.adobe.com/Variables/1.0/">
	<!ENTITY ns_imrep "http://ns.adobe.com/ImageReplacement/1.0/">
	<!ENTITY ns_sfw "http://ns.adobe.com/SaveForWeb/1.0/">
	<!ENTITY ns_custom "http://ns.adobe.com/GenericCustomNamespace/1.0/">
	<!ENTITY ns_adobe_xpath "http://ns.adobe.com/XPath/1.0/">
]>
<svg version="1.1" id="Layer_1" xmlns:x="&ns_extend;" xmlns:i="&ns_ai;" xmlns:graph="&ns_graphs;"
	 xmlns="http://www.w3.org/2000/svg" xmlns:xlink="http://www.w3.org/1999/xlink" x="0px" y="0px" width="80px" height="80px"
	 viewBox="0 0 80 80" enable-background="new 0 0 80 80" xml:space="preserve">
<metadata>
	<sfw  xmlns="&ns_sfw;">
		<slices></slices>
		<sliceSourceBounds  width="77.479" height="77.479" y="-78.739" x="1.261" bottomLeftOrigin="true"></sliceSourceBounds>
	</sfw>
</metadata>
<g>
	<path fill-rule="evenodd" clip-rule="evenodd" fill="#046032" d="M42.269,1.261c1.018,0.198,2.038,0.383,3.053,0.595
		c9.529,2.002,17.287,10.22,18.749,19.855c1.963,12.935-5.959,24.703-18.677,27.748C32.6,52.521,19.158,44.151,16.257,31.316
		c-2.64-11.681,3.075-23.136,13.985-28.014c2.196-0.982,4.505-1.575,6.889-1.882c0.153-0.02,0.368,0.084,0.447-0.16
		C39.142,1.261,40.706,1.261,42.269,1.261z M25.858,24.077c2.023,0.087,3.766,0.728,5.497,1.391
		c1.602,0.614,3.151,1.345,4.419,2.545c0.895,0.847,1.283,1.844,1.127,3.124c-0.215,1.758-0.774,3.373-1.608,4.914
		c-0.509,0.941-0.807,1.942-0.931,3.007c-0.156,1.347-0.085,2.727-0.568,4.027c-0.417,1.122-0.959,2.143-2.272,2.391
		c-1.324,0.25-2.18-0.539-2.966-1.437c-0.117-0.132-0.22-0.275-0.322-0.419c-0.871-1.219-1.495-2.567-1.969-3.975
		c-0.684-2.031-1.73-3.778-3.44-5.121c-1.232-0.968-1.93-2.282-2.243-3.826c-0.272-1.346-0.273-2.704-0.334-4.063
		c-0.012-0.242,0.068-0.52-0.158-0.71c-0.818-0.69-1.518-1.498-2.257-2.369c-1.186,11.483,7.016,22.779,19.639,24.259
		c5.909,0.692,11.285-0.833,16.042-4.432c2.567-1.941,4.603-4.336,6.16-7.253c-0.476-0.028-0.568,0.258-0.727,0.424
		c-0.856,0.892-1.724,1.773-2.695,2.54c-0.892,0.704-1.811,1.364-2.92,1.694c-1.525,0.456-2.613-0.245-2.79-1.811
		c-0.104-0.904-0.062-1.813-0.032-2.72c0.035-1.084,0.07-2.168,0.069-3.252c-0.002-1.707-0.679-3.082-2.129-4.022
		c-0.674-0.437-1.379-0.828-2.08-1.221c-0.904-0.506-1.774-1.057-2.498-1.811c-1.334-1.389-1.586-2.905-0.725-4.632
		c0.349-0.695,0.782-1.348,1.171-2.023c0.165-0.287,0.256-0.576,0.192-0.933c-0.289-1.622,1.605-3.365,3.192-2.949
		c0.514,0.135,1.023,0.286,1.556,0.279c0.278-0.003,0.752,0.104,0.762-0.235c0.01-0.341-0.456-0.393-0.788-0.417
		c-0.15-0.012-0.303-0.009-0.453-0.007c-1.136,0.02-2.269,0.003-3.396-0.144c-1.534-0.2-3.034-0.515-4.331-1.42
		c-1.868-1.306-2.18-3.471-0.776-5.273c0.707-0.908,1.641-1.465,2.736-1.782c1.326-0.387,2.45-1.114,3.52-2.095
		c-6.052-1.71-11.763-1.13-17.223,1.777c1.321,1.167,2.846,1.544,4.52,1.495c1.391-0.042,2.159,0.525,2.538,1.875
		c0.458,1.628,0.179,3.195-0.527,4.699c-0.817,1.743-2.175,2.929-3.894,3.74c-0.896,0.423-1.646,0.998-1.853,2.042
		c-0.209,1.05-0.838,1.813-1.641,2.458C27.687,23.02,26.854,23.532,25.858,24.077z M52.577,35.503c0,0.63-0.025,1.262,0.009,1.89
		c0.024,0.459-0.238,1.136,0.151,1.324c0.415,0.2,0.911-0.294,1.303-0.595c3.246-2.486,5.849-5.524,7.787-9.129
		c0.233-0.434,0.349-0.883,0.393-1.365c0.845-9.319-4.371-18.317-12.865-22.22c-0.433-0.199-0.697-0.163-1.044,0.161
		c-1.452,1.355-3.084,2.416-5.021,2.968c-0.62,0.177-1.124,0.559-1.48,1.109c-0.479,0.738-0.398,1.371,0.259,1.946
		c0.524,0.459,1.162,0.689,1.819,0.876c1.646,0.467,3.333,0.486,5.024,0.461c0.8-0.012,1.564,0.13,2.218,0.612
		c0.759,0.559,1.205,1.307,1.061,2.274c-0.146,0.971-0.772,1.543-1.7,1.819c-0.953,0.284-1.895,0.152-2.835-0.057
		c-0.743-0.165-1.046,0.048-1.005,0.787c0.042,0.71-0.174,1.343-0.502,1.946c-0.265,0.486-0.571,0.948-0.853,1.424
		c-0.853,1.438-0.729,2.126,0.557,3.185c0.508,0.418,1.066,0.755,1.644,1.067c0.774,0.418,1.551,0.835,2.269,1.352
		c1.661,1.196,2.672,2.76,2.858,4.838C52.724,33.291,52.669,34.396,52.577,35.503z M34.485,11.21
		c0.051-1.321-0.139-1.527-1.293-1.546c-1.542-0.025-3-0.329-4.262-1.282c-0.437-0.33-0.918-0.396-1.43-0.242
		c-1.334,0.405-2.565,0.947-3.55,2.02c-1.858,2.022-3.388,4.243-4.472,6.767c-1.459,3.396-1.25,4.391,1.468,6.953
		c0.39,0.368,0.756,0.854,1.203,0.015c0.125-0.234,0.475-0.356,0.733-0.51c1.361-0.811,2.781-1.521,4.06-2.465
		c0.583-0.43,1.011-0.929,1.171-1.685c0.18-0.849,0.648-1.574,1.305-2.164c0.645-0.579,1.418-0.948,2.171-1.354
		C33.436,14.722,34.325,13.122,34.485,11.21z M22.345,26.21c-0.024,1.18,0.068,2.275,0.169,3.37c0.141,1.54,0.827,2.754,2.05,3.709
		c1.185,0.925,2.094,2.089,2.757,3.448c0.464,0.951,0.783,1.957,1.194,2.927c0.519,1.227,1.03,2.466,2.011,3.417
		c0.512,0.5,0.75,0.452,1.07-0.186c0.368-0.73,0.513-1.524,0.535-2.334c0.06-2.145,0.502-4.182,1.583-6.061
		c0.583-1.013,0.854-2.127,1.068-3.275c0.162-0.866-0.093-1.457-0.746-1.97c-1.285-1.009-2.776-1.596-4.286-2.159
		c-1.615-0.603-3.231-1.044-5-0.752C23.985,26.471,23.159,26.698,22.345,26.21z M59.737,36.008c0.108-0.168,0.002-0.229-0.029-0.216
		c-0.079,0.036-0.15,0.104-0.207,0.174c-0.07,0.087,0.04,0.153,0.075,0.142C59.659,36.083,59.729,36.015,59.737,36.008z"/>
	<path fill-rule="evenodd" clip-rule="evenodd" fill="#046032" d="M50.896,78.739c-0.345-0.324-0.648-0.634-0.646-1.186
		c0.024-5.95-0.014-11.901,0.051-17.852c0.028-2.526,0.993-4.668,3.001-6.336c2.907-2.416,5.766-4.883,8.319-7.696
		c1.545-1.7,4.766-1.914,6.641,0.816c0.313-0.661,0.271-1.33,0.27-1.979c-0.011-4.135-0.046-8.271-0.055-12.406
		c-0.004-1.795,0.127-3.574,0.849-5.256c0.878-2.043,2.426-3.115,4.411-3.042c2.173,0.08,4.148,1.867,4.288,4.031
		c0.148,2.314,0.172,4.636,0.238,6.954c0.115,4.033,0.219,8.065,0.336,12.099c0.006,0.177-0.118,0.411,0.142,0.529
		c0,2.068,0,4.136,0,6.204c-0.118,0.026-0.141,0.116-0.162,0.22c-0.407,1.995-1.496,3.574-2.929,4.985
		c-3.209,3.16-6.373,6.367-9.57,9.541c-0.351,0.348-0.487,0.697-0.483,1.187c0.021,2.567-0.008,5.134,0.022,7.701
		c0.008,0.627-0.149,1.113-0.648,1.486C60.277,78.739,55.587,78.739,50.896,78.739z M76.317,40.507c-0.001,0-0.003,0-0.004,0
		c-0.109-4.058-0.223-8.115-0.323-12.173c-0.017-0.639-0.216-1.177-0.669-1.629c-1.261-1.259-2.993-1.036-3.853,0.52
		c-0.728,1.32-0.881,2.778-0.884,4.245c-0.01,4.312,0.02,8.623,0.029,12.935c0.001,0.68-0.01,1.357-0.13,2.032
		c-0.394,2.217-1.697,3.908-3.202,5.451c-2.535,2.6-5.126,5.143-7.695,7.709c-0.16,0.161-0.313,0.334-0.498,0.463
		c-0.482,0.336-0.959,0.289-1.361-0.132c-0.379-0.398-0.401-0.86-0.087-1.309c0.143-0.204,0.34-0.371,0.518-0.549
		c2.603-2.604,5.214-5.198,7.805-7.814c0.968-0.979,0.981-2.318,0.092-3.16c-0.853-0.808-2.233-0.804-3.052,0.135
		c-2.481,2.846-5.366,5.253-8.257,7.647c-1.529,1.268-2.284,2.854-2.353,4.784c-0.192,5.495-0.004,10.991-0.06,16.486
		c-0.005,0.51,0.245,0.488,0.599,0.487c3.328-0.007,6.656-0.016,9.984,0.009c0.515,0.004,0.614-0.16,0.609-0.634
		c-0.023-2.27,0.018-4.539-0.025-6.808c-0.016-0.842,0.22-1.46,0.835-2.063c3.38-3.324,6.705-6.704,10.074-10.038
		c1.538-1.521,2.31-3.297,2.228-5.48C76.497,47.917,76.42,44.212,76.317,40.507z"/>
	<path fill-rule="evenodd" clip-rule="evenodd" fill="#046032" d="M1.261,46.961c0.294-0.169,0.142-0.452,0.148-0.675
		c0.174-5.897,0.349-11.795,0.493-17.693c0.034-1.377,0.406-2.566,1.444-3.517c2.273-2.082,5.484-1.588,6.995,1.095
		c0.958,1.701,1.172,3.578,1.175,5.478c0.008,4.261-0.033,8.522-0.054,12.782c-0.004,0.679,0.023,1.353,0.229,2.127
		c0.799-1.164,1.764-1.899,3.097-2.07c1.42-0.182,2.716,0.177,3.648,1.229c2.517,2.85,5.418,5.272,8.317,7.697
		c1.888,1.579,2.851,3.604,2.929,5.985c0.2,6.074,0.022,12.152,0.062,18.228c0.003,0.527-0.324,0.802-0.641,1.112
		c-4.691,0-9.382,0-14.073,0c-0.505-0.37-0.656-0.859-0.649-1.486c0.029-2.542-0.002-5.084,0.024-7.625
		c0.005-0.545-0.142-0.929-0.535-1.318c-3.256-3.223-6.478-6.479-9.731-9.702c-1.337-1.325-2.311-2.838-2.708-4.693
		c-0.026-0.117-0.01-0.256-0.17-0.295c0-1.361,0-2.724,0-4.086c0.208-0.252,0.254-0.504,0-0.756
		C1.261,48.172,1.261,47.566,1.261,46.961z M27.653,67.802c-0.034-2.772,0.147-5.549-0.058-8.318
		c-0.131-1.78-0.785-3.286-2.195-4.472c-2.931-2.465-5.899-4.893-8.422-7.804c-0.669-0.772-1.789-0.884-2.631-0.405
		c-0.834,0.474-1.231,1.449-0.975,2.404c0.136,0.508,0.482,0.875,0.841,1.233c2.603,2.602,5.208,5.204,7.808,7.81
		c0.653,0.653,0.723,1.208,0.235,1.701c-0.482,0.489-1.063,0.425-1.703-0.215c-2.677-2.672-5.368-5.329-8.017-8.028
		c-2.112-2.15-3.299-4.645-3.185-7.787c0.151-4.13,0.072-8.269,0.063-12.404c-0.003-1.467-0.155-2.923-0.863-4.25
		c-0.591-1.11-1.48-1.56-2.535-1.321c-1.18,0.267-1.969,1.205-2.003,2.414c-0.215,7.712-0.403,15.425-0.654,23.136
		c-0.074,2.271,0.693,4.1,2.298,5.681c3.415,3.359,6.777,6.772,10.18,10.145c0.468,0.464,0.663,0.954,0.656,1.605
		c-0.024,2.345,0.004,4.689-0.02,7.034c-0.006,0.494,0.07,0.691,0.635,0.687c3.303-0.029,6.606-0.028,9.909-0.001
		c0.548,0.005,0.653-0.166,0.648-0.676C27.64,73.247,27.653,70.524,27.653,67.802z"/>
	<path fill-rule="evenodd" clip-rule="evenodd" fill="#046032" d="M1.261,48.777c0.254,0.252,0.208,0.504,0,0.756
		C1.261,49.281,1.261,49.029,1.261,48.777z"/>
	<path fill-rule="evenodd" clip-rule="evenodd" fill="#046032" d="M59.737,36.008c-0.009,0.007-0.078,0.075-0.161,0.1
		c-0.035,0.011-0.146-0.055-0.075-0.142c0.057-0.069,0.128-0.138,0.207-0.174C59.739,35.778,59.846,35.839,59.737,36.008z"/>
</g>
</svg>
