<?xml version="1.0" encoding="utf-8"?>
<!-- Generator: Adobe Illustrator 16.0.0, SVG Export Plug-In . SVG Version: 6.00 Build 0)  -->
<!DOCTYPE svg PUBLIC "-//W3C//DTD SVG 1.1//EN" "http://www.w3.org/Graphics/SVG/1.1/DTD/svg11.dtd" [
	<!ENTITY ns_extend "http://ns.adobe.com/Extensibility/1.0/">
	<!ENTITY ns_ai "http://ns.adobe.com/AdobeIllustrator/10.0/">
	<!ENTITY ns_graphs "http://ns.adobe.com/Graphs/1.0/">
	<!ENTITY ns_vars "http://ns.adobe.com/Variables/1.0/">
	<!ENTITY ns_imrep "http://ns.adobe.com/ImageReplacement/1.0/">
	<!ENTITY ns_sfw "http://ns.adobe.com/SaveForWeb/1.0/">
	<!ENTITY ns_custom "http://ns.adobe.com/GenericCustomNamespace/1.0/">
	<!ENTITY ns_adobe_xpath "http://ns.adobe.com/XPath/1.0/">
]>
<svg version="1.1" id="Layer_1" xmlns:x="&ns_extend;" xmlns:i="&ns_ai;" xmlns:graph="&ns_graphs;"
	 xmlns="http://www.w3.org/2000/svg" xmlns:xlink="http://www.w3.org/1999/xlink" x="0px" y="0px" width="75px" height="75px"
	 viewBox="0 0 75 75" enable-background="new 0 0 75 75" xml:space="preserve">
<metadata><?xpacket begin="﻿" id="W5M0MpCehiHzreSzNTczkc9d"?>
<x:xmpmeta xmlns:x="adobe:ns:meta/" x:xmptk="Adobe XMP Core 5.3-c011 66.145661, 2012/02/06-14:56:27        ">
   <rdf:RDF xmlns:rdf="http://www.w3.org/1999/02/22-rdf-syntax-ns#">
      <rdf:Description rdf:about=""
            xmlns:xmp="http://ns.adobe.com/xap/1.0/"
            xmlns:xmpGImg="http://ns.adobe.com/xap/1.0/g/img/">
         <xmp:CreatorTool>Adobe Illustrator CS6 (Windows)</xmp:CreatorTool>
         <xmp:CreateDate>2023-12-07T10:56:59+05:30</xmp:CreateDate>
         <xmp:MetadataDate>2023-12-07T10:57+05:30</xmp:MetadataDate>
         <xmp:ModifyDate>2023-12-07T10:57+05:30</xmp:ModifyDate>
         <xmp:Thumbnails>
            <rdf:Alt>
               <rdf:li rdf:parseType="Resource">
                  <xmpGImg:width>256</xmpGImg:width>
                  <xmpGImg:height>256</xmpGImg:height>
                  <xmpGImg:format>JPEG</xmpGImg:format>
                  <xmpGImg:image>/9j/4AAQSkZJRgABAgEASABIAAD/7QAsUGhvdG9zaG9wIDMuMAA4QklNA+0AAAAAABAASAAAAAEA&#xA;AQBIAAAAAQAB/+4ADkFkb2JlAGTAAAAAAf/bAIQABgQEBAUEBgUFBgkGBQYJCwgGBggLDAoKCwoK&#xA;DBAMDAwMDAwQDA4PEA8ODBMTFBQTExwbGxscHx8fHx8fHx8fHwEHBwcNDA0YEBAYGhURFRofHx8f&#xA;Hx8fHx8fHx8fHx8fHx8fHx8fHx8fHx8fHx8fHx8fHx8fHx8fHx8fHx8fHx8f/8AAEQgBAAEAAwER&#xA;AAIRAQMRAf/EAaIAAAAHAQEBAQEAAAAAAAAAAAQFAwIGAQAHCAkKCwEAAgIDAQEBAQEAAAAAAAAA&#xA;AQACAwQFBgcICQoLEAACAQMDAgQCBgcDBAIGAnMBAgMRBAAFIRIxQVEGE2EicYEUMpGhBxWxQiPB&#xA;UtHhMxZi8CRygvElQzRTkqKyY3PCNUQnk6OzNhdUZHTD0uIIJoMJChgZhJRFRqS0VtNVKBry4/PE&#xA;1OT0ZXWFlaW1xdXl9WZ2hpamtsbW5vY3R1dnd4eXp7fH1+f3OEhYaHiImKi4yNjo+Ck5SVlpeYmZ&#xA;qbnJ2en5KjpKWmp6ipqqusra6voRAAICAQIDBQUEBQYECAMDbQEAAhEDBCESMUEFURNhIgZxgZEy&#xA;obHwFMHR4SNCFVJicvEzJDRDghaSUyWiY7LCB3PSNeJEgxdUkwgJChgZJjZFGidkdFU38qOzwygp&#xA;0+PzhJSktMTU5PRldYWVpbXF1eX1RlZmdoaWprbG1ub2R1dnd4eXp7fH1+f3OEhYaHiImKi4yNjo&#xA;+DlJWWl5iZmpucnZ6fkqOkpaanqKmqq6ytrq+v/aAAwDAQACEQMRAD8A9U4q7FXYq7FXYq7FXYq7&#xA;FXYq7FXYq7FXYq7FXYq7FXYqh73UbGxj9S7nWFT05Hc/IdT9GU5tRjxC5kBBNMeuvzB0yMlbeCWe&#xA;n7Roin5VqfwzT5faDEPpBl9jA5AhP+Vj/wDau/5Lf9e8x/8ARH/tf+y/46jxEXa/mDpkhAuIJYK/&#xA;tCjqP1H8MyMXtBiP1Ax+1IyBkNjqVjfR+paTLMvfidx8wdx9ObjBqceUXAgswbVZ54YImlndY4k3&#xA;Z2NAPpOTnkjAXI0EsS1X8wIULR6bF6pG3ry1C/Qo3P00zn9V2/EbYhfmf1NZydzGbzzLrl2T6t3I&#xA;qn9iM+mv3LT8c0ebtLPk5yPw2+5gZFLz60zFjykbud2OYnql5sXUmiIb4oz2O4OD1R8lR9n5k1u0&#xA;I9K8kKj9iQ+ov3NXMvD2jnx8pH47/ekSLJtL/MCNiI9Sh4dvXiqR9KHf7s3ml7fB2yivMfqbBk72&#xA;W29zb3MKzW8iyxN9l1NRnQ48kZjiibDZapk1dirsVdirsVdirsVdirsVdirsVdirsVdirsVS3U/M&#xA;Wk6aStzMPVH+6U+J/uHT6cwtT2hhw7SO/cObEyASCb8xoA37mxZ18XkCH7gr5qJ+0Ub9MCfjX6Cx&#xA;8R0P5jQFv31iyL4pIHP3FUxh7RRv1QI+N/oC+Iv1bz7araqNMBe4kG7SLQR/MftH8Mlq+3oCH7re&#xA;R7+inJ3MNJ1DUrup9S6upPmzH+wZzZOTNPrKRa+bILL8v9TmUNdSpbA/s/3jj6BRf+Gzb4OwMst5&#xA;kR+0/j4shjKP/wCVcw0/3uav/GMf81Zl/wCh2P8AP+z9rLw0Bffl/qcKlrWVLkD9n+7c/IElf+Gz&#xA;Ez9gZY7wIl9h/HxYnGWPg6hpt3X95a3UfzVh/Zmo/eYZ9YyDHkraprepamyG7l5KgAWNRxWvjxHc&#xA;5Zqtblz1xnkpkSm2i+Sb69VZrsm1tzuoIrIw9l7fTmw0XYuTL6p+mP2sowtl9j5X0OzUcLZZHH+7&#xA;Jf3jV8d9h9AzosHZeDHyjZ7zu2CICaKqqoVQFUdANhmeABsGTbKrAhgCD1B3GJFqld95Y0S8B9S1&#xA;VHP+7Ihwb5/DsfpzBz9mYMnOIB7xsxMQWI615HvbRWmsWN1ANylP3qj5D7X0fdnPa3sOeP1Y/VH7&#xA;f2tZglGka1f6Vcepbt8BP72FvsMPcePvmu0mtyaeVxPvHQsRKnpej6xaapaC4tzQjaWI/aRvA/wO&#xA;dvo9ZDPDij8R3N4No7MpLsVdirsVdirsVdirsVdirsVdirsVdirEfNvm17Z20/T3pONp5x+x/kr/&#xA;AJXie3z6c72t2sYE48Z9XU93kPP7muc+gYhp+mahqdwY7WNpX6yOegr3ZjnO6fTZM8qgLP45tYBL&#xA;Jrb8upSlbm8VH/ljQsP+CJX9WbvH7OmvVOvcGYxuufy6mCVtrxXf+WRCo/4IFv1Y5fZ016J37x/a&#xA;pxpPF5Q117wWzWxjFfimNDGB48h1zXQ7I1BnwmNefRjwF6Bo+iWWlW4it1q5A9WY/ac+/t7Z1+j0&#xA;WPBGo8+p724RpH5lpdirsVQGr6LY6rb+lcp8Y/u5h9tD7Hw9sxNXoseeNSHuPUIMbSzRfJVjp1x9&#xA;Ymk+tyrvFyUKqnx41apzB0XYuPDLikeM9NmIhTIs3LN2KuxV2KuxV2KsW81+VI7uN76xTjeL8Uka&#xA;9JB32/m/Xmh7V7KGQHJjHr6jv/b97XKLD9F1e40q/W4jqU+zNF2ZO4+fhnOaLVy0+QSHxHeGuJp6&#xA;rbXENzbx3ELcopVDI3sc77HkE4iUeRcgKmTV2KuxV2KuxV2KuxV2KuxVp3RELuwVFFWYmgAHcnAS&#xA;ALKsa1Dz7pdu5S2je7YdWHwJ9DGp/DNJqO3sUDUQZ/YGByBL5fzFd4ZFSy9KUqRHJ6nIBiNiRwXp&#xA;mHL2iJiQIUem9/oY+IxfTbG41PUI7ZCTJM1Xc70HVmOaLTYJZ8giOZ/BLACy9V07TrXT7VLa2Tii&#xA;9T3Y92Y9yc77T6eGGAjEbN4FInL0uxV2KuxV2KuxV2KuxV2KuxV2KuxV2KuxV2KuxV57540VbS9W&#xA;+hWkF0TzA6LL1P8AwXX784/tzReHPxI/TL7/ANrTMJh+X+qlkm02Q/Y/ewV8CaOPvNfvzM7A1Vg4&#xA;j03H6WWM9GZZ0jY7FXYq7FXYq7FXYq7FXYqwHzvr0k922mwNS3gNJqftyeB9l/XnI9t68zn4UT6Y&#xA;8/M/s+9qnLogNC8p3+qp6/IW9rWglYVLU68V2rT55iaHsrJqBxfTDv8A1MYwtNrr8u5ViLWt4JJB&#xA;0SROIP8AsgW/Vmwy+zxA9ErPmGRxpj5S8sXOlyy3V4V9d14RoprxWtSSfemZvZPZksBM51xHZlCN&#xA;MmzeM3Yq7FXYq7FXYq7FXYq7FXYq7FXYq7FXYq7FXYq7FUr8z2IvNEuo6VdFMsf+snxbfMbZgdp4&#xA;PEwSHUCx8GMhYeeeXLw2mt2ctaKZBG/+q/wn9ecd2dm8PPE+dfPZpid3q+egOQ7FXYq7FXYq7FXY&#xA;ql2vaxHpOntcsOchPCGP+Zz4+w65h6/WDT4zLr096JGg8zv9U1HUZi9zM0pJ+FP2R7Ko2zh8+qyZ&#xA;jcyT+O5oJJQ0MMk0qRRqWkdgqqOpJNMohAyIA5lD2K2t47e3jgiFI4lCKPYCmekY8YhERHIOSqZN&#xA;XYq7FXYq7FXYq7FXYq7FXYq7FXYq7FXYq7FXYq7FXYq7FXMoZSpFQRQj2OAi1eMmsU3wneNtj7g5&#xA;5r9Mvc4z2bPS3JdirsVdirsVdirsVYn+YNpdzWtpLCjPDEz+txFaFgvEkDtsc572gxTlGJiLAu/s&#xA;a8gWeQdJeKKe+uIeLuQtuzih4ivIivjg7B0hiDkkNzyXGGVfVbX1vX9FPW/37xHLw+1Sub7wocXF&#xA;Q4u/q2Uq5Yqhd31nZxGW6mWFB3Y0r8h1P0ZVmzwxi5kAIJphV7+YF79dJtIkFopoFkB5OPEkHbOY&#xA;zdvz4/QBwefVrORmGlaraanaLc2zVB2dD9pG/lbOj0uqhnhxR/sbAbRmZKXYq7FXYq7FXYq7FXYq&#xA;7FXYq7FXYq7FXYq7FXYq07KilmNFUEk+wwE0LV43Rpp6KPikbYe7HPNvql7y4z2XPSnJdirsVdir&#xA;sVdirsVdirsVdiqX+YFvW0a6FlX6yU+Dj9qlRy4078a0zD14mcMvD+qv7fsRLk8ujsb6aQpHbyyS&#xA;V3VUYmv3ZwkcGSRoRJPuaKThPJGttZNcFFWQbrbE/Gw79NgfbNlHsTOYGVb93VlwFKbW81DTLovA&#xA;7286Hi69OnZlPX5HNfizZME7iTGQ/G7EGmR2v5iXyKBc2scxH7SMYyfwfNzi9ocgHqiD9n62YyOu&#xA;vzEvnUi2tY4Sf2nYyEfgmOX2hyEemIH2/qU5Eni8z64l4Lo3cjsDVo2J9Mjw4D4afLNbHtPOJ8fE&#xA;T93yY8RehaJr9jq0IaFuE6j97bsfiX+o987DRa/HqI3H6uobYytMszmTsVdirsVdirsVdirsVdir&#xA;sVdirsVSrzRfLZ6HcvWjyL6Ufjyk22+Qqc1/amfw8Ej1Ow+LGRoPP/LNmbvXLSOlVVxI/wAo/i/h&#xA;TOQ7Nw+JniPO/lu1RG71XO/b3Yq7FXYq7FXYqlXmDzBBo0EbvGZpZiRHGDxrxpyJahpSo7Zr+0O0&#xA;I6aIJFk8gxlKkg/5WP8A9q7/AJLf9e81P+iP/a/9l/x1h4jv+Vj/APau/wCS3/XvH/RH/tf+y/46&#xA;viO/5WP/ANq7/kt/17x/0R/7X/sv+Or4jINA16DWLZ5UjMUkbcZIieVK7gg7VBzb6DXx1MSQKI5h&#xA;nGVppmeydiqB1LQ9L1Ef6XArv0Eg+Fx/shvmJqdDizfXGz39UGIKQzfl3YMxMN1LGPBgr/q45qZ+&#xA;z2M/TIj7f1MPDdB+XenqwM11LIPBQqV+/lhh7PYx9Uifs/Wvhr9W8iWEtqo079xcRjbkxZX/ANat&#xA;aH3GS1fYWOUP3XpkPtUw7mEz22oabdcZVe2uENVIqp+asOv0Zy+THkwTo3GQa6pOrHz3rNuoSYJd&#xA;KO7ij/8ABLT8Rmzwdu54bSqXv5shMph/ysduP/HPHLx9Xb7uGZn+iM19H+y/YnxEvvvPes3ClYAl&#xA;qp7oOTfe1fwGYeft3PPaNR+9BmVXyt5qu4tQW31C4eW2n+EPKxYo56Gp7djlnZfak45OHJImMu/o&#xA;VjJ6BnXtzsVdirsVdirsVdirsVed+dtaW9vhaQtW3tSQWHRpD9o/R0zje2tb4uTgj9MfvaZytNPy&#xA;/wBKMcM2pSChl/dQf6oNWP0kU+jM/sDS1E5T12H6WWMdWYZ0bY7FXYq7FXYq7FWFfmOw5aevcCU/&#xA;fw/pnMe0Z3gP636GrIlXlrywmsQzyNcGERMFAC8q1FfEZgdm9mDUxJMuGkRjac/8q5h/5bm/5Fj/&#xA;AJqzZf6HY/z/ALP2svDSTzL5aXRlt2WczCYuDVeNONPc+OavtLs0aYRIlxcVsJRpOfy4b4NQXwMR&#xA;r8+f9M2fs4dpj+r+lnjZnnStjsVdirsVdirsVUbqztLuL0rmFJo/5XANPl4ZXlwwyCpAEIISG68h&#xA;aLKS0LS25/lVuS/cwJ/HNRl7BwS+m4/jzYnGEH/yrm3r/vc9PD0x/wA1Zjf6HY/zz8v2o8NGWvkH&#xA;RYiGmaW4PdWbiv8AwoB/HMnF2Dgj9Vy/HkkYww/zDoc2k3zRkE20lWt5PFfA+475znaGhlp8lfwn&#xA;kWuUaZH5S82q6pp+oPxdaLBOx2YdlYnv4HN12T2sCBjyHfof0FnCfQsxzpGx2KuxV2KuxV2KsS81&#xA;+bUgR7DT35XB+GadeiDuqn+b9Xzznu1e1hEHHjPq6nu/b9zXObFdC0afVr5YEqsS0aeXsq/1PbNB&#xA;odHLUZOEcupa4i3qlvBFbwJBCoSKNQqKOwGd7jgIREY8g5C/Jq7FXYq7FXYq7FWD/mN/f2P+rJ+t&#xA;c5b2i+qHx/Q1ZEV+XX+8V5/xkX/iOX+z30S96cbLs6JsYd+Y39zY/wCtJ+pc5v2i+mHx/Q15FP8A&#xA;LgiuoDv+5/43yHs5/lP839KMbNc6dtdirsVdirsVdirsVdirsVdiqF1PTLTUrRra5WqHdWH2lbsy&#xA;nxzH1Omhmhwy/sQRbzXXPL19pMxEi+pbE/u7hR8J9j4H2zidd2fk08t949C0yjSM0XznqOnqsM/+&#xA;lWw2CsaOo/yW/gcydF2zkw+mXqj9vzSJkMvsfN+hXYH+kCBz1Sf4P+G+z+OdFg7X0+T+LhPnt+xs&#xA;Ewm0U8Mo5RSLIPFSGH4ZsYzjLkbZOlmhiHKWRY18WIA/HGU4x5mlSq+826FaA1uBO46JD8ZP0j4f&#xA;xzX5+1tPj/i4j5b/ALGJmGI61511C+VobYfVLc7HiayMPduw9hnPa3trJl9MfRH7fm1mdpdougX2&#xA;rTcYF4wqf3s7fZX+p9swtFoMmolUfp6ljGNvS9K0q00y0W2tloBu7n7Tt4nO30ulhghwx/tbwKRm&#xA;ZKXYq7FXYq7FXYq7FWCfmL/vbZ/8Y2/4lnKe0X1x9zVkTH8vP+OZc/8AGf8A40XMz2e/upf1v0BO&#xA;PkyrN+2MR/MX/eOz/wCMjf8AEc532i+iHva8iF/Ln+/vv9WP9bZR7O/VP4fpRjZxnUtrsVdirsVd&#xA;irsVdirsVdirsVdiq2WKKWNo5UDxsKMjAEEe4ORlESFEWFYtqvkGzmJk0+T6s539J6tGfkftL+Oa&#xA;HVdgwlvjPCe7p+z7Ws4+5jN35S1+2JratKo6ND+8r9A+L8M0ebsnUQ/hv3b/ALWBgUtks7uM0kgk&#xA;Q+DKw/WMwpYZjmCPgxppLS6kNEhdz4KpJ/AYxxTPIH5LSZWnlTXrojjaNEvdpv3YH0Nv+GZuHsrU&#xA;T5RI9+zIRLJdL8gW0RWTUZfXYb+jHVU+lvtH8M3el7AjHfIeLyHL8fJmMfeyqGGGCJYoUWONBRUU&#xA;UAHyGb+EBEVEUGxfkldirsVdirsVdirsVdirAvzEb/cjar4Qk/ex/pnJe0J/eRH9H9LVk5pr+Xij&#xA;9ETt3NwR9yJ/XM/2fH7mR/pfoCcfJlGb5sYn+Yi/7j7VvCYj71P9M5/2hH7uJ/pfoa8nJA/l0x+t&#xA;3i9jGh+5j/XMX2dPrmPIIxs6zqm12KuxV2KuxV2KuxV2KuxV2KuxV2KuxV2KuxV2KuxV2KuxV2Ku&#xA;xV2KuxV2KuxV2KuxVgH5hkfpW3HcQA0+btnI+0J/ex/q/pLVk5pz+XwI0WYnvcMR/wAAgzZez4/c&#xA;H+sfuDLHyZNm8ZsV/MMH9F2x7CcCvzRs0HtCP3Uf636C15OSW/l2w+v3a9zECPob+3ML2eP7yXu/&#xA;SjGzzOsbXYq7FXYq7FXYq7FXYq7FXYq7FXYq7FXYq7FXYq7FXYq7FXYq7FXYq7FXYq7FXYq7FXn3&#xA;5hf8dqH/AJhl/wCTj5x/tB/fj+oPvLTk5p75B/44bf8AGd/1Lm27B/uP84/oZ4+TJM3TNjH5hf8A&#xA;HFh/5iV/5Nvmi9oP7gf1x9xYZOSUfl5/x07n/jB/xuua72e/vZf1f0hjj5s+zrm1iH5h3c8cFnbx&#xA;yFY5jI0qg0rx48a+3xHOc9oc0oxjEHY3fwpryFg6xyN9lS3yFc5YRJ5NTmjdftKVr0qKYmJHNWc/&#xA;l5eTy213byOWjgMZjBNac+VQPb4c6r2fzSlGUSdo1Xxv9TbjLLs6JsYj+YV5cRW9pbxuUjmMhkCm&#xA;leHGgPt8Wc77QZpRjGIO0rv4V+tryFgyxu32VLU60Fc5URJ5NTmjkX7SlfmKYmJHNWcfl5eTyQXd&#xA;tJIWjhMbRKTWnLlyp7fCM6n2ezSlGUSdhVfG23GWX50bYxL8wryeG1tbeNyiTs5kC7cgnGgP/BZz&#xA;3tBmlGEYg7Su/hTXkLBVjdvsqWp1oK5ygiTyanNHIv2lK/MUxMSOas3/AC8vJ5Ibu2kctHFwaJTv&#xA;x5cg1PuGdT7PZpESiTsKr7W3GWYZ0bY7FXYq7FXYq7FXYq7FXYq7FXYq7FXnfn8k64gPaBAP+CY5&#xA;xvb5/fj+qP0tOTmyPyIANBUjvK5P4DNz2EP8H+JZw5Mhzcs2Nef1B0NCe06Ef8CwzSdvj9wP6w/S&#xA;wyckj/L0n9Mzjt9Xbb/Zpmq9n/78/wBT9IYY+b0HOwbmC/mK9buzTb4Y2PvuwH8M5T2iPrgPItWR&#xA;Hfl2lNOun8ZgPuUf1zL9nh+7kf6X6E4+TvzESthaP4Skfev9mD2hH7uJ/pfoXIgvy6b/AEq9WnVE&#xA;NfkT/XMb2dPrmPIIxs5zqm1g35it/pVktOiOa/Mj+mcr7RH1wHkWrIjPy7Slhdv4ygfcv9uZPs8P&#xA;3cj5/oTjb/MRK6dav4TEfep/ph9oR+7if6X6FyckD+XT0vLxP5o1NPk1P45iezp9cx5BGNnWdW2s&#xA;H/MZ63Fin8qSGnzKj+Gct7RH1QHkf0NWRF/l0lLK7en2pFWvyWv8cyPZ6PokfNONd+YaV0y2en2Z&#xA;uNfmhP8ADJe0Mf3UT/S/QuTkl/5dPS9u0r9qJWp8mp/HMP2el65DyRjZ3nVtrsVdirsVdirsVdir&#xA;sVdirsVdirsVec+fWB12n8sKA/eT/HOM7eP+Ef5oacnNk/kZSPL8Z/mkkI/4Kn8M3nYY/wAHHvLO&#xA;HJP827Njnn1SdCqP2ZkJ+4j+OaXt4f4P/nBhk5Mf/L9qa3IP5rdx/wAOh/hmo7AP78/1T94YY+b0&#xA;POxbnn35hPXWIF2+G3U/SXbOQ9oD++A/o/pLTk5p5+X6cdEkP807n/hVH8M2nYArAf6x+4M8fJr8&#xA;wErosR/luFP/AAjjB2+LwD+sPuK5OSS/l43+5e4WnW3Jr8nX+uaz2eP76Q/o/pDDHzegZ17c8/8A&#xA;zDb/AHL2606W4Nfm7f0zkPaE/voj+j+ktOTmnX5fJTRZW/muGP3IgzZ9gCsB/rH7gzx8m/P6ctDQ&#xA;/wAk6H/hWH8cPb4vAP6w+4rk5JH+Xr01idezW7feHXNV7Pn98R/R/SGGPm9BzsG5gH5hvXVbdP5Y&#xA;AafN2H8M5H2hP72I/o/pLVk5px+XyU0aZqbtcNv7BEzY+z8f3BP9L9AZY+S/z8nLQ1NPsTo3/CsP&#xA;45Lt6N4PdIfpXJySH8vnprMy12a3bb3Dqc1Xs+f35H9H9IYY+b0LOwbnYq7FXYq7FXYq7FXYq7FX&#xA;Yq7FXYq8389f8d9/+Mafqziu3P8AGD7g0z5sr8k/8o7B/rSf8TOb/sT/ABaPx+9nDknubZmx7z1/&#xA;xwH/AOMifrzT9uf4ufeGE+TG/IP/AB3T/wAYX/WuaTsH/GP80/oYY+b0XOzbnnHnt+WvMNvgiQfr&#xA;P8c4vt03qPgGmfNlPkdOPl6E/wAzyH/hiP4ZvexBWmHvP3s4cmvPKcvL8h/lkjP/AA1P449uC9Of&#xA;eFnyYx5DamvUp9qJx+o/wzRdhH/CP80sIc3o2do3POfPjV16lPsxIP1n+OcX26f8I/zQ0z5sn8jJ&#xA;x8vxn+eRz+NP4ZvewxWnHvLOHJvzwnLy9Mf5HjP/AAwH8cPbYvTH3j71nyYt5Efjr6j+eJx+o/wz&#xA;Q9hGtR7wWEOb0fO0bnnXn1+WugfyQoPxY/xzjO3jeo90R+lpyc2S+RU46Ahp9uR2/Gn8M3fYca04&#xA;8yWcOS/zunLy7OafYaNv+HA/jku243pj5Efes+TFPIr8dfQV+3G6/hX+GaDsOVageYLCHN6Rnatz&#xA;sVdirsVdirsVdirsVdirsVdirsVeaedv+Uin/wBWP/iAziO2/wDGZfD7mifNmPkz/lG7P/np/wAn&#xA;WzpOxv8AFY/H/dFthyTrNmySLzv/AMo7P/rR/wDExmp7b/xaXw+9hPkxTyL/AMd9P+Mb/qzQdh/4&#xA;wPcWEOb0jO1bnmPnN+XmO66UURgU/wCMa5w3bJvUy+H3BonzZt5QTj5csx7OfvkY/wAc6fsgVpof&#xA;H7y2w5NecE5eXLweAQ/dIpx7YF6afw+8LPkwvyW1PMdqKfaEg/5Jsf4ZzPYp/wAJj8fuLVDm9Nzu&#xA;G95l50avmO6FPsiMf8k1P8c4fto/4TL4fcGifNmnk9OPlyzHiHP3yMc6bscVpofH7y2w5N+b05+X&#xA;LweyHb/JkU/wx7XF6afw+8LPkwnyY/HzHa9g3qA/8i2zmOxjWpj8fuLVDm9OzuW95n52fl5iuB/I&#xA;sY/4QH+OcP20b1MvKvuaJ82ZeTU4+XLTahb1GP0yN/DOl7HjWmj8fvLbDkv82pz8u3opWiq3/Aup&#xA;/hku1o3pp/jqFnyYP5Nfj5jtN6Buan6Y2p+Oct2Oa1Mfj9xaoc3p+d03uxV2KuxV2KuxV2KuxV2K&#xA;uxV2KuxV5l50YnzHdD+URgf8i1P8c4btk/4TL4fcGifNmvlBQvlyzA8HP3yMc6fsgVpofH7y2w5J&#xA;xmyZJJ50Wvly6P8AKYz/AMlFH8c1fbI/waXw+8MZ8mIeR2I8wwgftJID/wACT/DOd7EP+Ej3H7mu&#xA;HN6VnbNzyvzQ/PzBenbaSm3+SAP4ZwPahvUT97RLm9D8uJx0KxH/ABSp+8V/jnY9nCtPD+qG2PJr&#xA;zKnLQb4f8VMfu3wdpC9PP+qsuTz7yq3HzBZGlfjI+9SM5Dss1qYe9qjzep53re8s81Ny8wXp6fGB&#xA;9ygZwXahvUz97RLm9B8tJx0GxH/FSn7986/s0Vp4f1W2PJvzGnPQr4f8Usdv8kV/hh7RF6ef9UrL&#xA;k888rvw8wWR8ZKb/AOUCP45x3ZhrUQ97VHm9Uzvm95b5sfn5hvT4OBv/AJKgfwzg+1Tepn7/ANDR&#xA;Pmz/AMsJw0CxFKVjDf8ABEn+Odd2ZGtPD3NseS/zCnPQ78UrSB2/4EV/hku0I3gn/VKZcnnXll+G&#xA;v2JrSsoX/ggR/HOM7MlWoh72mPN6rnft7sVdirsVdirsVdirsVdirsVdirsVeYecSD5kvCN/7sfd&#xA;Eozhe2D/AITP4f7kNE+bOfKYI8vWQO3wE/e5OdV2UP8ABoe79LbDkm2bBkk3nIE+W7ym/wDdn7pV&#xA;zWdsD/Bp/D/dBjPkwzyUwHmK3B7rIB/wBOc12Kf8Jj8fuaoc3pmdw3vJNdfnrV+21PrEoBHgHIzz&#xA;zXG88/6x+9x5c3qGkJw0myT+WCIfcgzu9IKwwH9Efc3jk1rKc9Ivl/mt5R/whwawXhmP6J+5TyeY&#xA;6C3HW7A0r/pEY+9wM4bQGs8P6w+9ojzetZ6E5DyXX25a3fn/AJeJB9zEZ57rzeef9Y/e48ub07Rk&#xA;4aRYr/LbxD/hBnc6MVhgP6I+5vHJvV056Vep/NBKNvdDh1YvDMf0T9ynk8v0N+GtWDdB9YiqT4Fw&#xA;DnCaE1ngf6Q+9ojzet56G5DybzA/PXL8+E8g3/yWI/hnn3aBvPP+sXHlzemaInDRrFaUIt4qj34C&#xA;udxoo1hgP6I+5vjyX6qnqaZeJSvKCRafNCMlqo3ikP6J+5TyeW6I/DWLFq0AuIqn25iucHojWaB/&#xA;pD72iPN65nobkOxV2KuxV2KuxV2KuxV2KuxV2KuxV5b5t/5SK9/1l/4gucH2t/jM/wAdA0T5s/8A&#xA;LH/HAsf+MY/Wc67sz/F4e5tjyTPM5klHm3/lHb3/AFV/4mua7tb/ABaf46hjPkwjyZ/ykln/AM9P&#xA;+TT5y3Y3+NQ+P+5LVDm9Ozum949fvzvrl9vilc7dN2JzzjObySPmXHL122ThbRJ/Kij7hnomIVED&#xA;ycgNXa87WZf5kYfeDgyi4EeRUvI9ObjqFq1K8ZYzT5MM8805rJE/0h97jjm9hz0dyHj+otz1C6b+&#xA;aaQ/exzzjUm8kj/SP3uOeb1u0ThaQp/LGo+4DPQ8QqAHkHIDdynO2lT+ZGG3uMOQXEjyUvIbB+F9&#xA;bv04yoan2YHPOsBrJE+YccPYs9Ich4/qb89Su368ppDU+7E55zqTeWR/pH73HPN61ZJwsrdKU4xo&#xA;tPkoGeg4Y1CI8g3hfOnqQSJSvJStPmKZOcbiQl5BZPwvIHrTjIjV+TA55zhlU4nzDjB7FnpDkuxV&#xA;2KuxV2KuxV2KuxV2KuxV2KuxV5X5oJPmC9J/35T7gBnA9qH/AAifvaJc2Zw6tDpPlKzuWXk3pIsU&#xA;dacnYVp/E500NXHT6OMj/NFe9sugwXUNb1S/lMlxcOQekakqg+SjbOV1Gty5TcpH9DUZEoQyysKF&#xA;2IPUEnMYzJ6oWqzKaqSD4jADSrvXm/3433nJccu9VmQVf683+/G+85Pjl3q71pv9+N95wccu9VmR&#xA;Vf683+/G+85Pjl3qsyCr/Wm/3433nJccu9XevN/vxvvOHjl3qsyCr/Xm/wB+N95yfHLvVZkFX+tN&#xA;/vxvvOS45d6u9eb/AH433nDxy71WZBV/rzf78b7zk+OXervXm/3433nHjl3q715v9+N95x45d6ou&#xA;w1vVLCUSW9w4A6xsSyH5qdsvwa3LiNxkf0JEiHpehaxFq1gt0g4ODwlj68XHX6O4zt9DrBqMfGOf&#xA;X3t8TaYZmJdirsVdirsVdirsVeU+ZWDa9fEf79YfdtnAdpG9RP8ArOPLmmvmdZF8v6CP2DCS1OlS&#xA;iFfwrmf2mCNPh7uH9AZS5BV/L4WBu7j1eJuwq/V+VK8d+fGvfplns+MfHK/r6fppONnmdY2uxV2K&#xA;uxV2KuxV2KuxV2KuxV2KuxV2KuxV2KuxV2KuxV2KuxVgn5hLYi6tjEFF2Q3r8aV47ceX40zlPaAY&#xA;+ONfX1/RbVkRP5cc/Tv614Vi4+Ffjr/DLvZ26n3bfpTjZlnStjsVYN5q83XX1mSw09zFHESk06/a&#xA;ZhsQp7AZyvava0+I48ZoDmWqU+5ijXNyzFmldmPUliTnPnJI7klrtb683+/G+848cu9XevN/vxvv&#xA;OPHLvV3rzf78b7zjxy71WkkmpNSepORJV6U2jx6r5VsrZjxkFvC8Mn8riMU+g9DnbHRjUaSETz4Y&#xA;176bqsPNQSDUbEdDnENK715v9+N95yfHLvV3rzf78b7zjxy71d683+/G+848cu9XevN/vxvvOPHL&#xA;vV3rzf78b7zjxy71d683+/G+848cu9XevN/vxvvOPHLvV3rzf78b7zjxy71d683+/G+848cu9Xev&#xA;N/vxvvOPHLvV3rzf78b7zjxy71d683+/G+848cu9XevN/vxvvOPHLvV3rzf78b7zjxy71d683+/G&#xA;+848cu9XevN/vxvvOPHLvV3rzf78b7zjxy71Z55AfUGsrj6wXNtyX6sXr1oefGvbpnV9gHIYS4r4&#xA;en6W3Gq+e31BdMjNsWEHM/WSla0p8Nafs+OWdunIMQ4L4b9Vfjkmd08+9eb/AH433nOQ45d7StJJ&#xA;NTuT1OQV6voOjR6Tp62ynnITzmk/mc+HsOgz0DQaMafHw9evvb4ikxzNZOxV4y1TKfVrXl+88a13&#xA;zzQ893GevWC2S2cQsggteI9Lh0Iz0XAICA8OuHpTkBEZcl2KuxV5Hrf/AB2r/wD5iZv+ThzzzW/3&#xA;8/68vvceXN6lpX/HLs/+MEf/ABAZ3ml/uo/1R9zeOTyOD++j/wBYfrzzyH1Bx3s2elOS7FXYq7FX&#xA;Yq7FXYq7FXYq7FXYq7FXYq7FXYq7FXYq7FXYq7FXjM/99J/rH9eeaz+ouM9mz0pyXYq7FXnPnbRo&#xA;7DUFuYj+7vS7+n/Ky05fQeVc4ztrRjFk4hynfz6/e0zFJZocuorqdutiX9UuPhWtCK78h4U65g6G&#xA;WUZY+Hd2xjdvWc9Bch5FqM+p/XZvrryC55H1AxIofb28M871E8vGeMnicc2hvXm/3433nKeOXeha&#xA;SSancnqcgr2DTl46fbL14xIPuUZ6PpxWOI/oj7nIDyGD++j/ANYfrzzuH1Bx3s2elOS7FWJfmDe3&#xA;UFvaQRSFI5zIZeJoTw40Bp2+LOe9oM84xjEGhK7+Ffra8hXfl/e3M9ncxTSNIkLL6fIkkBgaip7b&#xA;ZLsDNKUJCRsAilxlb+YN7cwW9pBFIUjnMhl4mleHGgNO3xZH2gzyjGMQaErv4V+tchXfl/eXM1nd&#xA;RSyNIkLL6YY1oGBqBXtth7AzSlCQJsAilxlb+YN9cwW9pBE5RJzIZOJoTw40Bp2+LB7QZ5RjGINC&#xA;V38K/WuQrvy/vLmazuopZC6Qsvp8jWgYGoFe22HsDNKUJAmwCKXGXfmBeXMNnaxRSNGkzN6gU0qF&#xA;AoDTtvj2/mlGEQDQJNrkK38vr25nt7uCWQvHAYzFyNac+VQK9vhwez+eUoyiTYjVfG/1LjK78wL2&#xA;5gs7aKGRo0mZvU4kgkKBQVHbfJdv5pRhERNAk2uQrfy+vbme3u4JZC8cBjMXI1pz5VAr2+HI+z+e&#xA;UoyiTYjVfG/1LjK78wL25gs7aKGRo0mZvU4kgkKBQVHbfJdv5pRhERNAk2uQrfy+vbqe3u4JZC8c&#xA;BjMXI1I58qgV7fDkfZ/POUZRJsRqvjf6lxlf5/vbqCztoYZDGkzN6nE0JCgUFR23yXb+acIRETQk&#xA;Ta5Cs/L69upoLyCWQvHAYzEGNSOfKoBPb4cj7P5pyjKJNiNV8b/UuMr/AD/e3MFlbQwyGNJ2b1OJ&#xA;oSFAoKjtvku380oQjGJriO65Cp/l9e3U0F5BLI0kcJjMQY148+VQK9vhyHs/mnKMok2I1Xxv9S4y&#xA;y7OibHYq8Zn/AL6T/WP6881n9RcZ7NnpTkuxV2KsL/Mf/pXf89v+Zecz7R/5P/O/3rVkX/lz/c33&#xA;+tH+psl7O/TP4fpTjZjnSNjsVdirx/UyDqV2RuDNIQf9mc851J/ey/rH73HPN61ZgizgB2IjQEf7&#xA;EZ6FhHoHuDeHj8H99H/rD9eecw+oOO9mz0pyXYqw78xoZWhsZlUmOMyK7dgX48a/Pic5v2igSIS6&#xA;C/tpryL/AMu4ZVtLuVlIjkdAjHoSoNaffkvZ6BEJHoSFxtfmJazyW9nOiFooTIsjDfjz40r/AMDg&#xA;9ocUjGEgNhd/Gv1LkC78vLeeOzupnQrHK6emx25cQa0+/Jez+OQhKRGxIpca38xLWeS3s7hELRwm&#xA;QSMBXjz40J/4HB7Q4pGMJAbRu/jX6lyBd+XlvPHZ3UroVjlZPTYinLiDWn34fZ7HIQkSNiRS43fm&#xA;HbzyWdrMiFo4nf1GG/HkBSv3Y+0GORhGQGwJtci38u7WeO3vLh0KxTGMRsRTlw5Vp/wWR9nsUhGc&#xA;iNjVfC/1rjDf5iRSNaWcqqTGjuHYdAWApX7sPtDAmET0BK5Fn5cwyrDfTMpEchjVG7Epy5U+XIZH&#xA;2dgQJy6Gvstcap+YdvPJZ2syIWjid/UYb8eQFK/dk/aDHIwjIDYE2uRb+XdtPHBeTuhWKYxiNiKc&#xA;uHKtP+CyPs9ikIzkRsar4X+tcYX/AJhW08lnazIhaOF29QjfjyAoT7bZL2gxyMIyA2BNrkCn+Xdt&#xA;OkF7O6FYpTGI2O3LhyrT/ghkfZ7HIRnIjY1XwtcYXfmJDK1naSqpMcbsHYduQFK/dh9oYEwiRyBK&#xA;5Fn5cwyrFfTFSI5DGqN2JXlyp8uQyPs7AgTl0NfZa42Y50jY7FXjM/8AfSf6x/Xnms/qLjPZs9Kc&#xA;l2KuxVhf5j/9K7/nt/zLzmfaP/J/53+9asi/8uf7m+/1o/1NkvZ36Z/D9KcbMc6RsdirsVeO33+9&#xA;tx/xkf8A4kc83z/XL3lxi9fg/uI/9Ufqz0aH0hyXjkH99H/rD9eebw+oOM9mz0pyXYq0yqylWAZT&#xA;1B3GAgHmrlVVUKoAUbADYDECuSt4VdirsVdirsVdirTKrKVYAqdiDuDgIvmrlVVUKoCqOgGwxAA5&#xA;K3hV2KuxV2KuZVYFWAIPUHcYCLVpVVVCqAqjYAbAYgAbBW8KuxV4zP8A30n+sf155rP6i4z2bPSn&#xA;JdirsVYX+Y//AErv+e3/ADLzmfaP/J/53+9asi/8uf7m+/1o/wBTZL2d+mfw/SnGzHOkbHYq7FXj&#xA;VwSbiUncl2JP055rkPqPvcZ7KoCgAbAbAZ6SBTkvGYP76P8A1h+vPNofUHGezZ6U5LsVdirsVdir&#xA;sVdirsVdirsVdirsVdirsVdirsVdirsVdirsVeMz/wB9J/rH9eeaz+ouM9mz0pyXYq7FWF/mP/0r&#xA;v+e3/MvOZ9o/8n/nf71qyL/y5/ub7/Wj/U2S9nfpn8P0pxsxzpGx2KuxV4yf3sxptzbavuc80Pql&#xA;73GezZ6W5LxmD++j/wBYfrzzWH1Bxns2elOS7FXYq7FXYq7FXYq7FXYq7FXYq7FXYq7FXYq7FXYq&#xA;7FXYq7FXjM/99J/rH9eeaz+ouM9mz0pyXYq8i1C41M3kv1x5BchiJAxNQa9APDwzzvUZMvGeMnic&#xA;c2hWd2pyYtTpU1zHMieaHLI6/ZYrXrQ0xEiOSt+vN/vxvvOS45d6u9eb/fjfeceOXervXm/3433n&#xA;Hjl3qsyCr/Xm/wB+N95yfHLvVZkFX+vN/vxvvOT45d6u9eb/AH433nHjl3q715v9+N95x45d6u9e&#xA;b/fjfeceOXervXm/3433nHjl3q715v8AfjfeceOXervXm/3433nHjl3q715v9+N95x45d6u9eb/f&#xA;jfeceOXervXm/wB+N95x45d6u9eb/fjfeceOXervXm/3433nHjl3q715v9+N95x45d6u9eb/AH43&#xA;3nHjl3q715v9+N95x45d6u9eb/fjfeceOXervXm/3433nHjl3q715v8AfjfeceOXervXm/3433nH&#xA;jl3q715v9+N95x45d6rMgq/15v8Afjfecnxy71ROn3Opi8i+pSSG4LARqpO58CPDxy7T5MomOAni&#xA;SCX/2Q==</xmpGImg:image>
               </rdf:li>
            </rdf:Alt>
         </xmp:Thumbnails>
      </rdf:Description>
      <rdf:Description rdf:about=""
            xmlns:xmpTPg="http://ns.adobe.com/xap/1.0/t/pg/"
            xmlns:stDim="http://ns.adobe.com/xap/1.0/sType/Dimensions#"
            xmlns:xmpG="http://ns.adobe.com/xap/1.0/g/">
         <xmpTPg:MaxPageSize rdf:parseType="Resource">
            <stDim:w>75.000000</stDim:w>
            <stDim:h>75.000000</stDim:h>
            <stDim:unit>Pixels</stDim:unit>
         </xmpTPg:MaxPageSize>
         <xmpTPg:NPages>1</xmpTPg:NPages>
         <xmpTPg:HasVisibleTransparency>False</xmpTPg:HasVisibleTransparency>
         <xmpTPg:HasVisibleOverprint>False</xmpTPg:HasVisibleOverprint>
         <xmpTPg:PlateNames>
            <rdf:Seq>
               <rdf:li>Cyan</rdf:li>
               <rdf:li>Magenta</rdf:li>
               <rdf:li>Yellow</rdf:li>
            </rdf:Seq>
         </xmpTPg:PlateNames>
         <xmpTPg:SwatchGroups>
            <rdf:Seq>
               <rdf:li rdf:parseType="Resource">
                  <xmpG:groupName>Default Swatch Group</xmpG:groupName>
                  <xmpG:groupType>0</xmpG:groupType>
               </rdf:li>
            </rdf:Seq>
         </xmpTPg:SwatchGroups>
      </rdf:Description>
      <rdf:Description rdf:about=""
            xmlns:dc="http://purl.org/dc/elements/1.1/">
         <dc:format>image/svg+xml</dc:format>
      </rdf:Description>
      <rdf:Description rdf:about=""
            xmlns:xmpMM="http://ns.adobe.com/xap/1.0/mm/"
            xmlns:stEvt="http://ns.adobe.com/xap/1.0/sType/ResourceEvent#"
            xmlns:stRef="http://ns.adobe.com/xap/1.0/sType/ResourceRef#">
         <xmpMM:DocumentID>xmp.did:7A88623FC194EE11B842EE0225E891FF</xmpMM:DocumentID>
         <xmpMM:InstanceID>xmp.iid:7A88623FC194EE11B842EE0225E891FF</xmpMM:InstanceID>
         <xmpMM:OriginalDocumentID>xmp.did:3F13D44CE25CEE118410D57AC0A4B059</xmpMM:OriginalDocumentID>
         <xmpMM:History>
            <rdf:Seq>
               <rdf:li rdf:parseType="Resource">
                  <stEvt:action>saved</stEvt:action>
                  <stEvt:instanceID>xmp.iid:3F13D44CE25CEE118410D57AC0A4B059</stEvt:instanceID>
                  <stEvt:when>2023-09-27T09:31:38+05:30</stEvt:when>
                  <stEvt:softwareAgent>Adobe Illustrator CS6 (Windows)</stEvt:softwareAgent>
                  <stEvt:changed>/</stEvt:changed>
               </rdf:li>
               <rdf:li rdf:parseType="Resource">
                  <stEvt:action>saved</stEvt:action>
                  <stEvt:instanceID>xmp.iid:7A88623FC194EE11B842EE0225E891FF</stEvt:instanceID>
                  <stEvt:when>2023-12-07T10:57+05:30</stEvt:when>
                  <stEvt:softwareAgent>Adobe Illustrator CS6 (Windows)</stEvt:softwareAgent>
                  <stEvt:changed>/</stEvt:changed>
               </rdf:li>
            </rdf:Seq>
         </xmpMM:History>
         <xmpMM:DerivedFrom rdf:parseType="Resource">
            <stRef:instanceID>xmp.iid:3F13D44CE25CEE118410D57AC0A4B059</stRef:instanceID>
            <stRef:documentID>xmp.did:3F13D44CE25CEE118410D57AC0A4B059</stRef:documentID>
            <stRef:originalDocumentID>xmp.did:3F13D44CE25CEE118410D57AC0A4B059</stRef:originalDocumentID>
         </xmpMM:DerivedFrom>
      </rdf:Description>
   </rdf:RDF>
</x:xmpmeta>
                                                                                                    
                                                                                                    
                                                                                                    
                                                                                                    
                                                                                                    
                                                                                                    
                                                                                                    
                                                                                                    
                                                                                                    
                                                                                                    
                                                                                                    
                                                                                                    
                                                                                                    
                                                                                                    
                                                                                                    
                                                                                                    
                                                                                                    
                                                                                                    
                                                                                                    
                                                                                                    
                           
<?xpacket end="w"?>
	</metadata>
<path fill="#A5CD39" d="M73.9,72.8H70.3V57.7c1.433-1.249,1.58-3.425,0.331-4.856c-0.654-0.752-1.604-1.182-2.604-1.18H60.84
	L59.73,33.907c-0.031-0.579-0.513-1.032-1.09-1.03h-4.701c-0.58-0.001-1.063,0.45-1.102,1.03L51.73,51.664H49.1L47.99,33.907
	c-0.037-0.58-0.52-1.031-1.1-1.03H42.2c-0.581-0.001-1.063,0.45-1.101,1.03L39.99,51.664h-2.63l-1.11-17.757
	c-0.037-0.58-0.519-1.031-1.1-1.03h-4.7c-0.58-0.002-1.06,0.451-1.09,1.03l-1.11,17.757h-3.06l-0.68-30.63
	c-0.014-0.598-0.502-1.074-1.1-1.074h-7.05c-0.595,0.002-1.079,0.479-1.09,1.074l-0.79,35.327H5.8
	c-1.904-0.002-3.449,1.541-3.45,3.445c0,0.99,0.426,1.936,1.169,2.59v10.398H1.1c-0.607,0-1.1,0.492-1.1,1.102
	c0,0.606,0.492,1.101,1.1,1.101l0,0h72.8c0.606,0,1.102-0.49,1.102-1.099C75.002,73.289,74.508,72.797,73.9,72.8z M14.38,61.057
	h-3.89c-0.607,0-1.1,0.492-1.1,1.103c0,0.606,0.492,1.1,1.1,1.1l0,0h3.84l-0.22,9.545H5.72v-9.547H5.8c0.608,0,1.1-0.491,1.1-1.1
	s-0.492-1.103-1.1-1.103c-0.69,0-1.25-0.56-1.25-1.25c0-0.688,0.56-1.25,1.25-1.25h8.63L14.38,61.057z M54.971,35.073H57.6
	l1.041,16.59H53.93L54.971,35.073z M43.23,35.073h2.629l1.041,16.59h-4.711L43.23,35.073z M31.49,35.073h2.63l1.04,16.59h-4.71
	L31.49,35.073z M18.79,72.8h-2.48l1.13-50.644h4.89l0.66,29.507h-1.93c-1.901-0.005-3.445,1.532-3.45,3.435
	c-0.002,0.998,0.428,1.945,1.18,2.604V72.8L18.79,72.8z M68.029,56.359h-2.35c-0.607,0-1.102,0.492-1.102,1.101
	s0.49,1.101,1.102,1.101l0,0h2.43V72.8H20.98V58.559h40.01c0.607,0,1.1-0.492,1.1-1.1s-0.492-1.1-1.1-1.1H21.06
	c-0.69,0-1.25-0.563-1.25-1.25c0-0.691,0.56-1.25,1.25-1.25h46.969c0.691,0,1.252,0.561,1.252,1.252
	c0,0.689-0.561,1.252-1.252,1.252V56.359z M60.98,0C57.693-0.003,54.514,1.155,52,3.271c-4.145-3.113-9.941-2.722-13.63,0.918
	c-4.111-1.778-8.885,0.109-10.67,4.216c-0.442-0.123-0.9-0.188-1.36-0.188c-2.227,0.008-4.201,1.433-4.91,3.544
	c-0.123-0.014-0.247-0.021-0.37-0.021c-1.903,0.002-3.446,1.543-3.45,3.447c0.004,0.607,0.5,1.097,1.107,1.093
	c0.602-0.004,1.089-0.491,1.093-1.093c-0.005-0.685,0.547-1.245,1.232-1.249c0.232-0.001,0.46,0.062,0.657,0.183
	c0.327,0.197,0.733,0.208,1.07,0.029c0.339-0.181,0.562-0.522,0.59-0.905c0.074-1.635,1.459-2.901,3.095-2.827
	c0.478,0.021,0.942,0.158,1.355,0.398c0.526,0.299,1.194,0.114,1.493-0.412c0.047-0.083,0.083-0.172,0.107-0.264
	c0.833-3.168,4.077-5.06,7.245-4.227c0.494,0.13,0.97,0.324,1.417,0.576c0.455,0.258,1.027,0.159,1.369-0.238
	c2.977-3.465,8.194-3.862,11.66-0.887c0.063,0.055,0.127,0.111,0.188,0.168c0.43,0.388,1.084,0.378,1.5-0.022
	c4.698-4.526,12.178-4.386,16.703,0.313c4.526,4.699,4.387,12.177-0.313,16.703c-4.697,4.526-12.176,4.386-16.703-0.313
	c-0.73-0.762-1.361-1.619-1.867-2.547c-0.275-0.51-0.901-0.716-1.43-0.471c-3.354,1.554-7.332,0.688-9.74-2.116
	c-0.34-0.397-0.914-0.497-1.369-0.239c-2.575,1.461-5.833,0.795-7.628-1.561c-0.209-0.27-0.53-0.427-0.87-0.429l0,0
	c-0.339,0-0.66,0.154-0.87,0.42c-0.563,0.734-1.435,1.165-2.36,1.167c-0.608,0-1.1,0.493-1.1,1.1s0.492,1.1,1.1,1.1
	c1.153,0.002,2.273-0.383,3.18-1.095c2.358,2.268,5.847,2.898,8.849,1.6c2.844,2.809,7.041,3.749,10.813,2.423
	c4.17,6.521,12.838,8.425,19.356,4.254c6.521-4.171,8.425-12.838,4.255-19.358C70.215,2.435,65.762-0.002,60.98,0z M28.11,61.061
	c-0.607,0-1.1,0.492-1.1,1.102v2.348c-0.058,0.605,0.385,1.145,0.99,1.2c0.604,0.06,1.142-0.386,1.2-0.989
	c0.007-0.068,0.007-0.141,0-0.211v-2.35C29.2,61.557,28.713,61.064,28.11,61.061z M32.8,61.061c-0.607,0-1.1,0.492-1.1,1.102v2.348
	c0.004,0.607,0.5,1.098,1.107,1.094c0.602-0.004,1.089-0.49,1.093-1.094v-2.35C33.9,61.553,33.408,61.061,32.8,61.061L32.8,61.061z
	 M37.5,61.061c-0.608,0-1.1,0.492-1.1,1.102v2.348c0.004,0.607,0.5,1.098,1.107,1.094c0.603-0.004,1.089-0.49,1.093-1.094v-2.35
	C38.6,61.553,38.107,61.061,37.5,61.061L37.5,61.061z M42.199,61.061c-0.607,0-1.1,0.492-1.1,1.102v2.348
	c0.004,0.607,0.5,1.098,1.105,1.094c0.604-0.004,1.089-0.49,1.093-1.094v-2.35C43.3,61.553,42.807,61.061,42.199,61.061
	L42.199,61.061z M46.891,61.061c-0.604,0.006-1.091,0.496-1.091,1.102v2.348c-0.058,0.605,0.386,1.145,0.989,1.2
	c0.605,0.06,1.143-0.386,1.201-0.989c0.006-0.068,0.006-0.141,0-0.211v-2.35C47.99,61.553,47.498,61.061,46.891,61.061
	L46.891,61.061z M51.59,61.061c-0.607,0-1.1,0.492-1.1,1.102v2.348c0.004,0.607,0.5,1.098,1.107,1.094
	c0.602-0.004,1.088-0.49,1.092-1.094v-2.35C52.689,61.553,52.197,61.061,51.59,61.061L51.59,61.061z M56.289,61.061
	c-0.607,0-1.1,0.492-1.1,1.102v2.348c0.004,0.607,0.5,1.098,1.105,1.094c0.604-0.004,1.089-0.49,1.094-1.094v-2.35
	C57.391,61.553,56.896,61.061,56.289,61.061L56.289,61.061z M60.979,61.061c-0.604,0.006-1.09,0.496-1.09,1.102v2.348
	c-0.058,0.605,0.387,1.145,0.989,1.2c0.604,0.06,1.144-0.386,1.201-0.989c0.006-0.068,0.006-0.141,0-0.211v-2.35
	C62.08,61.553,61.588,61.061,60.979,61.061L60.979,61.061z"/>
</svg>
